G04 #@! TF.GenerationSoftware,KiCad,Pcbnew,(5.1.9-0-10_14)*
G04 #@! TF.CreationDate,2021-02-25T23:37:31+01:00*
G04 #@! TF.ProjectId,QUino-Dogbox,5155696e-6f2d-4446-9f67-626f782e6b69,C*
G04 #@! TF.SameCoordinates,Original*
G04 #@! TF.FileFunction,Copper,L2,Bot*
G04 #@! TF.FilePolarity,Positive*
%FSLAX46Y46*%
G04 Gerber Fmt 4.6, Leading zero omitted, Abs format (unit mm)*
G04 Created by KiCad (PCBNEW (5.1.9-0-10_14)) date 2021-02-25 23:37:31*
%MOMM*%
%LPD*%
G01*
G04 APERTURE LIST*
G04 #@! TA.AperFunction,ComponentPad*
%ADD10O,1.700000X1.700000*%
G04 #@! TD*
G04 #@! TA.AperFunction,ComponentPad*
%ADD11R,1.700000X1.700000*%
G04 #@! TD*
G04 #@! TA.AperFunction,ComponentPad*
%ADD12O,1.750000X1.200000*%
G04 #@! TD*
G04 #@! TA.AperFunction,ViaPad*
%ADD13C,0.700000*%
G04 #@! TD*
G04 #@! TA.AperFunction,Conductor*
%ADD14C,0.406400*%
G04 #@! TD*
G04 #@! TA.AperFunction,Conductor*
%ADD15C,0.254000*%
G04 #@! TD*
G04 #@! TA.AperFunction,Conductor*
%ADD16C,0.100000*%
G04 #@! TD*
G04 APERTURE END LIST*
D10*
X140106400Y-96202500D03*
X137566400Y-96202500D03*
X135026400Y-96202500D03*
X132486400Y-96202500D03*
X129946400Y-96202500D03*
X127406400Y-96202500D03*
D11*
X124866400Y-96202500D03*
D12*
X108737400Y-98457000D03*
G04 #@! TA.AperFunction,ComponentPad*
G36*
G01*
X109362401Y-101057000D02*
X108112399Y-101057000D01*
G75*
G02*
X107862400Y-100807001I0J249999D01*
G01*
X107862400Y-100106999D01*
G75*
G02*
X108112399Y-99857000I249999J0D01*
G01*
X109362401Y-99857000D01*
G75*
G02*
X109612400Y-100106999I0J-249999D01*
G01*
X109612400Y-100807001D01*
G75*
G02*
X109362401Y-101057000I-249999J0D01*
G01*
G37*
G04 #@! TD.AperFunction*
D11*
X157137100Y-88366600D03*
D10*
X154597100Y-88366600D03*
X152057100Y-88366600D03*
X149517100Y-88366600D03*
X146977100Y-88366600D03*
X144437100Y-88366600D03*
X141897100Y-88366600D03*
X139357100Y-88366600D03*
G04 #@! TA.AperFunction,ComponentPad*
G36*
G01*
X157000101Y-98097900D02*
X155750099Y-98097900D01*
G75*
G02*
X155500100Y-97847901I0J249999D01*
G01*
X155500100Y-97147899D01*
G75*
G02*
X155750099Y-96897900I249999J0D01*
G01*
X157000101Y-96897900D01*
G75*
G02*
X157250100Y-97147899I0J-249999D01*
G01*
X157250100Y-97847901D01*
G75*
G02*
X157000101Y-98097900I-249999J0D01*
G01*
G37*
G04 #@! TD.AperFunction*
D12*
X156375100Y-95497900D03*
X156375100Y-93497900D03*
D13*
X111417100Y-122694700D03*
X115328700Y-99822000D03*
X134607300Y-132842000D03*
X102285800Y-116001800D03*
X103835200Y-136131300D03*
X102819200Y-104749600D03*
X163830000Y-113626900D03*
X87744300Y-101257100D03*
X94640400Y-139217400D03*
X156298900Y-129565400D03*
X99250500Y-134315200D03*
X91973400Y-132359400D03*
X123812300Y-130517900D03*
X138798300Y-111785400D03*
X104533700Y-92125800D03*
X99644200Y-100622100D03*
X117271800Y-117068600D03*
X100799900Y-112153700D03*
X93280100Y-132359400D03*
X101854000Y-86360000D03*
X156578300Y-114325400D03*
X142811500Y-92125800D03*
X143725900Y-129438400D03*
X157111700Y-127038100D03*
X114414300Y-120599200D03*
X113474500Y-94754700D03*
X114244400Y-87092600D03*
X155308300Y-110502700D03*
X156565600Y-116865400D03*
X156552900Y-118135400D03*
D14*
X102285800Y-105283000D02*
X102819200Y-104749600D01*
X102285800Y-116001800D02*
X102285800Y-105283000D01*
X103835200Y-117551200D02*
X102285800Y-116001800D01*
X103835200Y-136131300D02*
X103835200Y-117551200D01*
X111417100Y-103733600D02*
X115328700Y-99822000D01*
X111417100Y-122694700D02*
X111417100Y-103733600D01*
X100799900Y-101777800D02*
X99644200Y-100622100D01*
X100799900Y-112153700D02*
X100799900Y-101777800D01*
X93280100Y-132359400D02*
X93280100Y-119673500D01*
X100799900Y-112153700D02*
X93280100Y-119673500D01*
D15*
X138798300Y-111785400D02*
X138798300Y-106921300D01*
X138798300Y-106921300D02*
X130365500Y-98488500D01*
X101854000Y-93599000D02*
X101854000Y-86360000D01*
X130365500Y-98488500D02*
X114693700Y-98488500D01*
X109804200Y-93599000D02*
X101854000Y-93599000D01*
X114693700Y-98488500D02*
X109804200Y-93599000D01*
X107353100Y-90754200D02*
X144071200Y-90754200D01*
X104938900Y-88340000D02*
X107353100Y-90754200D01*
X156578300Y-103261300D02*
X144071200Y-90754200D01*
X156578300Y-114325400D02*
X156578300Y-103261300D01*
X104533700Y-92125800D02*
X142798800Y-92125800D01*
X143725900Y-129438400D02*
X136652000Y-129438400D01*
X134607300Y-131483100D02*
X134607300Y-132842000D01*
X136652000Y-129438400D02*
X134607300Y-131483100D01*
X139966700Y-127038100D02*
X157111700Y-127038100D01*
X129997200Y-117068600D02*
X139966700Y-127038100D01*
X117271800Y-117068600D02*
X129997200Y-117068600D01*
X117271800Y-117068600D02*
X115938300Y-117068600D01*
X114414300Y-118592600D02*
X114414300Y-120599200D01*
X115938300Y-117068600D02*
X114414300Y-118592600D01*
D14*
X114922300Y-96202500D02*
X113474500Y-94754700D01*
X124866400Y-96202500D02*
X114922300Y-96202500D01*
X116825601Y-89673801D02*
X144880701Y-89673801D01*
X114244400Y-87092600D02*
X116825601Y-89673801D01*
X150704800Y-95497900D02*
X156375100Y-95497900D01*
X144880701Y-89673801D02*
X150704800Y-95497900D01*
D15*
X149326600Y-110502700D02*
X135026400Y-96202500D01*
X155308300Y-110502700D02*
X149326600Y-110502700D01*
X153507282Y-116865400D02*
X132844382Y-96202500D01*
X132844382Y-96202500D02*
X132486400Y-96202500D01*
X156565600Y-116865400D02*
X153507282Y-116865400D01*
X149491700Y-115747800D02*
X129946400Y-96202500D01*
X151879300Y-118135400D02*
X149491700Y-115747800D01*
X156552900Y-118135400D02*
X151879300Y-118135400D01*
X163987001Y-140970000D02*
X87503000Y-140970000D01*
X87503000Y-132287403D01*
X92549100Y-132287403D01*
X92549100Y-132431397D01*
X92577192Y-132572625D01*
X92632296Y-132705658D01*
X92712295Y-132825385D01*
X92814115Y-132927205D01*
X92933842Y-133007204D01*
X93066875Y-133062308D01*
X93208103Y-133090400D01*
X93352097Y-133090400D01*
X93493325Y-133062308D01*
X93626358Y-133007204D01*
X93746085Y-132927205D01*
X93847905Y-132825385D01*
X93927904Y-132705658D01*
X93983008Y-132572625D01*
X94011100Y-132431397D01*
X94011100Y-132287403D01*
X93983008Y-132146175D01*
X93927904Y-132013142D01*
X93864300Y-131917952D01*
X93864300Y-119915483D01*
X97849980Y-115929803D01*
X101554800Y-115929803D01*
X101554800Y-116073797D01*
X101582892Y-116215025D01*
X101637996Y-116348058D01*
X101717995Y-116467785D01*
X101819815Y-116569605D01*
X101939542Y-116649604D01*
X102072575Y-116704708D01*
X102184860Y-116727043D01*
X103251001Y-117793184D01*
X103251000Y-135689852D01*
X103187396Y-135785042D01*
X103132292Y-135918075D01*
X103104200Y-136059303D01*
X103104200Y-136203297D01*
X103132292Y-136344525D01*
X103187396Y-136477558D01*
X103267395Y-136597285D01*
X103369215Y-136699105D01*
X103488942Y-136779104D01*
X103621975Y-136834208D01*
X103763203Y-136862300D01*
X103907197Y-136862300D01*
X104048425Y-136834208D01*
X104181458Y-136779104D01*
X104301185Y-136699105D01*
X104403005Y-136597285D01*
X104483004Y-136477558D01*
X104538108Y-136344525D01*
X104566200Y-136203297D01*
X104566200Y-136059303D01*
X104538108Y-135918075D01*
X104483004Y-135785042D01*
X104419400Y-135689852D01*
X104419400Y-132770003D01*
X133876300Y-132770003D01*
X133876300Y-132913997D01*
X133904392Y-133055225D01*
X133959496Y-133188258D01*
X134039495Y-133307985D01*
X134141315Y-133409805D01*
X134261042Y-133489804D01*
X134394075Y-133544908D01*
X134535303Y-133573000D01*
X134679297Y-133573000D01*
X134820525Y-133544908D01*
X134953558Y-133489804D01*
X135073285Y-133409805D01*
X135175105Y-133307985D01*
X135255104Y-133188258D01*
X135310208Y-133055225D01*
X135338300Y-132913997D01*
X135338300Y-132770003D01*
X135310208Y-132628775D01*
X135255104Y-132495742D01*
X135175105Y-132376015D01*
X135115300Y-132316210D01*
X135115300Y-131693520D01*
X136862421Y-129946400D01*
X143200110Y-129946400D01*
X143259915Y-130006205D01*
X143379642Y-130086204D01*
X143512675Y-130141308D01*
X143653903Y-130169400D01*
X143797897Y-130169400D01*
X143939125Y-130141308D01*
X144072158Y-130086204D01*
X144191885Y-130006205D01*
X144293705Y-129904385D01*
X144373704Y-129784658D01*
X144428808Y-129651625D01*
X144456900Y-129510397D01*
X144456900Y-129366403D01*
X144428808Y-129225175D01*
X144373704Y-129092142D01*
X144293705Y-128972415D01*
X144191885Y-128870595D01*
X144072158Y-128790596D01*
X143939125Y-128735492D01*
X143797897Y-128707400D01*
X143653903Y-128707400D01*
X143512675Y-128735492D01*
X143379642Y-128790596D01*
X143259915Y-128870595D01*
X143200110Y-128930400D01*
X136676943Y-128930400D01*
X136651999Y-128927943D01*
X136627055Y-128930400D01*
X136627053Y-128930400D01*
X136552415Y-128937751D01*
X136456657Y-128966799D01*
X136456655Y-128966800D01*
X136368404Y-129013971D01*
X136313810Y-129058776D01*
X136291052Y-129077452D01*
X136275150Y-129096829D01*
X134265735Y-131106245D01*
X134246352Y-131122152D01*
X134182871Y-131199505D01*
X134135699Y-131287758D01*
X134106651Y-131383516D01*
X134099300Y-131458153D01*
X134096843Y-131483100D01*
X134099300Y-131508045D01*
X134099301Y-132316209D01*
X134039495Y-132376015D01*
X133959496Y-132495742D01*
X133904392Y-132628775D01*
X133876300Y-132770003D01*
X104419400Y-132770003D01*
X104419400Y-122622703D01*
X110686100Y-122622703D01*
X110686100Y-122766697D01*
X110714192Y-122907925D01*
X110769296Y-123040958D01*
X110849295Y-123160685D01*
X110951115Y-123262505D01*
X111070842Y-123342504D01*
X111203875Y-123397608D01*
X111345103Y-123425700D01*
X111489097Y-123425700D01*
X111630325Y-123397608D01*
X111763358Y-123342504D01*
X111883085Y-123262505D01*
X111984905Y-123160685D01*
X112064904Y-123040958D01*
X112120008Y-122907925D01*
X112148100Y-122766697D01*
X112148100Y-122622703D01*
X112120008Y-122481475D01*
X112064904Y-122348442D01*
X112001300Y-122253252D01*
X112001300Y-120527203D01*
X113683300Y-120527203D01*
X113683300Y-120671197D01*
X113711392Y-120812425D01*
X113766496Y-120945458D01*
X113846495Y-121065185D01*
X113948315Y-121167005D01*
X114068042Y-121247004D01*
X114201075Y-121302108D01*
X114342303Y-121330200D01*
X114486297Y-121330200D01*
X114627525Y-121302108D01*
X114760558Y-121247004D01*
X114880285Y-121167005D01*
X114982105Y-121065185D01*
X115062104Y-120945458D01*
X115117208Y-120812425D01*
X115145300Y-120671197D01*
X115145300Y-120527203D01*
X115117208Y-120385975D01*
X115062104Y-120252942D01*
X114982105Y-120133215D01*
X114922300Y-120073410D01*
X114922300Y-118803020D01*
X116148721Y-117576600D01*
X116746010Y-117576600D01*
X116805815Y-117636405D01*
X116925542Y-117716404D01*
X117058575Y-117771508D01*
X117199803Y-117799600D01*
X117343797Y-117799600D01*
X117485025Y-117771508D01*
X117618058Y-117716404D01*
X117737785Y-117636405D01*
X117797590Y-117576600D01*
X129786780Y-117576600D01*
X139589850Y-127379671D01*
X139605752Y-127399048D01*
X139625129Y-127414950D01*
X139683104Y-127462529D01*
X139730276Y-127487743D01*
X139771357Y-127509701D01*
X139867115Y-127538749D01*
X139941753Y-127546100D01*
X139941755Y-127546100D01*
X139966699Y-127548557D01*
X139991643Y-127546100D01*
X156585910Y-127546100D01*
X156645715Y-127605905D01*
X156765442Y-127685904D01*
X156898475Y-127741008D01*
X157039703Y-127769100D01*
X157183697Y-127769100D01*
X157324925Y-127741008D01*
X157457958Y-127685904D01*
X157577685Y-127605905D01*
X157679505Y-127504085D01*
X157759504Y-127384358D01*
X157814608Y-127251325D01*
X157842700Y-127110097D01*
X157842700Y-126966103D01*
X157814608Y-126824875D01*
X157759504Y-126691842D01*
X157679505Y-126572115D01*
X157577685Y-126470295D01*
X157457958Y-126390296D01*
X157324925Y-126335192D01*
X157183697Y-126307100D01*
X157039703Y-126307100D01*
X156898475Y-126335192D01*
X156765442Y-126390296D01*
X156645715Y-126470295D01*
X156585910Y-126530100D01*
X140177121Y-126530100D01*
X130374055Y-116727035D01*
X130358148Y-116707652D01*
X130280795Y-116644171D01*
X130192543Y-116596999D01*
X130096785Y-116567951D01*
X130022147Y-116560600D01*
X130022144Y-116560600D01*
X129997200Y-116558143D01*
X129972256Y-116560600D01*
X117797590Y-116560600D01*
X117737785Y-116500795D01*
X117618058Y-116420796D01*
X117485025Y-116365692D01*
X117343797Y-116337600D01*
X117199803Y-116337600D01*
X117058575Y-116365692D01*
X116925542Y-116420796D01*
X116805815Y-116500795D01*
X116746010Y-116560600D01*
X115963243Y-116560600D01*
X115938299Y-116558143D01*
X115913355Y-116560600D01*
X115913353Y-116560600D01*
X115838715Y-116567951D01*
X115742957Y-116596999D01*
X115742955Y-116597000D01*
X115654704Y-116644171D01*
X115623162Y-116670057D01*
X115577352Y-116707652D01*
X115561450Y-116727029D01*
X114072735Y-118215745D01*
X114053352Y-118231652D01*
X113989871Y-118309005D01*
X113942699Y-118397258D01*
X113913651Y-118493016D01*
X113911757Y-118512250D01*
X113903843Y-118592600D01*
X113906300Y-118617544D01*
X113906301Y-120073409D01*
X113846495Y-120133215D01*
X113766496Y-120252942D01*
X113711392Y-120385975D01*
X113683300Y-120527203D01*
X112001300Y-120527203D01*
X112001300Y-103975583D01*
X115429641Y-100547243D01*
X115541925Y-100524908D01*
X115674958Y-100469804D01*
X115794685Y-100389805D01*
X115896505Y-100287985D01*
X115976504Y-100168258D01*
X116031608Y-100035225D01*
X116059700Y-99893997D01*
X116059700Y-99750003D01*
X116031608Y-99608775D01*
X115976504Y-99475742D01*
X115896505Y-99356015D01*
X115794685Y-99254195D01*
X115674958Y-99174196D01*
X115541925Y-99119092D01*
X115400697Y-99091000D01*
X115256703Y-99091000D01*
X115115475Y-99119092D01*
X114982442Y-99174196D01*
X114862715Y-99254195D01*
X114760895Y-99356015D01*
X114680896Y-99475742D01*
X114625792Y-99608775D01*
X114603457Y-99721059D01*
X111024295Y-103300222D01*
X111002011Y-103318510D01*
X110983723Y-103340794D01*
X110983720Y-103340797D01*
X110967236Y-103360884D01*
X110929007Y-103407466D01*
X110902721Y-103456643D01*
X110874759Y-103508956D01*
X110841354Y-103619077D01*
X110830075Y-103733600D01*
X110832901Y-103762294D01*
X110832900Y-122253252D01*
X110769296Y-122348442D01*
X110714192Y-122481475D01*
X110686100Y-122622703D01*
X104419400Y-122622703D01*
X104419400Y-117579881D01*
X104422225Y-117551199D01*
X104419400Y-117522517D01*
X104419400Y-117522508D01*
X104410946Y-117436677D01*
X104377541Y-117326555D01*
X104323294Y-117225066D01*
X104250290Y-117136110D01*
X104228001Y-117117818D01*
X103011043Y-115900860D01*
X102988708Y-115788575D01*
X102933604Y-115655542D01*
X102870000Y-115560352D01*
X102870000Y-105524983D01*
X102920141Y-105474843D01*
X103032425Y-105452508D01*
X103165458Y-105397404D01*
X103285185Y-105317405D01*
X103387005Y-105215585D01*
X103467004Y-105095858D01*
X103522108Y-104962825D01*
X103550200Y-104821597D01*
X103550200Y-104677603D01*
X103522108Y-104536375D01*
X103467004Y-104403342D01*
X103387005Y-104283615D01*
X103285185Y-104181795D01*
X103165458Y-104101796D01*
X103032425Y-104046692D01*
X102891197Y-104018600D01*
X102747203Y-104018600D01*
X102605975Y-104046692D01*
X102472942Y-104101796D01*
X102353215Y-104181795D01*
X102251395Y-104283615D01*
X102171396Y-104403342D01*
X102116292Y-104536375D01*
X102093957Y-104648659D01*
X101892994Y-104849623D01*
X101870711Y-104867910D01*
X101852423Y-104890194D01*
X101852420Y-104890197D01*
X101829145Y-104918558D01*
X101797707Y-104956866D01*
X101794522Y-104962825D01*
X101743459Y-105058356D01*
X101710054Y-105168477D01*
X101698775Y-105283000D01*
X101701601Y-105311694D01*
X101701600Y-115560352D01*
X101637996Y-115655542D01*
X101582892Y-115788575D01*
X101554800Y-115929803D01*
X97849980Y-115929803D01*
X100900840Y-112878943D01*
X101013125Y-112856608D01*
X101146158Y-112801504D01*
X101265885Y-112721505D01*
X101367705Y-112619685D01*
X101447704Y-112499958D01*
X101502808Y-112366925D01*
X101530900Y-112225697D01*
X101530900Y-112081703D01*
X101502808Y-111940475D01*
X101447704Y-111807442D01*
X101384100Y-111712252D01*
X101384100Y-101806492D01*
X101386926Y-101777800D01*
X101375646Y-101663277D01*
X101342241Y-101553155D01*
X101287994Y-101451666D01*
X101233280Y-101384996D01*
X101233278Y-101384994D01*
X101214990Y-101362710D01*
X101192706Y-101344422D01*
X100369443Y-100521160D01*
X100347108Y-100408875D01*
X100292004Y-100275842D01*
X100212005Y-100156115D01*
X100162889Y-100106999D01*
X107479557Y-100106999D01*
X107479557Y-100807001D01*
X107491717Y-100930462D01*
X107527729Y-101049179D01*
X107586210Y-101158589D01*
X107664912Y-101254488D01*
X107760811Y-101333190D01*
X107870221Y-101391671D01*
X107988938Y-101427683D01*
X108112399Y-101439843D01*
X109362401Y-101439843D01*
X109485862Y-101427683D01*
X109604579Y-101391671D01*
X109713989Y-101333190D01*
X109809888Y-101254488D01*
X109888590Y-101158589D01*
X109947071Y-101049179D01*
X109983083Y-100930462D01*
X109995243Y-100807001D01*
X109995243Y-100106999D01*
X109983083Y-99983538D01*
X109947071Y-99864821D01*
X109888590Y-99755411D01*
X109809888Y-99659512D01*
X109713989Y-99580810D01*
X109604579Y-99522329D01*
X109485862Y-99486317D01*
X109362401Y-99474157D01*
X108112399Y-99474157D01*
X107988938Y-99486317D01*
X107870221Y-99522329D01*
X107760811Y-99580810D01*
X107664912Y-99659512D01*
X107586210Y-99755411D01*
X107527729Y-99864821D01*
X107491717Y-99983538D01*
X107479557Y-100106999D01*
X100162889Y-100106999D01*
X100110185Y-100054295D01*
X99990458Y-99974296D01*
X99857425Y-99919192D01*
X99716197Y-99891100D01*
X99572203Y-99891100D01*
X99430975Y-99919192D01*
X99297942Y-99974296D01*
X99178215Y-100054295D01*
X99076395Y-100156115D01*
X98996396Y-100275842D01*
X98941292Y-100408875D01*
X98913200Y-100550103D01*
X98913200Y-100694097D01*
X98941292Y-100835325D01*
X98996396Y-100968358D01*
X99076395Y-101088085D01*
X99178215Y-101189905D01*
X99297942Y-101269904D01*
X99430975Y-101325008D01*
X99543260Y-101347343D01*
X100215701Y-102019785D01*
X100215700Y-111712252D01*
X100152096Y-111807442D01*
X100096992Y-111940475D01*
X100074657Y-112052760D01*
X92887295Y-119240122D01*
X92865011Y-119258410D01*
X92846723Y-119280694D01*
X92846720Y-119280697D01*
X92823445Y-119309058D01*
X92792007Y-119347366D01*
X92763011Y-119401614D01*
X92737759Y-119448856D01*
X92704354Y-119558977D01*
X92693075Y-119673500D01*
X92695901Y-119702194D01*
X92695900Y-131917952D01*
X92632296Y-132013142D01*
X92577192Y-132146175D01*
X92549100Y-132287403D01*
X87503000Y-132287403D01*
X87503000Y-98457000D01*
X107476654Y-98457000D01*
X107495595Y-98649310D01*
X107551689Y-98834229D01*
X107642782Y-99004651D01*
X107765372Y-99154028D01*
X107914749Y-99276618D01*
X108085171Y-99367711D01*
X108270090Y-99423805D01*
X108414213Y-99438000D01*
X109060587Y-99438000D01*
X109204710Y-99423805D01*
X109389629Y-99367711D01*
X109560051Y-99276618D01*
X109709428Y-99154028D01*
X109832018Y-99004651D01*
X109923111Y-98834229D01*
X109979205Y-98649310D01*
X109998146Y-98457000D01*
X109979205Y-98264690D01*
X109923111Y-98079771D01*
X109832018Y-97909349D01*
X109709428Y-97759972D01*
X109560051Y-97637382D01*
X109389629Y-97546289D01*
X109204710Y-97490195D01*
X109060587Y-97476000D01*
X108414213Y-97476000D01*
X108270090Y-97490195D01*
X108085171Y-97546289D01*
X107914749Y-97637382D01*
X107765372Y-97759972D01*
X107642782Y-97909349D01*
X107551689Y-98079771D01*
X107495595Y-98264690D01*
X107476654Y-98457000D01*
X87503000Y-98457000D01*
X87503000Y-86288003D01*
X101123000Y-86288003D01*
X101123000Y-86431997D01*
X101151092Y-86573225D01*
X101206196Y-86706258D01*
X101286195Y-86825985D01*
X101346001Y-86885791D01*
X101346000Y-93574053D01*
X101343543Y-93599000D01*
X101353351Y-93698585D01*
X101382399Y-93794343D01*
X101393713Y-93815509D01*
X101429571Y-93882595D01*
X101493052Y-93959948D01*
X101570405Y-94023429D01*
X101658657Y-94070601D01*
X101754415Y-94099649D01*
X101854000Y-94109457D01*
X101878947Y-94107000D01*
X109593780Y-94107000D01*
X114316849Y-98830070D01*
X114332752Y-98849448D01*
X114352129Y-98865350D01*
X114410104Y-98912929D01*
X114498355Y-98960100D01*
X114498357Y-98960101D01*
X114594115Y-98989149D01*
X114668753Y-98996500D01*
X114668755Y-98996500D01*
X114693699Y-98998957D01*
X114718643Y-98996500D01*
X130155080Y-98996500D01*
X138290301Y-107131722D01*
X138290300Y-111259610D01*
X138230495Y-111319415D01*
X138150496Y-111439142D01*
X138095392Y-111572175D01*
X138067300Y-111713403D01*
X138067300Y-111857397D01*
X138095392Y-111998625D01*
X138150496Y-112131658D01*
X138230495Y-112251385D01*
X138332315Y-112353205D01*
X138452042Y-112433204D01*
X138585075Y-112488308D01*
X138726303Y-112516400D01*
X138870297Y-112516400D01*
X139011525Y-112488308D01*
X139144558Y-112433204D01*
X139264285Y-112353205D01*
X139366105Y-112251385D01*
X139446104Y-112131658D01*
X139501208Y-111998625D01*
X139529300Y-111857397D01*
X139529300Y-111713403D01*
X139501208Y-111572175D01*
X139446104Y-111439142D01*
X139366105Y-111319415D01*
X139306300Y-111259610D01*
X139306300Y-106946243D01*
X139308757Y-106921299D01*
X139306300Y-106896353D01*
X139298949Y-106821715D01*
X139269901Y-106725957D01*
X139247943Y-106684876D01*
X139222729Y-106637704D01*
X139175150Y-106579729D01*
X139159248Y-106560352D01*
X139139871Y-106544450D01*
X130742355Y-98146935D01*
X130726448Y-98127552D01*
X130649095Y-98064071D01*
X130560843Y-98016899D01*
X130465085Y-97987851D01*
X130390447Y-97980500D01*
X130390444Y-97980500D01*
X130365500Y-97978043D01*
X130340556Y-97980500D01*
X114904121Y-97980500D01*
X111606324Y-94682703D01*
X112743500Y-94682703D01*
X112743500Y-94826697D01*
X112771592Y-94967925D01*
X112826696Y-95100958D01*
X112906695Y-95220685D01*
X113008515Y-95322505D01*
X113128242Y-95402504D01*
X113261275Y-95457608D01*
X113373560Y-95479943D01*
X114488918Y-96595301D01*
X114507210Y-96617590D01*
X114596166Y-96690594D01*
X114697655Y-96744841D01*
X114807777Y-96778246D01*
X114893608Y-96786700D01*
X114893617Y-96786700D01*
X114922299Y-96789525D01*
X114950981Y-96786700D01*
X123633557Y-96786700D01*
X123633557Y-97052500D01*
X123640913Y-97127189D01*
X123662699Y-97199008D01*
X123698078Y-97265196D01*
X123745689Y-97323211D01*
X123803704Y-97370822D01*
X123869892Y-97406201D01*
X123941711Y-97427987D01*
X124016400Y-97435343D01*
X125716400Y-97435343D01*
X125791089Y-97427987D01*
X125862908Y-97406201D01*
X125929096Y-97370822D01*
X125987111Y-97323211D01*
X126034722Y-97265196D01*
X126070101Y-97199008D01*
X126091887Y-97127189D01*
X126099243Y-97052500D01*
X126099243Y-96895867D01*
X126211222Y-97083855D01*
X126406131Y-97300088D01*
X126639480Y-97474141D01*
X126902301Y-97599325D01*
X127049510Y-97643976D01*
X127279400Y-97522655D01*
X127279400Y-96329500D01*
X127259400Y-96329500D01*
X127259400Y-96075500D01*
X127279400Y-96075500D01*
X127279400Y-94882345D01*
X127533400Y-94882345D01*
X127533400Y-96075500D01*
X127553400Y-96075500D01*
X127553400Y-96329500D01*
X127533400Y-96329500D01*
X127533400Y-97522655D01*
X127763290Y-97643976D01*
X127910499Y-97599325D01*
X128173320Y-97474141D01*
X128406669Y-97300088D01*
X128601578Y-97083855D01*
X128750557Y-96833752D01*
X128808172Y-96671332D01*
X128855502Y-96785597D01*
X128990220Y-96987217D01*
X129161683Y-97158680D01*
X129363303Y-97293398D01*
X129587331Y-97386193D01*
X129825157Y-97433500D01*
X130067643Y-97433500D01*
X130305469Y-97386193D01*
X130380567Y-97355087D01*
X149150129Y-116124650D01*
X151502450Y-118476971D01*
X151518352Y-118496348D01*
X151537729Y-118512250D01*
X151595704Y-118559829D01*
X151673450Y-118601385D01*
X151683957Y-118607001D01*
X151779715Y-118636049D01*
X151854353Y-118643400D01*
X151854355Y-118643400D01*
X151879299Y-118645857D01*
X151904243Y-118643400D01*
X156027110Y-118643400D01*
X156086915Y-118703205D01*
X156206642Y-118783204D01*
X156339675Y-118838308D01*
X156480903Y-118866400D01*
X156624897Y-118866400D01*
X156766125Y-118838308D01*
X156899158Y-118783204D01*
X157018885Y-118703205D01*
X157120705Y-118601385D01*
X157200704Y-118481658D01*
X157255808Y-118348625D01*
X157283900Y-118207397D01*
X157283900Y-118063403D01*
X157255808Y-117922175D01*
X157200704Y-117789142D01*
X157120705Y-117669415D01*
X157018885Y-117567595D01*
X156924671Y-117504643D01*
X157031585Y-117433205D01*
X157133405Y-117331385D01*
X157213404Y-117211658D01*
X157268508Y-117078625D01*
X157296600Y-116937397D01*
X157296600Y-116793403D01*
X157268508Y-116652175D01*
X157213404Y-116519142D01*
X157133405Y-116399415D01*
X157031585Y-116297595D01*
X156911858Y-116217596D01*
X156778825Y-116162492D01*
X156637597Y-116134400D01*
X156493603Y-116134400D01*
X156352375Y-116162492D01*
X156219342Y-116217596D01*
X156099615Y-116297595D01*
X156039810Y-116357400D01*
X153717703Y-116357400D01*
X134766152Y-97405850D01*
X134905157Y-97433500D01*
X135147643Y-97433500D01*
X135385469Y-97386193D01*
X135460567Y-97355087D01*
X148949745Y-110844265D01*
X148965652Y-110863648D01*
X149043005Y-110927129D01*
X149131257Y-110974301D01*
X149227015Y-111003349D01*
X149301653Y-111010700D01*
X149301656Y-111010700D01*
X149326600Y-111013157D01*
X149351544Y-111010700D01*
X154782510Y-111010700D01*
X154842315Y-111070505D01*
X154962042Y-111150504D01*
X155095075Y-111205608D01*
X155236303Y-111233700D01*
X155380297Y-111233700D01*
X155521525Y-111205608D01*
X155654558Y-111150504D01*
X155774285Y-111070505D01*
X155876105Y-110968685D01*
X155956104Y-110848958D01*
X156011208Y-110715925D01*
X156039300Y-110574697D01*
X156039300Y-110430703D01*
X156011208Y-110289475D01*
X155956104Y-110156442D01*
X155876105Y-110036715D01*
X155774285Y-109934895D01*
X155654558Y-109854896D01*
X155521525Y-109799792D01*
X155380297Y-109771700D01*
X155236303Y-109771700D01*
X155095075Y-109799792D01*
X154962042Y-109854896D01*
X154842315Y-109934895D01*
X154782510Y-109994700D01*
X149537020Y-109994700D01*
X136178987Y-96636667D01*
X136210093Y-96561569D01*
X136257400Y-96323743D01*
X136257400Y-96081257D01*
X136335400Y-96081257D01*
X136335400Y-96323743D01*
X136382707Y-96561569D01*
X136475502Y-96785597D01*
X136610220Y-96987217D01*
X136781683Y-97158680D01*
X136983303Y-97293398D01*
X137207331Y-97386193D01*
X137445157Y-97433500D01*
X137687643Y-97433500D01*
X137925469Y-97386193D01*
X138149497Y-97293398D01*
X138351117Y-97158680D01*
X138522580Y-96987217D01*
X138657298Y-96785597D01*
X138750093Y-96561569D01*
X138797400Y-96323743D01*
X138797400Y-96081257D01*
X138875400Y-96081257D01*
X138875400Y-96323743D01*
X138922707Y-96561569D01*
X139015502Y-96785597D01*
X139150220Y-96987217D01*
X139321683Y-97158680D01*
X139523303Y-97293398D01*
X139747331Y-97386193D01*
X139985157Y-97433500D01*
X140227643Y-97433500D01*
X140465469Y-97386193D01*
X140689497Y-97293398D01*
X140891117Y-97158680D01*
X141062580Y-96987217D01*
X141197298Y-96785597D01*
X141290093Y-96561569D01*
X141337400Y-96323743D01*
X141337400Y-96081257D01*
X141290093Y-95843431D01*
X141197298Y-95619403D01*
X141062580Y-95417783D01*
X140891117Y-95246320D01*
X140689497Y-95111602D01*
X140465469Y-95018807D01*
X140227643Y-94971500D01*
X139985157Y-94971500D01*
X139747331Y-95018807D01*
X139523303Y-95111602D01*
X139321683Y-95246320D01*
X139150220Y-95417783D01*
X139015502Y-95619403D01*
X138922707Y-95843431D01*
X138875400Y-96081257D01*
X138797400Y-96081257D01*
X138750093Y-95843431D01*
X138657298Y-95619403D01*
X138522580Y-95417783D01*
X138351117Y-95246320D01*
X138149497Y-95111602D01*
X137925469Y-95018807D01*
X137687643Y-94971500D01*
X137445157Y-94971500D01*
X137207331Y-95018807D01*
X136983303Y-95111602D01*
X136781683Y-95246320D01*
X136610220Y-95417783D01*
X136475502Y-95619403D01*
X136382707Y-95843431D01*
X136335400Y-96081257D01*
X136257400Y-96081257D01*
X136210093Y-95843431D01*
X136117298Y-95619403D01*
X135982580Y-95417783D01*
X135811117Y-95246320D01*
X135609497Y-95111602D01*
X135385469Y-95018807D01*
X135147643Y-94971500D01*
X134905157Y-94971500D01*
X134667331Y-95018807D01*
X134443303Y-95111602D01*
X134241683Y-95246320D01*
X134070220Y-95417783D01*
X133935502Y-95619403D01*
X133842707Y-95843431D01*
X133795400Y-96081257D01*
X133795400Y-96323743D01*
X133823050Y-96462748D01*
X133711866Y-96351564D01*
X133717400Y-96323743D01*
X133717400Y-96081257D01*
X133670093Y-95843431D01*
X133577298Y-95619403D01*
X133442580Y-95417783D01*
X133271117Y-95246320D01*
X133069497Y-95111602D01*
X132845469Y-95018807D01*
X132607643Y-94971500D01*
X132365157Y-94971500D01*
X132127331Y-95018807D01*
X131903303Y-95111602D01*
X131701683Y-95246320D01*
X131530220Y-95417783D01*
X131395502Y-95619403D01*
X131302707Y-95843431D01*
X131255400Y-96081257D01*
X131255400Y-96323743D01*
X131302707Y-96561569D01*
X131395502Y-96785597D01*
X131530220Y-96987217D01*
X131701683Y-97158680D01*
X131903303Y-97293398D01*
X132127331Y-97386193D01*
X132365157Y-97433500D01*
X132607643Y-97433500D01*
X132845469Y-97386193D01*
X133069497Y-97293398D01*
X133157835Y-97234373D01*
X153130432Y-117206971D01*
X153146334Y-117226348D01*
X153165711Y-117242250D01*
X153223686Y-117289829D01*
X153292394Y-117326554D01*
X153311939Y-117337001D01*
X153407697Y-117366049D01*
X153482335Y-117373400D01*
X153482337Y-117373400D01*
X153507281Y-117375857D01*
X153532225Y-117373400D01*
X156039810Y-117373400D01*
X156099615Y-117433205D01*
X156193829Y-117496157D01*
X156086915Y-117567595D01*
X156027110Y-117627400D01*
X152089721Y-117627400D01*
X149868550Y-115406229D01*
X131098987Y-96636667D01*
X131130093Y-96561569D01*
X131177400Y-96323743D01*
X131177400Y-96081257D01*
X131130093Y-95843431D01*
X131037298Y-95619403D01*
X130902580Y-95417783D01*
X130731117Y-95246320D01*
X130529497Y-95111602D01*
X130305469Y-95018807D01*
X130067643Y-94971500D01*
X129825157Y-94971500D01*
X129587331Y-95018807D01*
X129363303Y-95111602D01*
X129161683Y-95246320D01*
X128990220Y-95417783D01*
X128855502Y-95619403D01*
X128808172Y-95733668D01*
X128750557Y-95571248D01*
X128601578Y-95321145D01*
X128406669Y-95104912D01*
X128173320Y-94930859D01*
X127910499Y-94805675D01*
X127763290Y-94761024D01*
X127533400Y-94882345D01*
X127279400Y-94882345D01*
X127049510Y-94761024D01*
X126902301Y-94805675D01*
X126639480Y-94930859D01*
X126406131Y-95104912D01*
X126211222Y-95321145D01*
X126099243Y-95509133D01*
X126099243Y-95352500D01*
X126091887Y-95277811D01*
X126070101Y-95205992D01*
X126034722Y-95139804D01*
X125987111Y-95081789D01*
X125929096Y-95034178D01*
X125862908Y-94998799D01*
X125791089Y-94977013D01*
X125716400Y-94969657D01*
X124016400Y-94969657D01*
X123941711Y-94977013D01*
X123869892Y-94998799D01*
X123803704Y-95034178D01*
X123745689Y-95081789D01*
X123698078Y-95139804D01*
X123662699Y-95205992D01*
X123640913Y-95277811D01*
X123633557Y-95352500D01*
X123633557Y-95618300D01*
X115164283Y-95618300D01*
X114199743Y-94653760D01*
X114177408Y-94541475D01*
X114122304Y-94408442D01*
X114042305Y-94288715D01*
X113940485Y-94186895D01*
X113820758Y-94106896D01*
X113687725Y-94051792D01*
X113546497Y-94023700D01*
X113402503Y-94023700D01*
X113261275Y-94051792D01*
X113128242Y-94106896D01*
X113008515Y-94186895D01*
X112906695Y-94288715D01*
X112826696Y-94408442D01*
X112771592Y-94541475D01*
X112743500Y-94682703D01*
X111606324Y-94682703D01*
X110181055Y-93257435D01*
X110165148Y-93238052D01*
X110087795Y-93174571D01*
X109999543Y-93127399D01*
X109903785Y-93098351D01*
X109829147Y-93091000D01*
X109829144Y-93091000D01*
X109804200Y-93088543D01*
X109779256Y-93091000D01*
X102362000Y-93091000D01*
X102362000Y-92053803D01*
X103802700Y-92053803D01*
X103802700Y-92197797D01*
X103830792Y-92339025D01*
X103885896Y-92472058D01*
X103965895Y-92591785D01*
X104067715Y-92693605D01*
X104187442Y-92773604D01*
X104320475Y-92828708D01*
X104461703Y-92856800D01*
X104605697Y-92856800D01*
X104746925Y-92828708D01*
X104879958Y-92773604D01*
X104999685Y-92693605D01*
X105059490Y-92633800D01*
X142285710Y-92633800D01*
X142345515Y-92693605D01*
X142465242Y-92773604D01*
X142598275Y-92828708D01*
X142739503Y-92856800D01*
X142883497Y-92856800D01*
X143024725Y-92828708D01*
X143157758Y-92773604D01*
X143277485Y-92693605D01*
X143379305Y-92591785D01*
X143459304Y-92472058D01*
X143514408Y-92339025D01*
X143542500Y-92197797D01*
X143542500Y-92053803D01*
X143514408Y-91912575D01*
X143459304Y-91779542D01*
X143379305Y-91659815D01*
X143277485Y-91557995D01*
X143157758Y-91477996D01*
X143024725Y-91422892D01*
X142883497Y-91394800D01*
X142739503Y-91394800D01*
X142598275Y-91422892D01*
X142465242Y-91477996D01*
X142345515Y-91557995D01*
X142285710Y-91617800D01*
X105059490Y-91617800D01*
X104999685Y-91557995D01*
X104879958Y-91477996D01*
X104746925Y-91422892D01*
X104605697Y-91394800D01*
X104461703Y-91394800D01*
X104320475Y-91422892D01*
X104187442Y-91477996D01*
X104067715Y-91557995D01*
X103965895Y-91659815D01*
X103885896Y-91779542D01*
X103830792Y-91912575D01*
X103802700Y-92053803D01*
X102362000Y-92053803D01*
X102362000Y-88340000D01*
X104428443Y-88340000D01*
X104438252Y-88439584D01*
X104467300Y-88535343D01*
X104514471Y-88623595D01*
X104562050Y-88681570D01*
X106976249Y-91095770D01*
X106992152Y-91115148D01*
X107011529Y-91131050D01*
X107069504Y-91178629D01*
X107157755Y-91225800D01*
X107157757Y-91225801D01*
X107253515Y-91254849D01*
X107328153Y-91262200D01*
X107328155Y-91262200D01*
X107353099Y-91264657D01*
X107378043Y-91262200D01*
X143860780Y-91262200D01*
X156070301Y-103471722D01*
X156070300Y-113799610D01*
X156010495Y-113859415D01*
X155930496Y-113979142D01*
X155875392Y-114112175D01*
X155847300Y-114253403D01*
X155847300Y-114397397D01*
X155875392Y-114538625D01*
X155930496Y-114671658D01*
X156010495Y-114791385D01*
X156112315Y-114893205D01*
X156232042Y-114973204D01*
X156365075Y-115028308D01*
X156506303Y-115056400D01*
X156650297Y-115056400D01*
X156791525Y-115028308D01*
X156924558Y-114973204D01*
X157044285Y-114893205D01*
X157146105Y-114791385D01*
X157226104Y-114671658D01*
X157281208Y-114538625D01*
X157309300Y-114397397D01*
X157309300Y-114253403D01*
X157281208Y-114112175D01*
X157226104Y-113979142D01*
X157146105Y-113859415D01*
X157086300Y-113799610D01*
X157086300Y-103286243D01*
X157088757Y-103261299D01*
X157086300Y-103236353D01*
X157078949Y-103161715D01*
X157049901Y-103065957D01*
X157049900Y-103065955D01*
X157002729Y-102977704D01*
X156955150Y-102919729D01*
X156939248Y-102900352D01*
X156919871Y-102884450D01*
X151183320Y-97147899D01*
X155117257Y-97147899D01*
X155117257Y-97847901D01*
X155129417Y-97971362D01*
X155165429Y-98090079D01*
X155223910Y-98199489D01*
X155302612Y-98295388D01*
X155398511Y-98374090D01*
X155507921Y-98432571D01*
X155626638Y-98468583D01*
X155750099Y-98480743D01*
X157000101Y-98480743D01*
X157123562Y-98468583D01*
X157242279Y-98432571D01*
X157351689Y-98374090D01*
X157447588Y-98295388D01*
X157526290Y-98199489D01*
X157584771Y-98090079D01*
X157620783Y-97971362D01*
X157632943Y-97847901D01*
X157632943Y-97147899D01*
X157620783Y-97024438D01*
X157584771Y-96905721D01*
X157526290Y-96796311D01*
X157447588Y-96700412D01*
X157351689Y-96621710D01*
X157242279Y-96563229D01*
X157123562Y-96527217D01*
X157000101Y-96515057D01*
X155750099Y-96515057D01*
X155626638Y-96527217D01*
X155507921Y-96563229D01*
X155398511Y-96621710D01*
X155302612Y-96700412D01*
X155223910Y-96796311D01*
X155165429Y-96905721D01*
X155129417Y-97024438D01*
X155117257Y-97147899D01*
X151183320Y-97147899D01*
X144448055Y-90412635D01*
X144432148Y-90393252D01*
X144354795Y-90329771D01*
X144266543Y-90282599D01*
X144185455Y-90258001D01*
X144638718Y-90258001D01*
X150271422Y-95890706D01*
X150289710Y-95912990D01*
X150311994Y-95931278D01*
X150311996Y-95931280D01*
X150378666Y-95985994D01*
X150480155Y-96040241D01*
X150590277Y-96073646D01*
X150667550Y-96081257D01*
X150704800Y-96084926D01*
X150733492Y-96082100D01*
X155310477Y-96082100D01*
X155403072Y-96194928D01*
X155552449Y-96317518D01*
X155722871Y-96408611D01*
X155907790Y-96464705D01*
X156051913Y-96478900D01*
X156698287Y-96478900D01*
X156842410Y-96464705D01*
X157027329Y-96408611D01*
X157197751Y-96317518D01*
X157347128Y-96194928D01*
X157469718Y-96045551D01*
X157560811Y-95875129D01*
X157616905Y-95690210D01*
X157635846Y-95497900D01*
X157616905Y-95305590D01*
X157560811Y-95120671D01*
X157469718Y-94950249D01*
X157347128Y-94800872D01*
X157197751Y-94678282D01*
X157124086Y-94638907D01*
X157240046Y-94590290D01*
X157441825Y-94454207D01*
X157613178Y-94281374D01*
X157747521Y-94078433D01*
X157839691Y-93853182D01*
X157843562Y-93815509D01*
X157718831Y-93624900D01*
X156502100Y-93624900D01*
X156502100Y-93644900D01*
X156248100Y-93644900D01*
X156248100Y-93624900D01*
X155031369Y-93624900D01*
X154906638Y-93815509D01*
X154910509Y-93853182D01*
X155002679Y-94078433D01*
X155137022Y-94281374D01*
X155308375Y-94454207D01*
X155510154Y-94590290D01*
X155626114Y-94638907D01*
X155552449Y-94678282D01*
X155403072Y-94800872D01*
X155310477Y-94913700D01*
X150946784Y-94913700D01*
X149213375Y-93180291D01*
X154906638Y-93180291D01*
X155031369Y-93370900D01*
X156248100Y-93370900D01*
X156248100Y-92262900D01*
X156502100Y-92262900D01*
X156502100Y-93370900D01*
X157718831Y-93370900D01*
X157843562Y-93180291D01*
X157839691Y-93142618D01*
X157747521Y-92917367D01*
X157613178Y-92714426D01*
X157441825Y-92541593D01*
X157240046Y-92405510D01*
X157015596Y-92311407D01*
X156777100Y-92262900D01*
X156502100Y-92262900D01*
X156248100Y-92262900D01*
X155973100Y-92262900D01*
X155734604Y-92311407D01*
X155510154Y-92405510D01*
X155308375Y-92541593D01*
X155137022Y-92714426D01*
X155002679Y-92917367D01*
X154910509Y-93142618D01*
X154906638Y-93180291D01*
X149213375Y-93180291D01*
X145314083Y-89281000D01*
X145295791Y-89258711D01*
X145290351Y-89254246D01*
X145393280Y-89151317D01*
X145527998Y-88949697D01*
X145620793Y-88725669D01*
X145668100Y-88487843D01*
X145668100Y-88245357D01*
X145746100Y-88245357D01*
X145746100Y-88487843D01*
X145793407Y-88725669D01*
X145886202Y-88949697D01*
X146020920Y-89151317D01*
X146192383Y-89322780D01*
X146394003Y-89457498D01*
X146618031Y-89550293D01*
X146855857Y-89597600D01*
X147098343Y-89597600D01*
X147336169Y-89550293D01*
X147560197Y-89457498D01*
X147761817Y-89322780D01*
X147933280Y-89151317D01*
X148067998Y-88949697D01*
X148160793Y-88725669D01*
X148208100Y-88487843D01*
X148208100Y-88245357D01*
X148286100Y-88245357D01*
X148286100Y-88487843D01*
X148333407Y-88725669D01*
X148426202Y-88949697D01*
X148560920Y-89151317D01*
X148732383Y-89322780D01*
X148934003Y-89457498D01*
X149158031Y-89550293D01*
X149395857Y-89597600D01*
X149638343Y-89597600D01*
X149876169Y-89550293D01*
X150100197Y-89457498D01*
X150301817Y-89322780D01*
X150473280Y-89151317D01*
X150607998Y-88949697D01*
X150655328Y-88835432D01*
X150712943Y-88997852D01*
X150861922Y-89247955D01*
X151056831Y-89464188D01*
X151290180Y-89638241D01*
X151553001Y-89763425D01*
X151700210Y-89808076D01*
X151930100Y-89686755D01*
X151930100Y-88493600D01*
X151910100Y-88493600D01*
X151910100Y-88239600D01*
X151930100Y-88239600D01*
X151930100Y-87046445D01*
X152184100Y-87046445D01*
X152184100Y-88239600D01*
X152204100Y-88239600D01*
X152204100Y-88493600D01*
X152184100Y-88493600D01*
X152184100Y-89686755D01*
X152413990Y-89808076D01*
X152561199Y-89763425D01*
X152824020Y-89638241D01*
X153057369Y-89464188D01*
X153252278Y-89247955D01*
X153401257Y-88997852D01*
X153458872Y-88835432D01*
X153506202Y-88949697D01*
X153640920Y-89151317D01*
X153812383Y-89322780D01*
X154014003Y-89457498D01*
X154238031Y-89550293D01*
X154475857Y-89597600D01*
X154718343Y-89597600D01*
X154956169Y-89550293D01*
X155180197Y-89457498D01*
X155381817Y-89322780D01*
X155553280Y-89151317D01*
X155687998Y-88949697D01*
X155780793Y-88725669D01*
X155828100Y-88487843D01*
X155828100Y-88245357D01*
X155780793Y-88007531D01*
X155687998Y-87783503D01*
X155553280Y-87581883D01*
X155487997Y-87516600D01*
X155904257Y-87516600D01*
X155904257Y-89216600D01*
X155911613Y-89291289D01*
X155933399Y-89363108D01*
X155968778Y-89429296D01*
X156016389Y-89487311D01*
X156074404Y-89534922D01*
X156140592Y-89570301D01*
X156212411Y-89592087D01*
X156287100Y-89599443D01*
X157987100Y-89599443D01*
X158061789Y-89592087D01*
X158133608Y-89570301D01*
X158199796Y-89534922D01*
X158257811Y-89487311D01*
X158305422Y-89429296D01*
X158340801Y-89363108D01*
X158362587Y-89291289D01*
X158369943Y-89216600D01*
X158369943Y-87516600D01*
X158362587Y-87441911D01*
X158340801Y-87370092D01*
X158305422Y-87303904D01*
X158257811Y-87245889D01*
X158199796Y-87198278D01*
X158133608Y-87162899D01*
X158061789Y-87141113D01*
X157987100Y-87133757D01*
X156287100Y-87133757D01*
X156212411Y-87141113D01*
X156140592Y-87162899D01*
X156074404Y-87198278D01*
X156016389Y-87245889D01*
X155968778Y-87303904D01*
X155933399Y-87370092D01*
X155911613Y-87441911D01*
X155904257Y-87516600D01*
X155487997Y-87516600D01*
X155381817Y-87410420D01*
X155180197Y-87275702D01*
X154956169Y-87182907D01*
X154718343Y-87135600D01*
X154475857Y-87135600D01*
X154238031Y-87182907D01*
X154014003Y-87275702D01*
X153812383Y-87410420D01*
X153640920Y-87581883D01*
X153506202Y-87783503D01*
X153458872Y-87897768D01*
X153401257Y-87735348D01*
X153252278Y-87485245D01*
X153057369Y-87269012D01*
X152824020Y-87094959D01*
X152561199Y-86969775D01*
X152413990Y-86925124D01*
X152184100Y-87046445D01*
X151930100Y-87046445D01*
X151700210Y-86925124D01*
X151553001Y-86969775D01*
X151290180Y-87094959D01*
X151056831Y-87269012D01*
X150861922Y-87485245D01*
X150712943Y-87735348D01*
X150655328Y-87897768D01*
X150607998Y-87783503D01*
X150473280Y-87581883D01*
X150301817Y-87410420D01*
X150100197Y-87275702D01*
X149876169Y-87182907D01*
X149638343Y-87135600D01*
X149395857Y-87135600D01*
X149158031Y-87182907D01*
X148934003Y-87275702D01*
X148732383Y-87410420D01*
X148560920Y-87581883D01*
X148426202Y-87783503D01*
X148333407Y-88007531D01*
X148286100Y-88245357D01*
X148208100Y-88245357D01*
X148160793Y-88007531D01*
X148067998Y-87783503D01*
X147933280Y-87581883D01*
X147761817Y-87410420D01*
X147560197Y-87275702D01*
X147336169Y-87182907D01*
X147098343Y-87135600D01*
X146855857Y-87135600D01*
X146618031Y-87182907D01*
X146394003Y-87275702D01*
X146192383Y-87410420D01*
X146020920Y-87581883D01*
X145886202Y-87783503D01*
X145793407Y-88007531D01*
X145746100Y-88245357D01*
X145668100Y-88245357D01*
X145620793Y-88007531D01*
X145527998Y-87783503D01*
X145393280Y-87581883D01*
X145221817Y-87410420D01*
X145020197Y-87275702D01*
X144796169Y-87182907D01*
X144558343Y-87135600D01*
X144315857Y-87135600D01*
X144078031Y-87182907D01*
X143854003Y-87275702D01*
X143652383Y-87410420D01*
X143480920Y-87581883D01*
X143346202Y-87783503D01*
X143253407Y-88007531D01*
X143206100Y-88245357D01*
X143206100Y-88487843D01*
X143253407Y-88725669D01*
X143346202Y-88949697D01*
X143439683Y-89089601D01*
X142894517Y-89089601D01*
X142987998Y-88949697D01*
X143080793Y-88725669D01*
X143128100Y-88487843D01*
X143128100Y-88245357D01*
X143080793Y-88007531D01*
X142987998Y-87783503D01*
X142853280Y-87581883D01*
X142681817Y-87410420D01*
X142480197Y-87275702D01*
X142256169Y-87182907D01*
X142018343Y-87135600D01*
X141775857Y-87135600D01*
X141538031Y-87182907D01*
X141314003Y-87275702D01*
X141112383Y-87410420D01*
X140940920Y-87581883D01*
X140806202Y-87783503D01*
X140713407Y-88007531D01*
X140666100Y-88245357D01*
X140666100Y-88487843D01*
X140713407Y-88725669D01*
X140806202Y-88949697D01*
X140899683Y-89089601D01*
X140354517Y-89089601D01*
X140447998Y-88949697D01*
X140540793Y-88725669D01*
X140588100Y-88487843D01*
X140588100Y-88245357D01*
X140540793Y-88007531D01*
X140447998Y-87783503D01*
X140313280Y-87581883D01*
X140141817Y-87410420D01*
X139940197Y-87275702D01*
X139716169Y-87182907D01*
X139478343Y-87135600D01*
X139235857Y-87135600D01*
X138998031Y-87182907D01*
X138774003Y-87275702D01*
X138572383Y-87410420D01*
X138400920Y-87581883D01*
X138266202Y-87783503D01*
X138173407Y-88007531D01*
X138126100Y-88245357D01*
X138126100Y-88487843D01*
X138173407Y-88725669D01*
X138266202Y-88949697D01*
X138359683Y-89089601D01*
X117067584Y-89089601D01*
X114969643Y-86991660D01*
X114947308Y-86879375D01*
X114892204Y-86746342D01*
X114812205Y-86626615D01*
X114710385Y-86524795D01*
X114590658Y-86444796D01*
X114457625Y-86389692D01*
X114316397Y-86361600D01*
X114172403Y-86361600D01*
X114031175Y-86389692D01*
X113898142Y-86444796D01*
X113778415Y-86524795D01*
X113676595Y-86626615D01*
X113596596Y-86746342D01*
X113541492Y-86879375D01*
X113513400Y-87020603D01*
X113513400Y-87164597D01*
X113541492Y-87305825D01*
X113596596Y-87438858D01*
X113676595Y-87558585D01*
X113778415Y-87660405D01*
X113898142Y-87740404D01*
X114031175Y-87795508D01*
X114143460Y-87817843D01*
X116392219Y-90066602D01*
X116410511Y-90088891D01*
X116499467Y-90161895D01*
X116600956Y-90216142D01*
X116700044Y-90246200D01*
X107563521Y-90246200D01*
X105280470Y-87963150D01*
X105222495Y-87915571D01*
X105134243Y-87868400D01*
X105038484Y-87839352D01*
X104938900Y-87829543D01*
X104839316Y-87839352D01*
X104743557Y-87868400D01*
X104655305Y-87915571D01*
X104577953Y-87979053D01*
X104514471Y-88056405D01*
X104467300Y-88144657D01*
X104438252Y-88240416D01*
X104428443Y-88340000D01*
X102362000Y-88340000D01*
X102362000Y-86885790D01*
X102421805Y-86825985D01*
X102501804Y-86706258D01*
X102556908Y-86573225D01*
X102585000Y-86431997D01*
X102585000Y-86288003D01*
X102556908Y-86146775D01*
X102501804Y-86013742D01*
X102421805Y-85894015D01*
X102319985Y-85792195D01*
X102200258Y-85712196D01*
X102067225Y-85657092D01*
X101925997Y-85629000D01*
X101782003Y-85629000D01*
X101640775Y-85657092D01*
X101507742Y-85712196D01*
X101388015Y-85792195D01*
X101286195Y-85894015D01*
X101206196Y-86013742D01*
X101151092Y-86146775D01*
X101123000Y-86288003D01*
X87503000Y-86288003D01*
X87503000Y-77186000D01*
X163987000Y-77186000D01*
X163987001Y-140970000D01*
G04 #@! TA.AperFunction,Conductor*
D16*
G36*
X163987001Y-140970000D02*
G01*
X87503000Y-140970000D01*
X87503000Y-132287403D01*
X92549100Y-132287403D01*
X92549100Y-132431397D01*
X92577192Y-132572625D01*
X92632296Y-132705658D01*
X92712295Y-132825385D01*
X92814115Y-132927205D01*
X92933842Y-133007204D01*
X93066875Y-133062308D01*
X93208103Y-133090400D01*
X93352097Y-133090400D01*
X93493325Y-133062308D01*
X93626358Y-133007204D01*
X93746085Y-132927205D01*
X93847905Y-132825385D01*
X93927904Y-132705658D01*
X93983008Y-132572625D01*
X94011100Y-132431397D01*
X94011100Y-132287403D01*
X93983008Y-132146175D01*
X93927904Y-132013142D01*
X93864300Y-131917952D01*
X93864300Y-119915483D01*
X97849980Y-115929803D01*
X101554800Y-115929803D01*
X101554800Y-116073797D01*
X101582892Y-116215025D01*
X101637996Y-116348058D01*
X101717995Y-116467785D01*
X101819815Y-116569605D01*
X101939542Y-116649604D01*
X102072575Y-116704708D01*
X102184860Y-116727043D01*
X103251001Y-117793184D01*
X103251000Y-135689852D01*
X103187396Y-135785042D01*
X103132292Y-135918075D01*
X103104200Y-136059303D01*
X103104200Y-136203297D01*
X103132292Y-136344525D01*
X103187396Y-136477558D01*
X103267395Y-136597285D01*
X103369215Y-136699105D01*
X103488942Y-136779104D01*
X103621975Y-136834208D01*
X103763203Y-136862300D01*
X103907197Y-136862300D01*
X104048425Y-136834208D01*
X104181458Y-136779104D01*
X104301185Y-136699105D01*
X104403005Y-136597285D01*
X104483004Y-136477558D01*
X104538108Y-136344525D01*
X104566200Y-136203297D01*
X104566200Y-136059303D01*
X104538108Y-135918075D01*
X104483004Y-135785042D01*
X104419400Y-135689852D01*
X104419400Y-132770003D01*
X133876300Y-132770003D01*
X133876300Y-132913997D01*
X133904392Y-133055225D01*
X133959496Y-133188258D01*
X134039495Y-133307985D01*
X134141315Y-133409805D01*
X134261042Y-133489804D01*
X134394075Y-133544908D01*
X134535303Y-133573000D01*
X134679297Y-133573000D01*
X134820525Y-133544908D01*
X134953558Y-133489804D01*
X135073285Y-133409805D01*
X135175105Y-133307985D01*
X135255104Y-133188258D01*
X135310208Y-133055225D01*
X135338300Y-132913997D01*
X135338300Y-132770003D01*
X135310208Y-132628775D01*
X135255104Y-132495742D01*
X135175105Y-132376015D01*
X135115300Y-132316210D01*
X135115300Y-131693520D01*
X136862421Y-129946400D01*
X143200110Y-129946400D01*
X143259915Y-130006205D01*
X143379642Y-130086204D01*
X143512675Y-130141308D01*
X143653903Y-130169400D01*
X143797897Y-130169400D01*
X143939125Y-130141308D01*
X144072158Y-130086204D01*
X144191885Y-130006205D01*
X144293705Y-129904385D01*
X144373704Y-129784658D01*
X144428808Y-129651625D01*
X144456900Y-129510397D01*
X144456900Y-129366403D01*
X144428808Y-129225175D01*
X144373704Y-129092142D01*
X144293705Y-128972415D01*
X144191885Y-128870595D01*
X144072158Y-128790596D01*
X143939125Y-128735492D01*
X143797897Y-128707400D01*
X143653903Y-128707400D01*
X143512675Y-128735492D01*
X143379642Y-128790596D01*
X143259915Y-128870595D01*
X143200110Y-128930400D01*
X136676943Y-128930400D01*
X136651999Y-128927943D01*
X136627055Y-128930400D01*
X136627053Y-128930400D01*
X136552415Y-128937751D01*
X136456657Y-128966799D01*
X136456655Y-128966800D01*
X136368404Y-129013971D01*
X136313810Y-129058776D01*
X136291052Y-129077452D01*
X136275150Y-129096829D01*
X134265735Y-131106245D01*
X134246352Y-131122152D01*
X134182871Y-131199505D01*
X134135699Y-131287758D01*
X134106651Y-131383516D01*
X134099300Y-131458153D01*
X134096843Y-131483100D01*
X134099300Y-131508045D01*
X134099301Y-132316209D01*
X134039495Y-132376015D01*
X133959496Y-132495742D01*
X133904392Y-132628775D01*
X133876300Y-132770003D01*
X104419400Y-132770003D01*
X104419400Y-122622703D01*
X110686100Y-122622703D01*
X110686100Y-122766697D01*
X110714192Y-122907925D01*
X110769296Y-123040958D01*
X110849295Y-123160685D01*
X110951115Y-123262505D01*
X111070842Y-123342504D01*
X111203875Y-123397608D01*
X111345103Y-123425700D01*
X111489097Y-123425700D01*
X111630325Y-123397608D01*
X111763358Y-123342504D01*
X111883085Y-123262505D01*
X111984905Y-123160685D01*
X112064904Y-123040958D01*
X112120008Y-122907925D01*
X112148100Y-122766697D01*
X112148100Y-122622703D01*
X112120008Y-122481475D01*
X112064904Y-122348442D01*
X112001300Y-122253252D01*
X112001300Y-120527203D01*
X113683300Y-120527203D01*
X113683300Y-120671197D01*
X113711392Y-120812425D01*
X113766496Y-120945458D01*
X113846495Y-121065185D01*
X113948315Y-121167005D01*
X114068042Y-121247004D01*
X114201075Y-121302108D01*
X114342303Y-121330200D01*
X114486297Y-121330200D01*
X114627525Y-121302108D01*
X114760558Y-121247004D01*
X114880285Y-121167005D01*
X114982105Y-121065185D01*
X115062104Y-120945458D01*
X115117208Y-120812425D01*
X115145300Y-120671197D01*
X115145300Y-120527203D01*
X115117208Y-120385975D01*
X115062104Y-120252942D01*
X114982105Y-120133215D01*
X114922300Y-120073410D01*
X114922300Y-118803020D01*
X116148721Y-117576600D01*
X116746010Y-117576600D01*
X116805815Y-117636405D01*
X116925542Y-117716404D01*
X117058575Y-117771508D01*
X117199803Y-117799600D01*
X117343797Y-117799600D01*
X117485025Y-117771508D01*
X117618058Y-117716404D01*
X117737785Y-117636405D01*
X117797590Y-117576600D01*
X129786780Y-117576600D01*
X139589850Y-127379671D01*
X139605752Y-127399048D01*
X139625129Y-127414950D01*
X139683104Y-127462529D01*
X139730276Y-127487743D01*
X139771357Y-127509701D01*
X139867115Y-127538749D01*
X139941753Y-127546100D01*
X139941755Y-127546100D01*
X139966699Y-127548557D01*
X139991643Y-127546100D01*
X156585910Y-127546100D01*
X156645715Y-127605905D01*
X156765442Y-127685904D01*
X156898475Y-127741008D01*
X157039703Y-127769100D01*
X157183697Y-127769100D01*
X157324925Y-127741008D01*
X157457958Y-127685904D01*
X157577685Y-127605905D01*
X157679505Y-127504085D01*
X157759504Y-127384358D01*
X157814608Y-127251325D01*
X157842700Y-127110097D01*
X157842700Y-126966103D01*
X157814608Y-126824875D01*
X157759504Y-126691842D01*
X157679505Y-126572115D01*
X157577685Y-126470295D01*
X157457958Y-126390296D01*
X157324925Y-126335192D01*
X157183697Y-126307100D01*
X157039703Y-126307100D01*
X156898475Y-126335192D01*
X156765442Y-126390296D01*
X156645715Y-126470295D01*
X156585910Y-126530100D01*
X140177121Y-126530100D01*
X130374055Y-116727035D01*
X130358148Y-116707652D01*
X130280795Y-116644171D01*
X130192543Y-116596999D01*
X130096785Y-116567951D01*
X130022147Y-116560600D01*
X130022144Y-116560600D01*
X129997200Y-116558143D01*
X129972256Y-116560600D01*
X117797590Y-116560600D01*
X117737785Y-116500795D01*
X117618058Y-116420796D01*
X117485025Y-116365692D01*
X117343797Y-116337600D01*
X117199803Y-116337600D01*
X117058575Y-116365692D01*
X116925542Y-116420796D01*
X116805815Y-116500795D01*
X116746010Y-116560600D01*
X115963243Y-116560600D01*
X115938299Y-116558143D01*
X115913355Y-116560600D01*
X115913353Y-116560600D01*
X115838715Y-116567951D01*
X115742957Y-116596999D01*
X115742955Y-116597000D01*
X115654704Y-116644171D01*
X115623162Y-116670057D01*
X115577352Y-116707652D01*
X115561450Y-116727029D01*
X114072735Y-118215745D01*
X114053352Y-118231652D01*
X113989871Y-118309005D01*
X113942699Y-118397258D01*
X113913651Y-118493016D01*
X113911757Y-118512250D01*
X113903843Y-118592600D01*
X113906300Y-118617544D01*
X113906301Y-120073409D01*
X113846495Y-120133215D01*
X113766496Y-120252942D01*
X113711392Y-120385975D01*
X113683300Y-120527203D01*
X112001300Y-120527203D01*
X112001300Y-103975583D01*
X115429641Y-100547243D01*
X115541925Y-100524908D01*
X115674958Y-100469804D01*
X115794685Y-100389805D01*
X115896505Y-100287985D01*
X115976504Y-100168258D01*
X116031608Y-100035225D01*
X116059700Y-99893997D01*
X116059700Y-99750003D01*
X116031608Y-99608775D01*
X115976504Y-99475742D01*
X115896505Y-99356015D01*
X115794685Y-99254195D01*
X115674958Y-99174196D01*
X115541925Y-99119092D01*
X115400697Y-99091000D01*
X115256703Y-99091000D01*
X115115475Y-99119092D01*
X114982442Y-99174196D01*
X114862715Y-99254195D01*
X114760895Y-99356015D01*
X114680896Y-99475742D01*
X114625792Y-99608775D01*
X114603457Y-99721059D01*
X111024295Y-103300222D01*
X111002011Y-103318510D01*
X110983723Y-103340794D01*
X110983720Y-103340797D01*
X110967236Y-103360884D01*
X110929007Y-103407466D01*
X110902721Y-103456643D01*
X110874759Y-103508956D01*
X110841354Y-103619077D01*
X110830075Y-103733600D01*
X110832901Y-103762294D01*
X110832900Y-122253252D01*
X110769296Y-122348442D01*
X110714192Y-122481475D01*
X110686100Y-122622703D01*
X104419400Y-122622703D01*
X104419400Y-117579881D01*
X104422225Y-117551199D01*
X104419400Y-117522517D01*
X104419400Y-117522508D01*
X104410946Y-117436677D01*
X104377541Y-117326555D01*
X104323294Y-117225066D01*
X104250290Y-117136110D01*
X104228001Y-117117818D01*
X103011043Y-115900860D01*
X102988708Y-115788575D01*
X102933604Y-115655542D01*
X102870000Y-115560352D01*
X102870000Y-105524983D01*
X102920141Y-105474843D01*
X103032425Y-105452508D01*
X103165458Y-105397404D01*
X103285185Y-105317405D01*
X103387005Y-105215585D01*
X103467004Y-105095858D01*
X103522108Y-104962825D01*
X103550200Y-104821597D01*
X103550200Y-104677603D01*
X103522108Y-104536375D01*
X103467004Y-104403342D01*
X103387005Y-104283615D01*
X103285185Y-104181795D01*
X103165458Y-104101796D01*
X103032425Y-104046692D01*
X102891197Y-104018600D01*
X102747203Y-104018600D01*
X102605975Y-104046692D01*
X102472942Y-104101796D01*
X102353215Y-104181795D01*
X102251395Y-104283615D01*
X102171396Y-104403342D01*
X102116292Y-104536375D01*
X102093957Y-104648659D01*
X101892994Y-104849623D01*
X101870711Y-104867910D01*
X101852423Y-104890194D01*
X101852420Y-104890197D01*
X101829145Y-104918558D01*
X101797707Y-104956866D01*
X101794522Y-104962825D01*
X101743459Y-105058356D01*
X101710054Y-105168477D01*
X101698775Y-105283000D01*
X101701601Y-105311694D01*
X101701600Y-115560352D01*
X101637996Y-115655542D01*
X101582892Y-115788575D01*
X101554800Y-115929803D01*
X97849980Y-115929803D01*
X100900840Y-112878943D01*
X101013125Y-112856608D01*
X101146158Y-112801504D01*
X101265885Y-112721505D01*
X101367705Y-112619685D01*
X101447704Y-112499958D01*
X101502808Y-112366925D01*
X101530900Y-112225697D01*
X101530900Y-112081703D01*
X101502808Y-111940475D01*
X101447704Y-111807442D01*
X101384100Y-111712252D01*
X101384100Y-101806492D01*
X101386926Y-101777800D01*
X101375646Y-101663277D01*
X101342241Y-101553155D01*
X101287994Y-101451666D01*
X101233280Y-101384996D01*
X101233278Y-101384994D01*
X101214990Y-101362710D01*
X101192706Y-101344422D01*
X100369443Y-100521160D01*
X100347108Y-100408875D01*
X100292004Y-100275842D01*
X100212005Y-100156115D01*
X100162889Y-100106999D01*
X107479557Y-100106999D01*
X107479557Y-100807001D01*
X107491717Y-100930462D01*
X107527729Y-101049179D01*
X107586210Y-101158589D01*
X107664912Y-101254488D01*
X107760811Y-101333190D01*
X107870221Y-101391671D01*
X107988938Y-101427683D01*
X108112399Y-101439843D01*
X109362401Y-101439843D01*
X109485862Y-101427683D01*
X109604579Y-101391671D01*
X109713989Y-101333190D01*
X109809888Y-101254488D01*
X109888590Y-101158589D01*
X109947071Y-101049179D01*
X109983083Y-100930462D01*
X109995243Y-100807001D01*
X109995243Y-100106999D01*
X109983083Y-99983538D01*
X109947071Y-99864821D01*
X109888590Y-99755411D01*
X109809888Y-99659512D01*
X109713989Y-99580810D01*
X109604579Y-99522329D01*
X109485862Y-99486317D01*
X109362401Y-99474157D01*
X108112399Y-99474157D01*
X107988938Y-99486317D01*
X107870221Y-99522329D01*
X107760811Y-99580810D01*
X107664912Y-99659512D01*
X107586210Y-99755411D01*
X107527729Y-99864821D01*
X107491717Y-99983538D01*
X107479557Y-100106999D01*
X100162889Y-100106999D01*
X100110185Y-100054295D01*
X99990458Y-99974296D01*
X99857425Y-99919192D01*
X99716197Y-99891100D01*
X99572203Y-99891100D01*
X99430975Y-99919192D01*
X99297942Y-99974296D01*
X99178215Y-100054295D01*
X99076395Y-100156115D01*
X98996396Y-100275842D01*
X98941292Y-100408875D01*
X98913200Y-100550103D01*
X98913200Y-100694097D01*
X98941292Y-100835325D01*
X98996396Y-100968358D01*
X99076395Y-101088085D01*
X99178215Y-101189905D01*
X99297942Y-101269904D01*
X99430975Y-101325008D01*
X99543260Y-101347343D01*
X100215701Y-102019785D01*
X100215700Y-111712252D01*
X100152096Y-111807442D01*
X100096992Y-111940475D01*
X100074657Y-112052760D01*
X92887295Y-119240122D01*
X92865011Y-119258410D01*
X92846723Y-119280694D01*
X92846720Y-119280697D01*
X92823445Y-119309058D01*
X92792007Y-119347366D01*
X92763011Y-119401614D01*
X92737759Y-119448856D01*
X92704354Y-119558977D01*
X92693075Y-119673500D01*
X92695901Y-119702194D01*
X92695900Y-131917952D01*
X92632296Y-132013142D01*
X92577192Y-132146175D01*
X92549100Y-132287403D01*
X87503000Y-132287403D01*
X87503000Y-98457000D01*
X107476654Y-98457000D01*
X107495595Y-98649310D01*
X107551689Y-98834229D01*
X107642782Y-99004651D01*
X107765372Y-99154028D01*
X107914749Y-99276618D01*
X108085171Y-99367711D01*
X108270090Y-99423805D01*
X108414213Y-99438000D01*
X109060587Y-99438000D01*
X109204710Y-99423805D01*
X109389629Y-99367711D01*
X109560051Y-99276618D01*
X109709428Y-99154028D01*
X109832018Y-99004651D01*
X109923111Y-98834229D01*
X109979205Y-98649310D01*
X109998146Y-98457000D01*
X109979205Y-98264690D01*
X109923111Y-98079771D01*
X109832018Y-97909349D01*
X109709428Y-97759972D01*
X109560051Y-97637382D01*
X109389629Y-97546289D01*
X109204710Y-97490195D01*
X109060587Y-97476000D01*
X108414213Y-97476000D01*
X108270090Y-97490195D01*
X108085171Y-97546289D01*
X107914749Y-97637382D01*
X107765372Y-97759972D01*
X107642782Y-97909349D01*
X107551689Y-98079771D01*
X107495595Y-98264690D01*
X107476654Y-98457000D01*
X87503000Y-98457000D01*
X87503000Y-86288003D01*
X101123000Y-86288003D01*
X101123000Y-86431997D01*
X101151092Y-86573225D01*
X101206196Y-86706258D01*
X101286195Y-86825985D01*
X101346001Y-86885791D01*
X101346000Y-93574053D01*
X101343543Y-93599000D01*
X101353351Y-93698585D01*
X101382399Y-93794343D01*
X101393713Y-93815509D01*
X101429571Y-93882595D01*
X101493052Y-93959948D01*
X101570405Y-94023429D01*
X101658657Y-94070601D01*
X101754415Y-94099649D01*
X101854000Y-94109457D01*
X101878947Y-94107000D01*
X109593780Y-94107000D01*
X114316849Y-98830070D01*
X114332752Y-98849448D01*
X114352129Y-98865350D01*
X114410104Y-98912929D01*
X114498355Y-98960100D01*
X114498357Y-98960101D01*
X114594115Y-98989149D01*
X114668753Y-98996500D01*
X114668755Y-98996500D01*
X114693699Y-98998957D01*
X114718643Y-98996500D01*
X130155080Y-98996500D01*
X138290301Y-107131722D01*
X138290300Y-111259610D01*
X138230495Y-111319415D01*
X138150496Y-111439142D01*
X138095392Y-111572175D01*
X138067300Y-111713403D01*
X138067300Y-111857397D01*
X138095392Y-111998625D01*
X138150496Y-112131658D01*
X138230495Y-112251385D01*
X138332315Y-112353205D01*
X138452042Y-112433204D01*
X138585075Y-112488308D01*
X138726303Y-112516400D01*
X138870297Y-112516400D01*
X139011525Y-112488308D01*
X139144558Y-112433204D01*
X139264285Y-112353205D01*
X139366105Y-112251385D01*
X139446104Y-112131658D01*
X139501208Y-111998625D01*
X139529300Y-111857397D01*
X139529300Y-111713403D01*
X139501208Y-111572175D01*
X139446104Y-111439142D01*
X139366105Y-111319415D01*
X139306300Y-111259610D01*
X139306300Y-106946243D01*
X139308757Y-106921299D01*
X139306300Y-106896353D01*
X139298949Y-106821715D01*
X139269901Y-106725957D01*
X139247943Y-106684876D01*
X139222729Y-106637704D01*
X139175150Y-106579729D01*
X139159248Y-106560352D01*
X139139871Y-106544450D01*
X130742355Y-98146935D01*
X130726448Y-98127552D01*
X130649095Y-98064071D01*
X130560843Y-98016899D01*
X130465085Y-97987851D01*
X130390447Y-97980500D01*
X130390444Y-97980500D01*
X130365500Y-97978043D01*
X130340556Y-97980500D01*
X114904121Y-97980500D01*
X111606324Y-94682703D01*
X112743500Y-94682703D01*
X112743500Y-94826697D01*
X112771592Y-94967925D01*
X112826696Y-95100958D01*
X112906695Y-95220685D01*
X113008515Y-95322505D01*
X113128242Y-95402504D01*
X113261275Y-95457608D01*
X113373560Y-95479943D01*
X114488918Y-96595301D01*
X114507210Y-96617590D01*
X114596166Y-96690594D01*
X114697655Y-96744841D01*
X114807777Y-96778246D01*
X114893608Y-96786700D01*
X114893617Y-96786700D01*
X114922299Y-96789525D01*
X114950981Y-96786700D01*
X123633557Y-96786700D01*
X123633557Y-97052500D01*
X123640913Y-97127189D01*
X123662699Y-97199008D01*
X123698078Y-97265196D01*
X123745689Y-97323211D01*
X123803704Y-97370822D01*
X123869892Y-97406201D01*
X123941711Y-97427987D01*
X124016400Y-97435343D01*
X125716400Y-97435343D01*
X125791089Y-97427987D01*
X125862908Y-97406201D01*
X125929096Y-97370822D01*
X125987111Y-97323211D01*
X126034722Y-97265196D01*
X126070101Y-97199008D01*
X126091887Y-97127189D01*
X126099243Y-97052500D01*
X126099243Y-96895867D01*
X126211222Y-97083855D01*
X126406131Y-97300088D01*
X126639480Y-97474141D01*
X126902301Y-97599325D01*
X127049510Y-97643976D01*
X127279400Y-97522655D01*
X127279400Y-96329500D01*
X127259400Y-96329500D01*
X127259400Y-96075500D01*
X127279400Y-96075500D01*
X127279400Y-94882345D01*
X127533400Y-94882345D01*
X127533400Y-96075500D01*
X127553400Y-96075500D01*
X127553400Y-96329500D01*
X127533400Y-96329500D01*
X127533400Y-97522655D01*
X127763290Y-97643976D01*
X127910499Y-97599325D01*
X128173320Y-97474141D01*
X128406669Y-97300088D01*
X128601578Y-97083855D01*
X128750557Y-96833752D01*
X128808172Y-96671332D01*
X128855502Y-96785597D01*
X128990220Y-96987217D01*
X129161683Y-97158680D01*
X129363303Y-97293398D01*
X129587331Y-97386193D01*
X129825157Y-97433500D01*
X130067643Y-97433500D01*
X130305469Y-97386193D01*
X130380567Y-97355087D01*
X149150129Y-116124650D01*
X151502450Y-118476971D01*
X151518352Y-118496348D01*
X151537729Y-118512250D01*
X151595704Y-118559829D01*
X151673450Y-118601385D01*
X151683957Y-118607001D01*
X151779715Y-118636049D01*
X151854353Y-118643400D01*
X151854355Y-118643400D01*
X151879299Y-118645857D01*
X151904243Y-118643400D01*
X156027110Y-118643400D01*
X156086915Y-118703205D01*
X156206642Y-118783204D01*
X156339675Y-118838308D01*
X156480903Y-118866400D01*
X156624897Y-118866400D01*
X156766125Y-118838308D01*
X156899158Y-118783204D01*
X157018885Y-118703205D01*
X157120705Y-118601385D01*
X157200704Y-118481658D01*
X157255808Y-118348625D01*
X157283900Y-118207397D01*
X157283900Y-118063403D01*
X157255808Y-117922175D01*
X157200704Y-117789142D01*
X157120705Y-117669415D01*
X157018885Y-117567595D01*
X156924671Y-117504643D01*
X157031585Y-117433205D01*
X157133405Y-117331385D01*
X157213404Y-117211658D01*
X157268508Y-117078625D01*
X157296600Y-116937397D01*
X157296600Y-116793403D01*
X157268508Y-116652175D01*
X157213404Y-116519142D01*
X157133405Y-116399415D01*
X157031585Y-116297595D01*
X156911858Y-116217596D01*
X156778825Y-116162492D01*
X156637597Y-116134400D01*
X156493603Y-116134400D01*
X156352375Y-116162492D01*
X156219342Y-116217596D01*
X156099615Y-116297595D01*
X156039810Y-116357400D01*
X153717703Y-116357400D01*
X134766152Y-97405850D01*
X134905157Y-97433500D01*
X135147643Y-97433500D01*
X135385469Y-97386193D01*
X135460567Y-97355087D01*
X148949745Y-110844265D01*
X148965652Y-110863648D01*
X149043005Y-110927129D01*
X149131257Y-110974301D01*
X149227015Y-111003349D01*
X149301653Y-111010700D01*
X149301656Y-111010700D01*
X149326600Y-111013157D01*
X149351544Y-111010700D01*
X154782510Y-111010700D01*
X154842315Y-111070505D01*
X154962042Y-111150504D01*
X155095075Y-111205608D01*
X155236303Y-111233700D01*
X155380297Y-111233700D01*
X155521525Y-111205608D01*
X155654558Y-111150504D01*
X155774285Y-111070505D01*
X155876105Y-110968685D01*
X155956104Y-110848958D01*
X156011208Y-110715925D01*
X156039300Y-110574697D01*
X156039300Y-110430703D01*
X156011208Y-110289475D01*
X155956104Y-110156442D01*
X155876105Y-110036715D01*
X155774285Y-109934895D01*
X155654558Y-109854896D01*
X155521525Y-109799792D01*
X155380297Y-109771700D01*
X155236303Y-109771700D01*
X155095075Y-109799792D01*
X154962042Y-109854896D01*
X154842315Y-109934895D01*
X154782510Y-109994700D01*
X149537020Y-109994700D01*
X136178987Y-96636667D01*
X136210093Y-96561569D01*
X136257400Y-96323743D01*
X136257400Y-96081257D01*
X136335400Y-96081257D01*
X136335400Y-96323743D01*
X136382707Y-96561569D01*
X136475502Y-96785597D01*
X136610220Y-96987217D01*
X136781683Y-97158680D01*
X136983303Y-97293398D01*
X137207331Y-97386193D01*
X137445157Y-97433500D01*
X137687643Y-97433500D01*
X137925469Y-97386193D01*
X138149497Y-97293398D01*
X138351117Y-97158680D01*
X138522580Y-96987217D01*
X138657298Y-96785597D01*
X138750093Y-96561569D01*
X138797400Y-96323743D01*
X138797400Y-96081257D01*
X138875400Y-96081257D01*
X138875400Y-96323743D01*
X138922707Y-96561569D01*
X139015502Y-96785597D01*
X139150220Y-96987217D01*
X139321683Y-97158680D01*
X139523303Y-97293398D01*
X139747331Y-97386193D01*
X139985157Y-97433500D01*
X140227643Y-97433500D01*
X140465469Y-97386193D01*
X140689497Y-97293398D01*
X140891117Y-97158680D01*
X141062580Y-96987217D01*
X141197298Y-96785597D01*
X141290093Y-96561569D01*
X141337400Y-96323743D01*
X141337400Y-96081257D01*
X141290093Y-95843431D01*
X141197298Y-95619403D01*
X141062580Y-95417783D01*
X140891117Y-95246320D01*
X140689497Y-95111602D01*
X140465469Y-95018807D01*
X140227643Y-94971500D01*
X139985157Y-94971500D01*
X139747331Y-95018807D01*
X139523303Y-95111602D01*
X139321683Y-95246320D01*
X139150220Y-95417783D01*
X139015502Y-95619403D01*
X138922707Y-95843431D01*
X138875400Y-96081257D01*
X138797400Y-96081257D01*
X138750093Y-95843431D01*
X138657298Y-95619403D01*
X138522580Y-95417783D01*
X138351117Y-95246320D01*
X138149497Y-95111602D01*
X137925469Y-95018807D01*
X137687643Y-94971500D01*
X137445157Y-94971500D01*
X137207331Y-95018807D01*
X136983303Y-95111602D01*
X136781683Y-95246320D01*
X136610220Y-95417783D01*
X136475502Y-95619403D01*
X136382707Y-95843431D01*
X136335400Y-96081257D01*
X136257400Y-96081257D01*
X136210093Y-95843431D01*
X136117298Y-95619403D01*
X135982580Y-95417783D01*
X135811117Y-95246320D01*
X135609497Y-95111602D01*
X135385469Y-95018807D01*
X135147643Y-94971500D01*
X134905157Y-94971500D01*
X134667331Y-95018807D01*
X134443303Y-95111602D01*
X134241683Y-95246320D01*
X134070220Y-95417783D01*
X133935502Y-95619403D01*
X133842707Y-95843431D01*
X133795400Y-96081257D01*
X133795400Y-96323743D01*
X133823050Y-96462748D01*
X133711866Y-96351564D01*
X133717400Y-96323743D01*
X133717400Y-96081257D01*
X133670093Y-95843431D01*
X133577298Y-95619403D01*
X133442580Y-95417783D01*
X133271117Y-95246320D01*
X133069497Y-95111602D01*
X132845469Y-95018807D01*
X132607643Y-94971500D01*
X132365157Y-94971500D01*
X132127331Y-95018807D01*
X131903303Y-95111602D01*
X131701683Y-95246320D01*
X131530220Y-95417783D01*
X131395502Y-95619403D01*
X131302707Y-95843431D01*
X131255400Y-96081257D01*
X131255400Y-96323743D01*
X131302707Y-96561569D01*
X131395502Y-96785597D01*
X131530220Y-96987217D01*
X131701683Y-97158680D01*
X131903303Y-97293398D01*
X132127331Y-97386193D01*
X132365157Y-97433500D01*
X132607643Y-97433500D01*
X132845469Y-97386193D01*
X133069497Y-97293398D01*
X133157835Y-97234373D01*
X153130432Y-117206971D01*
X153146334Y-117226348D01*
X153165711Y-117242250D01*
X153223686Y-117289829D01*
X153292394Y-117326554D01*
X153311939Y-117337001D01*
X153407697Y-117366049D01*
X153482335Y-117373400D01*
X153482337Y-117373400D01*
X153507281Y-117375857D01*
X153532225Y-117373400D01*
X156039810Y-117373400D01*
X156099615Y-117433205D01*
X156193829Y-117496157D01*
X156086915Y-117567595D01*
X156027110Y-117627400D01*
X152089721Y-117627400D01*
X149868550Y-115406229D01*
X131098987Y-96636667D01*
X131130093Y-96561569D01*
X131177400Y-96323743D01*
X131177400Y-96081257D01*
X131130093Y-95843431D01*
X131037298Y-95619403D01*
X130902580Y-95417783D01*
X130731117Y-95246320D01*
X130529497Y-95111602D01*
X130305469Y-95018807D01*
X130067643Y-94971500D01*
X129825157Y-94971500D01*
X129587331Y-95018807D01*
X129363303Y-95111602D01*
X129161683Y-95246320D01*
X128990220Y-95417783D01*
X128855502Y-95619403D01*
X128808172Y-95733668D01*
X128750557Y-95571248D01*
X128601578Y-95321145D01*
X128406669Y-95104912D01*
X128173320Y-94930859D01*
X127910499Y-94805675D01*
X127763290Y-94761024D01*
X127533400Y-94882345D01*
X127279400Y-94882345D01*
X127049510Y-94761024D01*
X126902301Y-94805675D01*
X126639480Y-94930859D01*
X126406131Y-95104912D01*
X126211222Y-95321145D01*
X126099243Y-95509133D01*
X126099243Y-95352500D01*
X126091887Y-95277811D01*
X126070101Y-95205992D01*
X126034722Y-95139804D01*
X125987111Y-95081789D01*
X125929096Y-95034178D01*
X125862908Y-94998799D01*
X125791089Y-94977013D01*
X125716400Y-94969657D01*
X124016400Y-94969657D01*
X123941711Y-94977013D01*
X123869892Y-94998799D01*
X123803704Y-95034178D01*
X123745689Y-95081789D01*
X123698078Y-95139804D01*
X123662699Y-95205992D01*
X123640913Y-95277811D01*
X123633557Y-95352500D01*
X123633557Y-95618300D01*
X115164283Y-95618300D01*
X114199743Y-94653760D01*
X114177408Y-94541475D01*
X114122304Y-94408442D01*
X114042305Y-94288715D01*
X113940485Y-94186895D01*
X113820758Y-94106896D01*
X113687725Y-94051792D01*
X113546497Y-94023700D01*
X113402503Y-94023700D01*
X113261275Y-94051792D01*
X113128242Y-94106896D01*
X113008515Y-94186895D01*
X112906695Y-94288715D01*
X112826696Y-94408442D01*
X112771592Y-94541475D01*
X112743500Y-94682703D01*
X111606324Y-94682703D01*
X110181055Y-93257435D01*
X110165148Y-93238052D01*
X110087795Y-93174571D01*
X109999543Y-93127399D01*
X109903785Y-93098351D01*
X109829147Y-93091000D01*
X109829144Y-93091000D01*
X109804200Y-93088543D01*
X109779256Y-93091000D01*
X102362000Y-93091000D01*
X102362000Y-92053803D01*
X103802700Y-92053803D01*
X103802700Y-92197797D01*
X103830792Y-92339025D01*
X103885896Y-92472058D01*
X103965895Y-92591785D01*
X104067715Y-92693605D01*
X104187442Y-92773604D01*
X104320475Y-92828708D01*
X104461703Y-92856800D01*
X104605697Y-92856800D01*
X104746925Y-92828708D01*
X104879958Y-92773604D01*
X104999685Y-92693605D01*
X105059490Y-92633800D01*
X142285710Y-92633800D01*
X142345515Y-92693605D01*
X142465242Y-92773604D01*
X142598275Y-92828708D01*
X142739503Y-92856800D01*
X142883497Y-92856800D01*
X143024725Y-92828708D01*
X143157758Y-92773604D01*
X143277485Y-92693605D01*
X143379305Y-92591785D01*
X143459304Y-92472058D01*
X143514408Y-92339025D01*
X143542500Y-92197797D01*
X143542500Y-92053803D01*
X143514408Y-91912575D01*
X143459304Y-91779542D01*
X143379305Y-91659815D01*
X143277485Y-91557995D01*
X143157758Y-91477996D01*
X143024725Y-91422892D01*
X142883497Y-91394800D01*
X142739503Y-91394800D01*
X142598275Y-91422892D01*
X142465242Y-91477996D01*
X142345515Y-91557995D01*
X142285710Y-91617800D01*
X105059490Y-91617800D01*
X104999685Y-91557995D01*
X104879958Y-91477996D01*
X104746925Y-91422892D01*
X104605697Y-91394800D01*
X104461703Y-91394800D01*
X104320475Y-91422892D01*
X104187442Y-91477996D01*
X104067715Y-91557995D01*
X103965895Y-91659815D01*
X103885896Y-91779542D01*
X103830792Y-91912575D01*
X103802700Y-92053803D01*
X102362000Y-92053803D01*
X102362000Y-88340000D01*
X104428443Y-88340000D01*
X104438252Y-88439584D01*
X104467300Y-88535343D01*
X104514471Y-88623595D01*
X104562050Y-88681570D01*
X106976249Y-91095770D01*
X106992152Y-91115148D01*
X107011529Y-91131050D01*
X107069504Y-91178629D01*
X107157755Y-91225800D01*
X107157757Y-91225801D01*
X107253515Y-91254849D01*
X107328153Y-91262200D01*
X107328155Y-91262200D01*
X107353099Y-91264657D01*
X107378043Y-91262200D01*
X143860780Y-91262200D01*
X156070301Y-103471722D01*
X156070300Y-113799610D01*
X156010495Y-113859415D01*
X155930496Y-113979142D01*
X155875392Y-114112175D01*
X155847300Y-114253403D01*
X155847300Y-114397397D01*
X155875392Y-114538625D01*
X155930496Y-114671658D01*
X156010495Y-114791385D01*
X156112315Y-114893205D01*
X156232042Y-114973204D01*
X156365075Y-115028308D01*
X156506303Y-115056400D01*
X156650297Y-115056400D01*
X156791525Y-115028308D01*
X156924558Y-114973204D01*
X157044285Y-114893205D01*
X157146105Y-114791385D01*
X157226104Y-114671658D01*
X157281208Y-114538625D01*
X157309300Y-114397397D01*
X157309300Y-114253403D01*
X157281208Y-114112175D01*
X157226104Y-113979142D01*
X157146105Y-113859415D01*
X157086300Y-113799610D01*
X157086300Y-103286243D01*
X157088757Y-103261299D01*
X157086300Y-103236353D01*
X157078949Y-103161715D01*
X157049901Y-103065957D01*
X157049900Y-103065955D01*
X157002729Y-102977704D01*
X156955150Y-102919729D01*
X156939248Y-102900352D01*
X156919871Y-102884450D01*
X151183320Y-97147899D01*
X155117257Y-97147899D01*
X155117257Y-97847901D01*
X155129417Y-97971362D01*
X155165429Y-98090079D01*
X155223910Y-98199489D01*
X155302612Y-98295388D01*
X155398511Y-98374090D01*
X155507921Y-98432571D01*
X155626638Y-98468583D01*
X155750099Y-98480743D01*
X157000101Y-98480743D01*
X157123562Y-98468583D01*
X157242279Y-98432571D01*
X157351689Y-98374090D01*
X157447588Y-98295388D01*
X157526290Y-98199489D01*
X157584771Y-98090079D01*
X157620783Y-97971362D01*
X157632943Y-97847901D01*
X157632943Y-97147899D01*
X157620783Y-97024438D01*
X157584771Y-96905721D01*
X157526290Y-96796311D01*
X157447588Y-96700412D01*
X157351689Y-96621710D01*
X157242279Y-96563229D01*
X157123562Y-96527217D01*
X157000101Y-96515057D01*
X155750099Y-96515057D01*
X155626638Y-96527217D01*
X155507921Y-96563229D01*
X155398511Y-96621710D01*
X155302612Y-96700412D01*
X155223910Y-96796311D01*
X155165429Y-96905721D01*
X155129417Y-97024438D01*
X155117257Y-97147899D01*
X151183320Y-97147899D01*
X144448055Y-90412635D01*
X144432148Y-90393252D01*
X144354795Y-90329771D01*
X144266543Y-90282599D01*
X144185455Y-90258001D01*
X144638718Y-90258001D01*
X150271422Y-95890706D01*
X150289710Y-95912990D01*
X150311994Y-95931278D01*
X150311996Y-95931280D01*
X150378666Y-95985994D01*
X150480155Y-96040241D01*
X150590277Y-96073646D01*
X150667550Y-96081257D01*
X150704800Y-96084926D01*
X150733492Y-96082100D01*
X155310477Y-96082100D01*
X155403072Y-96194928D01*
X155552449Y-96317518D01*
X155722871Y-96408611D01*
X155907790Y-96464705D01*
X156051913Y-96478900D01*
X156698287Y-96478900D01*
X156842410Y-96464705D01*
X157027329Y-96408611D01*
X157197751Y-96317518D01*
X157347128Y-96194928D01*
X157469718Y-96045551D01*
X157560811Y-95875129D01*
X157616905Y-95690210D01*
X157635846Y-95497900D01*
X157616905Y-95305590D01*
X157560811Y-95120671D01*
X157469718Y-94950249D01*
X157347128Y-94800872D01*
X157197751Y-94678282D01*
X157124086Y-94638907D01*
X157240046Y-94590290D01*
X157441825Y-94454207D01*
X157613178Y-94281374D01*
X157747521Y-94078433D01*
X157839691Y-93853182D01*
X157843562Y-93815509D01*
X157718831Y-93624900D01*
X156502100Y-93624900D01*
X156502100Y-93644900D01*
X156248100Y-93644900D01*
X156248100Y-93624900D01*
X155031369Y-93624900D01*
X154906638Y-93815509D01*
X154910509Y-93853182D01*
X155002679Y-94078433D01*
X155137022Y-94281374D01*
X155308375Y-94454207D01*
X155510154Y-94590290D01*
X155626114Y-94638907D01*
X155552449Y-94678282D01*
X155403072Y-94800872D01*
X155310477Y-94913700D01*
X150946784Y-94913700D01*
X149213375Y-93180291D01*
X154906638Y-93180291D01*
X155031369Y-93370900D01*
X156248100Y-93370900D01*
X156248100Y-92262900D01*
X156502100Y-92262900D01*
X156502100Y-93370900D01*
X157718831Y-93370900D01*
X157843562Y-93180291D01*
X157839691Y-93142618D01*
X157747521Y-92917367D01*
X157613178Y-92714426D01*
X157441825Y-92541593D01*
X157240046Y-92405510D01*
X157015596Y-92311407D01*
X156777100Y-92262900D01*
X156502100Y-92262900D01*
X156248100Y-92262900D01*
X155973100Y-92262900D01*
X155734604Y-92311407D01*
X155510154Y-92405510D01*
X155308375Y-92541593D01*
X155137022Y-92714426D01*
X155002679Y-92917367D01*
X154910509Y-93142618D01*
X154906638Y-93180291D01*
X149213375Y-93180291D01*
X145314083Y-89281000D01*
X145295791Y-89258711D01*
X145290351Y-89254246D01*
X145393280Y-89151317D01*
X145527998Y-88949697D01*
X145620793Y-88725669D01*
X145668100Y-88487843D01*
X145668100Y-88245357D01*
X145746100Y-88245357D01*
X145746100Y-88487843D01*
X145793407Y-88725669D01*
X145886202Y-88949697D01*
X146020920Y-89151317D01*
X146192383Y-89322780D01*
X146394003Y-89457498D01*
X146618031Y-89550293D01*
X146855857Y-89597600D01*
X147098343Y-89597600D01*
X147336169Y-89550293D01*
X147560197Y-89457498D01*
X147761817Y-89322780D01*
X147933280Y-89151317D01*
X148067998Y-88949697D01*
X148160793Y-88725669D01*
X148208100Y-88487843D01*
X148208100Y-88245357D01*
X148286100Y-88245357D01*
X148286100Y-88487843D01*
X148333407Y-88725669D01*
X148426202Y-88949697D01*
X148560920Y-89151317D01*
X148732383Y-89322780D01*
X148934003Y-89457498D01*
X149158031Y-89550293D01*
X149395857Y-89597600D01*
X149638343Y-89597600D01*
X149876169Y-89550293D01*
X150100197Y-89457498D01*
X150301817Y-89322780D01*
X150473280Y-89151317D01*
X150607998Y-88949697D01*
X150655328Y-88835432D01*
X150712943Y-88997852D01*
X150861922Y-89247955D01*
X151056831Y-89464188D01*
X151290180Y-89638241D01*
X151553001Y-89763425D01*
X151700210Y-89808076D01*
X151930100Y-89686755D01*
X151930100Y-88493600D01*
X151910100Y-88493600D01*
X151910100Y-88239600D01*
X151930100Y-88239600D01*
X151930100Y-87046445D01*
X152184100Y-87046445D01*
X152184100Y-88239600D01*
X152204100Y-88239600D01*
X152204100Y-88493600D01*
X152184100Y-88493600D01*
X152184100Y-89686755D01*
X152413990Y-89808076D01*
X152561199Y-89763425D01*
X152824020Y-89638241D01*
X153057369Y-89464188D01*
X153252278Y-89247955D01*
X153401257Y-88997852D01*
X153458872Y-88835432D01*
X153506202Y-88949697D01*
X153640920Y-89151317D01*
X153812383Y-89322780D01*
X154014003Y-89457498D01*
X154238031Y-89550293D01*
X154475857Y-89597600D01*
X154718343Y-89597600D01*
X154956169Y-89550293D01*
X155180197Y-89457498D01*
X155381817Y-89322780D01*
X155553280Y-89151317D01*
X155687998Y-88949697D01*
X155780793Y-88725669D01*
X155828100Y-88487843D01*
X155828100Y-88245357D01*
X155780793Y-88007531D01*
X155687998Y-87783503D01*
X155553280Y-87581883D01*
X155487997Y-87516600D01*
X155904257Y-87516600D01*
X155904257Y-89216600D01*
X155911613Y-89291289D01*
X155933399Y-89363108D01*
X155968778Y-89429296D01*
X156016389Y-89487311D01*
X156074404Y-89534922D01*
X156140592Y-89570301D01*
X156212411Y-89592087D01*
X156287100Y-89599443D01*
X157987100Y-89599443D01*
X158061789Y-89592087D01*
X158133608Y-89570301D01*
X158199796Y-89534922D01*
X158257811Y-89487311D01*
X158305422Y-89429296D01*
X158340801Y-89363108D01*
X158362587Y-89291289D01*
X158369943Y-89216600D01*
X158369943Y-87516600D01*
X158362587Y-87441911D01*
X158340801Y-87370092D01*
X158305422Y-87303904D01*
X158257811Y-87245889D01*
X158199796Y-87198278D01*
X158133608Y-87162899D01*
X158061789Y-87141113D01*
X157987100Y-87133757D01*
X156287100Y-87133757D01*
X156212411Y-87141113D01*
X156140592Y-87162899D01*
X156074404Y-87198278D01*
X156016389Y-87245889D01*
X155968778Y-87303904D01*
X155933399Y-87370092D01*
X155911613Y-87441911D01*
X155904257Y-87516600D01*
X155487997Y-87516600D01*
X155381817Y-87410420D01*
X155180197Y-87275702D01*
X154956169Y-87182907D01*
X154718343Y-87135600D01*
X154475857Y-87135600D01*
X154238031Y-87182907D01*
X154014003Y-87275702D01*
X153812383Y-87410420D01*
X153640920Y-87581883D01*
X153506202Y-87783503D01*
X153458872Y-87897768D01*
X153401257Y-87735348D01*
X153252278Y-87485245D01*
X153057369Y-87269012D01*
X152824020Y-87094959D01*
X152561199Y-86969775D01*
X152413990Y-86925124D01*
X152184100Y-87046445D01*
X151930100Y-87046445D01*
X151700210Y-86925124D01*
X151553001Y-86969775D01*
X151290180Y-87094959D01*
X151056831Y-87269012D01*
X150861922Y-87485245D01*
X150712943Y-87735348D01*
X150655328Y-87897768D01*
X150607998Y-87783503D01*
X150473280Y-87581883D01*
X150301817Y-87410420D01*
X150100197Y-87275702D01*
X149876169Y-87182907D01*
X149638343Y-87135600D01*
X149395857Y-87135600D01*
X149158031Y-87182907D01*
X148934003Y-87275702D01*
X148732383Y-87410420D01*
X148560920Y-87581883D01*
X148426202Y-87783503D01*
X148333407Y-88007531D01*
X148286100Y-88245357D01*
X148208100Y-88245357D01*
X148160793Y-88007531D01*
X148067998Y-87783503D01*
X147933280Y-87581883D01*
X147761817Y-87410420D01*
X147560197Y-87275702D01*
X147336169Y-87182907D01*
X147098343Y-87135600D01*
X146855857Y-87135600D01*
X146618031Y-87182907D01*
X146394003Y-87275702D01*
X146192383Y-87410420D01*
X146020920Y-87581883D01*
X145886202Y-87783503D01*
X145793407Y-88007531D01*
X145746100Y-88245357D01*
X145668100Y-88245357D01*
X145620793Y-88007531D01*
X145527998Y-87783503D01*
X145393280Y-87581883D01*
X145221817Y-87410420D01*
X145020197Y-87275702D01*
X144796169Y-87182907D01*
X144558343Y-87135600D01*
X144315857Y-87135600D01*
X144078031Y-87182907D01*
X143854003Y-87275702D01*
X143652383Y-87410420D01*
X143480920Y-87581883D01*
X143346202Y-87783503D01*
X143253407Y-88007531D01*
X143206100Y-88245357D01*
X143206100Y-88487843D01*
X143253407Y-88725669D01*
X143346202Y-88949697D01*
X143439683Y-89089601D01*
X142894517Y-89089601D01*
X142987998Y-88949697D01*
X143080793Y-88725669D01*
X143128100Y-88487843D01*
X143128100Y-88245357D01*
X143080793Y-88007531D01*
X142987998Y-87783503D01*
X142853280Y-87581883D01*
X142681817Y-87410420D01*
X142480197Y-87275702D01*
X142256169Y-87182907D01*
X142018343Y-87135600D01*
X141775857Y-87135600D01*
X141538031Y-87182907D01*
X141314003Y-87275702D01*
X141112383Y-87410420D01*
X140940920Y-87581883D01*
X140806202Y-87783503D01*
X140713407Y-88007531D01*
X140666100Y-88245357D01*
X140666100Y-88487843D01*
X140713407Y-88725669D01*
X140806202Y-88949697D01*
X140899683Y-89089601D01*
X140354517Y-89089601D01*
X140447998Y-88949697D01*
X140540793Y-88725669D01*
X140588100Y-88487843D01*
X140588100Y-88245357D01*
X140540793Y-88007531D01*
X140447998Y-87783503D01*
X140313280Y-87581883D01*
X140141817Y-87410420D01*
X139940197Y-87275702D01*
X139716169Y-87182907D01*
X139478343Y-87135600D01*
X139235857Y-87135600D01*
X138998031Y-87182907D01*
X138774003Y-87275702D01*
X138572383Y-87410420D01*
X138400920Y-87581883D01*
X138266202Y-87783503D01*
X138173407Y-88007531D01*
X138126100Y-88245357D01*
X138126100Y-88487843D01*
X138173407Y-88725669D01*
X138266202Y-88949697D01*
X138359683Y-89089601D01*
X117067584Y-89089601D01*
X114969643Y-86991660D01*
X114947308Y-86879375D01*
X114892204Y-86746342D01*
X114812205Y-86626615D01*
X114710385Y-86524795D01*
X114590658Y-86444796D01*
X114457625Y-86389692D01*
X114316397Y-86361600D01*
X114172403Y-86361600D01*
X114031175Y-86389692D01*
X113898142Y-86444796D01*
X113778415Y-86524795D01*
X113676595Y-86626615D01*
X113596596Y-86746342D01*
X113541492Y-86879375D01*
X113513400Y-87020603D01*
X113513400Y-87164597D01*
X113541492Y-87305825D01*
X113596596Y-87438858D01*
X113676595Y-87558585D01*
X113778415Y-87660405D01*
X113898142Y-87740404D01*
X114031175Y-87795508D01*
X114143460Y-87817843D01*
X116392219Y-90066602D01*
X116410511Y-90088891D01*
X116499467Y-90161895D01*
X116600956Y-90216142D01*
X116700044Y-90246200D01*
X107563521Y-90246200D01*
X105280470Y-87963150D01*
X105222495Y-87915571D01*
X105134243Y-87868400D01*
X105038484Y-87839352D01*
X104938900Y-87829543D01*
X104839316Y-87839352D01*
X104743557Y-87868400D01*
X104655305Y-87915571D01*
X104577953Y-87979053D01*
X104514471Y-88056405D01*
X104467300Y-88144657D01*
X104438252Y-88240416D01*
X104428443Y-88340000D01*
X102362000Y-88340000D01*
X102362000Y-86885790D01*
X102421805Y-86825985D01*
X102501804Y-86706258D01*
X102556908Y-86573225D01*
X102585000Y-86431997D01*
X102585000Y-86288003D01*
X102556908Y-86146775D01*
X102501804Y-86013742D01*
X102421805Y-85894015D01*
X102319985Y-85792195D01*
X102200258Y-85712196D01*
X102067225Y-85657092D01*
X101925997Y-85629000D01*
X101782003Y-85629000D01*
X101640775Y-85657092D01*
X101507742Y-85712196D01*
X101388015Y-85792195D01*
X101286195Y-85894015D01*
X101206196Y-86013742D01*
X101151092Y-86146775D01*
X101123000Y-86288003D01*
X87503000Y-86288003D01*
X87503000Y-77186000D01*
X163987000Y-77186000D01*
X163987001Y-140970000D01*
G37*
G04 #@! TD.AperFunction*
M02*
