G04 #@! TF.GenerationSoftware,KiCad,Pcbnew,(5.1.9-0-10_14)*
G04 #@! TF.CreationDate,2021-02-25T23:37:31+01:00*
G04 #@! TF.ProjectId,QUino-Dogbox,5155696e-6f2d-4446-9f67-626f782e6b69,C*
G04 #@! TF.SameCoordinates,Original*
G04 #@! TF.FileFunction,Legend,Top*
G04 #@! TF.FilePolarity,Positive*
%FSLAX46Y46*%
G04 Gerber Fmt 4.6, Leading zero omitted, Abs format (unit mm)*
G04 Created by KiCad (PCBNEW (5.1.9-0-10_14)) date 2021-02-25 23:37:31*
%MOMM*%
%LPD*%
G01*
G04 APERTURE LIST*
%ADD10C,0.325000*%
%ADD11C,0.100000*%
%ADD12C,0.203200*%
%ADD13C,0.127000*%
%ADD14C,0.120000*%
%ADD15C,0.240000*%
%ADD16C,0.254000*%
%ADD17C,0.015000*%
%ADD18C,0.150000*%
G04 APERTURE END LIST*
D10*
X97375200Y-125348000D02*
G75*
G03*
X97375200Y-125348000I-162500J0D01*
G01*
D11*
X99968000Y-104825800D02*
G75*
G03*
X99968000Y-104825800I-400000J0D01*
G01*
D12*
X100016000Y-105978800D02*
X100016000Y-112943800D01*
X100651000Y-105343800D02*
X100016000Y-105978800D01*
X105191000Y-105343800D02*
X100651000Y-105343800D01*
D13*
X105191000Y-105318800D02*
X105191000Y-105343800D01*
D12*
X105216000Y-112943800D02*
X105216000Y-105343800D01*
X100016000Y-112943800D02*
X105216000Y-112943800D01*
D14*
X136231900Y-133271279D02*
X136231900Y-133606521D01*
X135471900Y-133271279D02*
X135471900Y-133606521D01*
X88580400Y-122380500D02*
X92480400Y-122380500D01*
X88580400Y-124380500D02*
X92480400Y-124380500D01*
X88580400Y-122380500D02*
X88580400Y-124380500D01*
X108021100Y-131988600D02*
X108021100Y-125978600D01*
X114841100Y-129738600D02*
X114841100Y-125978600D01*
X108021100Y-125978600D02*
X109281100Y-125978600D01*
X114841100Y-125978600D02*
X113581100Y-125978600D01*
X100607300Y-99672900D02*
X100607300Y-101672900D01*
X100607300Y-101672900D02*
X104507300Y-101672900D01*
X100607300Y-99672900D02*
X104507300Y-99672900D01*
X105082900Y-99463100D02*
X105082900Y-97463100D01*
X105082900Y-97463100D02*
X101182900Y-97463100D01*
X105082900Y-99463100D02*
X101182900Y-99463100D01*
X132013200Y-84376700D02*
X130013200Y-84376700D01*
X130013200Y-84376700D02*
X130013200Y-88276700D01*
X132013200Y-84376700D02*
X132013200Y-88276700D01*
D11*
X105498900Y-124239400D02*
X97878900Y-124239400D01*
X97878900Y-124239400D02*
X97878900Y-118889400D01*
X97878900Y-118889400D02*
X105498900Y-118889400D01*
X105498900Y-118889400D02*
X105498900Y-124239400D01*
D13*
X159355300Y-130260400D02*
X159355300Y-137010400D01*
X159355300Y-137010400D02*
X141355300Y-137010400D01*
X141355300Y-137010400D02*
X141355300Y-130260400D01*
X159355300Y-105610400D02*
X141355300Y-105610400D01*
X141355300Y-105610400D02*
X141355300Y-105810400D01*
X159355300Y-105760400D02*
X159355300Y-105610400D01*
D15*
X160575300Y-129710400D02*
G75*
G03*
X160575300Y-129710400I-120000J0D01*
G01*
D14*
X117349000Y-109611179D02*
X117349000Y-109946421D01*
X118109000Y-109611179D02*
X118109000Y-109946421D01*
X94172500Y-106776567D02*
X94172500Y-106484033D01*
X93152500Y-106776567D02*
X93152500Y-106484033D01*
X100327479Y-116343700D02*
X100662721Y-116343700D01*
X100327479Y-115583700D02*
X100662721Y-115583700D01*
X132906500Y-87030579D02*
X132906500Y-87365821D01*
X133666500Y-87030579D02*
X133666500Y-87365821D01*
X128017000Y-87005179D02*
X128017000Y-87340421D01*
X128777000Y-87005179D02*
X128777000Y-87340421D01*
X121262121Y-92177600D02*
X120926879Y-92177600D01*
X121262121Y-92937600D02*
X120926879Y-92937600D01*
X136106900Y-130045479D02*
X136106900Y-130380721D01*
X136866900Y-130045479D02*
X136866900Y-130380721D01*
X135608079Y-128561100D02*
X135943321Y-128561100D01*
X135608079Y-127801100D02*
X135943321Y-127801100D01*
X98993979Y-130072400D02*
X99329221Y-130072400D01*
X98993979Y-129312400D02*
X99329221Y-129312400D01*
X91819079Y-130809000D02*
X92154321Y-130809000D01*
X91819079Y-130049000D02*
X92154321Y-130049000D01*
X132030200Y-125866579D02*
X132030200Y-126201821D01*
X132790200Y-125866579D02*
X132790200Y-126201821D01*
X130697621Y-126251700D02*
X130362379Y-126251700D01*
X130697621Y-127011700D02*
X130362379Y-127011700D01*
X125976500Y-88305100D02*
X125976500Y-89765100D01*
X122816500Y-88305100D02*
X122816500Y-91465100D01*
X122816500Y-88305100D02*
X123746500Y-88305100D01*
X125976500Y-88305100D02*
X125046500Y-88305100D01*
X118902500Y-89352600D02*
X118902500Y-87892600D01*
X122062500Y-89352600D02*
X122062500Y-86192600D01*
X122062500Y-89352600D02*
X121132500Y-89352600D01*
X118902500Y-89352600D02*
X119832500Y-89352600D01*
X88269400Y-126393558D02*
X88269400Y-128064042D01*
X90089400Y-126393558D02*
X90089400Y-128064042D01*
X94020100Y-132798700D02*
X95480100Y-132798700D01*
X94020100Y-135958700D02*
X97180100Y-135958700D01*
X94020100Y-135958700D02*
X94020100Y-135028700D01*
X94020100Y-132798700D02*
X94020100Y-133728700D01*
X100212400Y-132192200D02*
X100212400Y-136092200D01*
X98212400Y-132192200D02*
X98212400Y-136092200D01*
X100212400Y-132192200D02*
X98212400Y-132192200D01*
X100709900Y-102327200D02*
X104609900Y-102327200D01*
X100709900Y-104327200D02*
X104609900Y-104327200D01*
X100709900Y-102327200D02*
X100709900Y-104327200D01*
X101369400Y-130131433D02*
X101369400Y-130423967D01*
X102389400Y-130131433D02*
X102389400Y-130423967D01*
X112316800Y-134830433D02*
X112316800Y-135122967D01*
X113336800Y-134830433D02*
X113336800Y-135122967D01*
X101382100Y-133483133D02*
X101382100Y-133775667D01*
X102402100Y-133483133D02*
X102402100Y-133775667D01*
X135259400Y-130265435D02*
X135259400Y-130033765D01*
X134539400Y-130265435D02*
X134539400Y-130033765D01*
X91886500Y-128072267D02*
X91886500Y-127779733D01*
X90866500Y-128072267D02*
X90866500Y-127779733D01*
X97635000Y-101231700D02*
G75*
G03*
X97635000Y-101231700I-1750000J0D01*
G01*
X108925300Y-134835900D02*
G75*
G03*
X108925300Y-134835900I-1750000J0D01*
G01*
X124418900Y-84818500D02*
X124418900Y-84218500D01*
X126518900Y-85518500D02*
X125118900Y-85518500D01*
X127218900Y-84218500D02*
X127218900Y-84818500D01*
X125118900Y-83518500D02*
X126518900Y-83518500D01*
X126518900Y-83518500D02*
G75*
G02*
X127218900Y-84218500I0J-700000D01*
G01*
X127218900Y-84818500D02*
G75*
G02*
X126518900Y-85518500I-700000J0D01*
G01*
X125118900Y-85518500D02*
G75*
G02*
X124418900Y-84818500I0J700000D01*
G01*
X124418900Y-84218500D02*
G75*
G02*
X125118900Y-83518500I700000J0D01*
G01*
X86481000Y-84662000D02*
X86381000Y-84162000D01*
X86781000Y-85962000D02*
X86481000Y-84662000D01*
X86981000Y-87462000D02*
X86781000Y-85962000D01*
X87081000Y-88762000D02*
X86981000Y-87462000D01*
X87081000Y-90562000D02*
X87081000Y-88762000D01*
X86981000Y-91862000D02*
X87081000Y-90562000D01*
X86881000Y-92662000D02*
X86981000Y-91862000D01*
X86581000Y-94362000D02*
X86881000Y-92662000D01*
X86381000Y-95162000D02*
X86581000Y-94362000D01*
X85781000Y-94662000D02*
X85781000Y-84662000D01*
X87281000Y-95162000D02*
X86281000Y-95162000D01*
X87281000Y-84162000D02*
X86281000Y-84162000D01*
X87281000Y-96572000D02*
X87281000Y-82752000D01*
X101201000Y-82752000D02*
X101201000Y-96572000D01*
X98501000Y-82752000D02*
X101201000Y-82752000D01*
X87281000Y-82752000D02*
X87681000Y-82752000D01*
X90201000Y-82752000D02*
X95981000Y-82752000D01*
X98501000Y-96572000D02*
X101201000Y-96572000D01*
X90201000Y-96572000D02*
X95981000Y-96572000D01*
X87281000Y-96572000D02*
X87681000Y-96572000D01*
X86281000Y-84162000D02*
G75*
G03*
X85781000Y-84662000I0J-500000D01*
G01*
X85781000Y-94662000D02*
G75*
G03*
X86281000Y-95162000I500000J0D01*
G01*
X103631000Y-91697121D02*
X103631000Y-91361879D01*
X102871000Y-91697121D02*
X102871000Y-91361879D01*
X103631000Y-88769879D02*
X103631000Y-89105121D01*
X102871000Y-88769879D02*
X102871000Y-89105121D01*
X95743379Y-107110800D02*
X96078621Y-107110800D01*
X95743379Y-106350800D02*
X96078621Y-106350800D01*
X105764600Y-116164379D02*
X105764600Y-116499621D01*
X105004600Y-116164379D02*
X105004600Y-116499621D01*
X109854000Y-110272179D02*
X109854000Y-110607421D01*
X109094000Y-110272179D02*
X109094000Y-110607421D01*
X161011600Y-127840721D02*
X161011600Y-127505479D01*
X161771600Y-127840721D02*
X161771600Y-127505479D01*
X109395879Y-109015800D02*
X109731121Y-109015800D01*
X109395879Y-108255800D02*
X109731121Y-108255800D01*
X96635835Y-111789800D02*
X96404165Y-111789800D01*
X96635835Y-111069800D02*
X96404165Y-111069800D01*
X98319000Y-113659465D02*
X98319000Y-113891135D01*
X99039000Y-113659465D02*
X99039000Y-113891135D01*
X102884235Y-113279600D02*
X102652565Y-113279600D01*
X102884235Y-113999600D02*
X102652565Y-113999600D01*
X90422000Y-119019367D02*
X90422000Y-118726833D01*
X91442000Y-119019367D02*
X91442000Y-118726833D01*
X109610400Y-113066000D02*
X109610400Y-116966000D01*
X107610400Y-113066000D02*
X107610400Y-116966000D01*
X109610400Y-113066000D02*
X107610400Y-113066000D01*
X110023400Y-119788500D02*
X112023400Y-119788500D01*
X112023400Y-119788500D02*
X112023400Y-115888500D01*
X110023400Y-119788500D02*
X110023400Y-115888500D01*
X133796500Y-110942000D02*
X133796500Y-111872000D01*
X133796500Y-114102000D02*
X133796500Y-113172000D01*
X133796500Y-114102000D02*
X136956500Y-114102000D01*
X133796500Y-110942000D02*
X135256500Y-110942000D01*
X114742500Y-114241700D02*
X113282500Y-114241700D01*
X114742500Y-111081700D02*
X111582500Y-111081700D01*
X114742500Y-111081700D02*
X114742500Y-112011700D01*
X114742500Y-114241700D02*
X114742500Y-113311700D01*
X114806000Y-110723800D02*
X114806000Y-109793800D01*
X114806000Y-107563800D02*
X114806000Y-108493800D01*
X114806000Y-107563800D02*
X111646000Y-107563800D01*
X114806000Y-110723800D02*
X113346000Y-110723800D01*
X86546000Y-118533800D02*
X86926000Y-119033800D01*
X86926000Y-119033800D02*
X87246000Y-119033800D01*
X86546000Y-118533800D02*
X86546000Y-117533800D01*
X86546000Y-117533800D02*
X86926000Y-117033800D01*
X86926000Y-117033800D02*
X87246000Y-117033800D01*
X90046000Y-119683800D02*
X90046000Y-116383800D01*
X89746000Y-119683800D02*
X90046000Y-119683800D01*
X90046000Y-116383800D02*
X89746000Y-116383800D01*
X87546000Y-119683800D02*
X87246000Y-119683800D01*
X87246000Y-119683800D02*
X87246000Y-116383800D01*
X87246000Y-116383800D02*
X87546000Y-116383800D01*
X95489500Y-108785576D02*
X95489500Y-109295024D01*
X96534500Y-108785576D02*
X96534500Y-109295024D01*
X87316000Y-105333800D02*
X87576000Y-105333800D01*
X89856000Y-105333800D02*
X91626000Y-105333800D01*
X91626000Y-105333800D02*
X91626000Y-105713800D01*
X91626000Y-112953800D02*
X89856000Y-112953800D01*
X87576000Y-112953800D02*
X87316000Y-112953800D01*
X91626000Y-112953800D02*
X91626000Y-112573800D01*
X128178500Y-110388400D02*
G75*
G03*
X128178500Y-110388400I-1750000J0D01*
G01*
X163979800Y-111429800D02*
G75*
G03*
X163979800Y-111429800I-1750000J0D01*
G01*
X92993000Y-112740800D02*
X92993000Y-118140800D01*
X97493000Y-112740800D02*
X92993000Y-112740800D01*
D16*
X95837223Y-128938261D02*
X94567223Y-128938261D01*
X95716271Y-127607785D02*
X95776747Y-127668261D01*
X95837223Y-127849690D01*
X95837223Y-127970642D01*
X95776747Y-128152071D01*
X95655795Y-128273023D01*
X95534842Y-128333500D01*
X95292938Y-128393976D01*
X95111509Y-128393976D01*
X94869604Y-128333500D01*
X94748652Y-128273023D01*
X94627700Y-128152071D01*
X94567223Y-127970642D01*
X94567223Y-127849690D01*
X94627700Y-127668261D01*
X94688176Y-127607785D01*
X95837223Y-126398261D02*
X95837223Y-127123976D01*
X95837223Y-126761119D02*
X94567223Y-126761119D01*
X94748652Y-126882071D01*
X94869604Y-127003023D01*
X94930080Y-127123976D01*
D17*
X102310269Y-105030537D02*
X102828804Y-105030537D01*
X102889808Y-105000035D01*
X102920310Y-104969533D01*
X102950812Y-104908529D01*
X102950812Y-104786521D01*
X102920310Y-104725517D01*
X102889808Y-104695015D01*
X102828804Y-104664513D01*
X102310269Y-104664513D01*
X102310269Y-104420496D02*
X102310269Y-104023970D01*
X102554285Y-104237484D01*
X102554285Y-104145978D01*
X102584787Y-104084974D01*
X102615289Y-104054472D01*
X102676294Y-104023970D01*
X102828804Y-104023970D01*
X102889808Y-104054472D01*
X102920310Y-104084974D01*
X102950812Y-104145978D01*
X102950812Y-104328990D01*
X102920310Y-104389994D01*
X102889808Y-104420496D01*
D18*
X135107442Y-135746080D02*
X134774109Y-135269890D01*
X134536014Y-135746080D02*
X134536014Y-134746080D01*
X134916966Y-134746080D01*
X135012204Y-134793700D01*
X135059823Y-134841319D01*
X135107442Y-134936557D01*
X135107442Y-135079414D01*
X135059823Y-135174652D01*
X135012204Y-135222271D01*
X134916966Y-135269890D01*
X134536014Y-135269890D01*
X136059823Y-135746080D02*
X135488395Y-135746080D01*
X135774109Y-135746080D02*
X135774109Y-134746080D01*
X135678871Y-134888938D01*
X135583633Y-134984176D01*
X135488395Y-135031795D01*
X136916966Y-134746080D02*
X136726490Y-134746080D01*
X136631252Y-134793700D01*
X136583633Y-134841319D01*
X136488395Y-134984176D01*
X136440776Y-135174652D01*
X136440776Y-135555604D01*
X136488395Y-135650842D01*
X136536014Y-135698461D01*
X136631252Y-135746080D01*
X136821728Y-135746080D01*
X136916966Y-135698461D01*
X136964585Y-135650842D01*
X137012204Y-135555604D01*
X137012204Y-135317509D01*
X136964585Y-135222271D01*
X136916966Y-135174652D01*
X136821728Y-135127033D01*
X136631252Y-135127033D01*
X136536014Y-135174652D01*
X136488395Y-135222271D01*
X136440776Y-135317509D01*
X90092304Y-123807480D02*
X90092304Y-122807480D01*
X90330400Y-122807480D01*
X90473257Y-122855100D01*
X90568495Y-122950338D01*
X90616114Y-123045576D01*
X90663733Y-123236052D01*
X90663733Y-123378909D01*
X90616114Y-123569385D01*
X90568495Y-123664623D01*
X90473257Y-123759861D01*
X90330400Y-123807480D01*
X90092304Y-123807480D01*
X91520876Y-122807480D02*
X91330400Y-122807480D01*
X91235161Y-122855100D01*
X91187542Y-122902719D01*
X91092304Y-123045576D01*
X91044685Y-123236052D01*
X91044685Y-123617004D01*
X91092304Y-123712242D01*
X91139923Y-123759861D01*
X91235161Y-123807480D01*
X91425638Y-123807480D01*
X91520876Y-123759861D01*
X91568495Y-123712242D01*
X91616114Y-123617004D01*
X91616114Y-123378909D01*
X91568495Y-123283671D01*
X91520876Y-123236052D01*
X91425638Y-123188433D01*
X91235161Y-123188433D01*
X91139923Y-123236052D01*
X91092304Y-123283671D01*
X91044685Y-123378909D01*
X110808895Y-127201280D02*
X110808895Y-128010804D01*
X110856514Y-128106042D01*
X110904133Y-128153661D01*
X110999371Y-128201280D01*
X111189847Y-128201280D01*
X111285085Y-128153661D01*
X111332704Y-128106042D01*
X111380323Y-128010804D01*
X111380323Y-127201280D01*
X112285085Y-127534614D02*
X112285085Y-128201280D01*
X112046990Y-127153661D02*
X111808895Y-127867947D01*
X112427942Y-127867947D01*
X102044604Y-101128080D02*
X102044604Y-100128080D01*
X102282700Y-100128080D01*
X102425557Y-100175700D01*
X102520795Y-100270938D01*
X102568414Y-100366176D01*
X102616033Y-100556652D01*
X102616033Y-100699509D01*
X102568414Y-100889985D01*
X102520795Y-100985223D01*
X102425557Y-101080461D01*
X102282700Y-101128080D01*
X102044604Y-101128080D01*
X103092223Y-101128080D02*
X103282700Y-101128080D01*
X103377938Y-101080461D01*
X103425557Y-101032842D01*
X103520795Y-100889985D01*
X103568414Y-100699509D01*
X103568414Y-100318557D01*
X103520795Y-100223319D01*
X103473176Y-100175700D01*
X103377938Y-100128080D01*
X103187461Y-100128080D01*
X103092223Y-100175700D01*
X103044604Y-100223319D01*
X102996985Y-100318557D01*
X102996985Y-100556652D01*
X103044604Y-100651890D01*
X103092223Y-100699509D01*
X103187461Y-100747128D01*
X103377938Y-100747128D01*
X103473176Y-100699509D01*
X103520795Y-100651890D01*
X103568414Y-100556652D01*
X102055704Y-98839280D02*
X102055704Y-97839280D01*
X102293800Y-97839280D01*
X102436657Y-97886900D01*
X102531895Y-97982138D01*
X102579514Y-98077376D01*
X102627133Y-98267852D01*
X102627133Y-98410709D01*
X102579514Y-98601185D01*
X102531895Y-98696423D01*
X102436657Y-98791661D01*
X102293800Y-98839280D01*
X102055704Y-98839280D01*
X103198561Y-98267852D02*
X103103323Y-98220233D01*
X103055704Y-98172614D01*
X103008085Y-98077376D01*
X103008085Y-98029757D01*
X103055704Y-97934519D01*
X103103323Y-97886900D01*
X103198561Y-97839280D01*
X103389038Y-97839280D01*
X103484276Y-97886900D01*
X103531895Y-97934519D01*
X103579514Y-98029757D01*
X103579514Y-98077376D01*
X103531895Y-98172614D01*
X103484276Y-98220233D01*
X103389038Y-98267852D01*
X103198561Y-98267852D01*
X103103323Y-98315471D01*
X103055704Y-98363090D01*
X103008085Y-98458328D01*
X103008085Y-98648804D01*
X103055704Y-98744042D01*
X103103323Y-98791661D01*
X103198561Y-98839280D01*
X103389038Y-98839280D01*
X103484276Y-98791661D01*
X103531895Y-98744042D01*
X103579514Y-98648804D01*
X103579514Y-98458328D01*
X103531895Y-98363090D01*
X103484276Y-98315471D01*
X103389038Y-98267852D01*
X131338580Y-87326695D02*
X130338580Y-87326695D01*
X130338580Y-87088600D01*
X130386200Y-86945742D01*
X130481438Y-86850504D01*
X130576676Y-86802885D01*
X130767152Y-86755266D01*
X130910009Y-86755266D01*
X131100485Y-86802885D01*
X131195723Y-86850504D01*
X131290961Y-86945742D01*
X131338580Y-87088600D01*
X131338580Y-87326695D01*
X130338580Y-86421933D02*
X130338580Y-85755266D01*
X131338580Y-86183838D01*
D16*
X99995566Y-122078447D02*
X100176995Y-122138923D01*
X100479376Y-122138923D01*
X100600328Y-122078447D01*
X100660804Y-122017971D01*
X100721280Y-121897019D01*
X100721280Y-121776066D01*
X100660804Y-121655114D01*
X100600328Y-121594638D01*
X100479376Y-121534161D01*
X100237471Y-121473685D01*
X100116519Y-121413209D01*
X100056042Y-121352733D01*
X99995566Y-121231780D01*
X99995566Y-121110828D01*
X100056042Y-120989876D01*
X100116519Y-120929400D01*
X100237471Y-120868923D01*
X100539852Y-120868923D01*
X100721280Y-120929400D01*
X101144614Y-120868923D02*
X101446995Y-122138923D01*
X101688900Y-121231780D01*
X101930804Y-122138923D01*
X102233185Y-120868923D01*
X103382233Y-122138923D02*
X102656519Y-122138923D01*
X103019376Y-122138923D02*
X103019376Y-120868923D01*
X102898423Y-121050352D01*
X102777471Y-121171304D01*
X102656519Y-121231780D01*
D17*
X154828371Y-137584176D02*
X154828371Y-138395510D01*
X154876097Y-138490961D01*
X154923822Y-138538686D01*
X155019273Y-138586412D01*
X155210175Y-138586412D01*
X155305626Y-138538686D01*
X155353352Y-138490961D01*
X155401077Y-138395510D01*
X155401077Y-137584176D01*
X156403313Y-138586412D02*
X155830607Y-138586412D01*
X156116960Y-138586412D02*
X156116960Y-137584176D01*
X156021509Y-137727353D01*
X155926058Y-137822804D01*
X155830607Y-137870529D01*
D18*
X119400580Y-109215157D02*
X118924390Y-109548490D01*
X119400580Y-109786585D02*
X118400580Y-109786585D01*
X118400580Y-109405633D01*
X118448200Y-109310395D01*
X118495819Y-109262776D01*
X118591057Y-109215157D01*
X118733914Y-109215157D01*
X118829152Y-109262776D01*
X118876771Y-109310395D01*
X118924390Y-109405633D01*
X118924390Y-109786585D01*
X119400580Y-108262776D02*
X119400580Y-108834204D01*
X119400580Y-108548490D02*
X118400580Y-108548490D01*
X118543438Y-108643728D01*
X118638676Y-108738966D01*
X118686295Y-108834204D01*
X118400580Y-107358014D02*
X118400580Y-107834204D01*
X118876771Y-107881823D01*
X118829152Y-107834204D01*
X118781533Y-107738966D01*
X118781533Y-107500871D01*
X118829152Y-107405633D01*
X118876771Y-107358014D01*
X118972009Y-107310395D01*
X119210104Y-107310395D01*
X119305342Y-107358014D01*
X119352961Y-107405633D01*
X119400580Y-107500871D01*
X119400580Y-107738966D01*
X119352961Y-107834204D01*
X119305342Y-107881823D01*
X93368833Y-104828442D02*
X93321214Y-104876061D01*
X93178357Y-104923680D01*
X93083119Y-104923680D01*
X92940261Y-104876061D01*
X92845023Y-104780823D01*
X92797404Y-104685585D01*
X92749785Y-104495109D01*
X92749785Y-104352252D01*
X92797404Y-104161776D01*
X92845023Y-104066538D01*
X92940261Y-103971300D01*
X93083119Y-103923680D01*
X93178357Y-103923680D01*
X93321214Y-103971300D01*
X93368833Y-104018919D01*
X94225976Y-104257014D02*
X94225976Y-104923680D01*
X93987880Y-103876061D02*
X93749785Y-104590347D01*
X94368833Y-104590347D01*
X99979242Y-115349280D02*
X99645909Y-114873090D01*
X99407814Y-115349280D02*
X99407814Y-114349280D01*
X99788766Y-114349280D01*
X99884004Y-114396900D01*
X99931623Y-114444519D01*
X99979242Y-114539757D01*
X99979242Y-114682614D01*
X99931623Y-114777852D01*
X99884004Y-114825471D01*
X99788766Y-114873090D01*
X99407814Y-114873090D01*
X100360195Y-114444519D02*
X100407814Y-114396900D01*
X100503052Y-114349280D01*
X100741147Y-114349280D01*
X100836385Y-114396900D01*
X100884004Y-114444519D01*
X100931623Y-114539757D01*
X100931623Y-114634995D01*
X100884004Y-114777852D01*
X100312576Y-115349280D01*
X100931623Y-115349280D01*
X101884004Y-115349280D02*
X101312576Y-115349280D01*
X101598290Y-115349280D02*
X101598290Y-114349280D01*
X101503052Y-114492138D01*
X101407814Y-114587376D01*
X101312576Y-114634995D01*
X134688342Y-87650580D02*
X134355009Y-87174390D01*
X134116914Y-87650580D02*
X134116914Y-86650580D01*
X134497866Y-86650580D01*
X134593104Y-86698200D01*
X134640723Y-86745819D01*
X134688342Y-86841057D01*
X134688342Y-86983914D01*
X134640723Y-87079152D01*
X134593104Y-87126771D01*
X134497866Y-87174390D01*
X134116914Y-87174390D01*
X135069295Y-86745819D02*
X135116914Y-86698200D01*
X135212152Y-86650580D01*
X135450247Y-86650580D01*
X135545485Y-86698200D01*
X135593104Y-86745819D01*
X135640723Y-86841057D01*
X135640723Y-86936295D01*
X135593104Y-87079152D01*
X135021676Y-87650580D01*
X135640723Y-87650580D01*
X136259771Y-86650580D02*
X136355009Y-86650580D01*
X136450247Y-86698200D01*
X136497866Y-86745819D01*
X136545485Y-86841057D01*
X136593104Y-87031533D01*
X136593104Y-87269628D01*
X136545485Y-87460104D01*
X136497866Y-87555342D01*
X136450247Y-87602961D01*
X136355009Y-87650580D01*
X136259771Y-87650580D01*
X136164533Y-87602961D01*
X136116914Y-87555342D01*
X136069295Y-87460104D01*
X136021676Y-87269628D01*
X136021676Y-87031533D01*
X136069295Y-86841057D01*
X136116914Y-86745819D01*
X136164533Y-86698200D01*
X136259771Y-86650580D01*
X129722642Y-87942680D02*
X129389309Y-87466490D01*
X129151214Y-87942680D02*
X129151214Y-86942680D01*
X129532166Y-86942680D01*
X129627404Y-86990300D01*
X129675023Y-87037919D01*
X129722642Y-87133157D01*
X129722642Y-87276014D01*
X129675023Y-87371252D01*
X129627404Y-87418871D01*
X129532166Y-87466490D01*
X129151214Y-87466490D01*
X130675023Y-87942680D02*
X130103595Y-87942680D01*
X130389309Y-87942680D02*
X130389309Y-86942680D01*
X130294071Y-87085538D01*
X130198833Y-87180776D01*
X130103595Y-87228395D01*
X131246452Y-87371252D02*
X131151214Y-87323633D01*
X131103595Y-87276014D01*
X131055976Y-87180776D01*
X131055976Y-87133157D01*
X131103595Y-87037919D01*
X131151214Y-86990300D01*
X131246452Y-86942680D01*
X131436928Y-86942680D01*
X131532166Y-86990300D01*
X131579785Y-87037919D01*
X131627404Y-87133157D01*
X131627404Y-87180776D01*
X131579785Y-87276014D01*
X131532166Y-87323633D01*
X131436928Y-87371252D01*
X131246452Y-87371252D01*
X131151214Y-87418871D01*
X131103595Y-87466490D01*
X131055976Y-87561728D01*
X131055976Y-87752204D01*
X131103595Y-87847442D01*
X131151214Y-87895061D01*
X131246452Y-87942680D01*
X131436928Y-87942680D01*
X131532166Y-87895061D01*
X131579785Y-87847442D01*
X131627404Y-87752204D01*
X131627404Y-87561728D01*
X131579785Y-87466490D01*
X131532166Y-87418871D01*
X131436928Y-87371252D01*
X120413542Y-94686380D02*
X120080209Y-94210190D01*
X119842114Y-94686380D02*
X119842114Y-93686380D01*
X120223066Y-93686380D01*
X120318304Y-93734000D01*
X120365923Y-93781619D01*
X120413542Y-93876857D01*
X120413542Y-94019714D01*
X120365923Y-94114952D01*
X120318304Y-94162571D01*
X120223066Y-94210190D01*
X119842114Y-94210190D01*
X121365923Y-94686380D02*
X120794495Y-94686380D01*
X121080209Y-94686380D02*
X121080209Y-93686380D01*
X120984971Y-93829238D01*
X120889733Y-93924476D01*
X120794495Y-93972095D01*
X121699257Y-93686380D02*
X122365923Y-93686380D01*
X121937352Y-94686380D01*
X138158480Y-130335257D02*
X137682290Y-130668590D01*
X138158480Y-130906685D02*
X137158480Y-130906685D01*
X137158480Y-130525733D01*
X137206100Y-130430495D01*
X137253719Y-130382876D01*
X137348957Y-130335257D01*
X137491814Y-130335257D01*
X137587052Y-130382876D01*
X137634671Y-130430495D01*
X137682290Y-130525733D01*
X137682290Y-130906685D01*
X138158480Y-129382876D02*
X138158480Y-129954304D01*
X138158480Y-129668590D02*
X137158480Y-129668590D01*
X137301338Y-129763828D01*
X137396576Y-129859066D01*
X137444195Y-129954304D01*
X138158480Y-128430495D02*
X138158480Y-129001923D01*
X138158480Y-128716209D02*
X137158480Y-128716209D01*
X137301338Y-128811447D01*
X137396576Y-128906685D01*
X137444195Y-129001923D01*
X135628142Y-127528580D02*
X135294809Y-127052390D01*
X135056714Y-127528580D02*
X135056714Y-126528580D01*
X135437666Y-126528580D01*
X135532904Y-126576200D01*
X135580523Y-126623819D01*
X135628142Y-126719057D01*
X135628142Y-126861914D01*
X135580523Y-126957152D01*
X135532904Y-127004771D01*
X135437666Y-127052390D01*
X135056714Y-127052390D01*
X136580523Y-127528580D02*
X136009095Y-127528580D01*
X136294809Y-127528580D02*
X136294809Y-126528580D01*
X136199571Y-126671438D01*
X136104333Y-126766676D01*
X136009095Y-126814295D01*
X137199571Y-126528580D02*
X137294809Y-126528580D01*
X137390047Y-126576200D01*
X137437666Y-126623819D01*
X137485285Y-126719057D01*
X137532904Y-126909533D01*
X137532904Y-127147628D01*
X137485285Y-127338104D01*
X137437666Y-127433342D01*
X137390047Y-127480961D01*
X137294809Y-127528580D01*
X137199571Y-127528580D01*
X137104333Y-127480961D01*
X137056714Y-127433342D01*
X137009095Y-127338104D01*
X136961476Y-127147628D01*
X136961476Y-126909533D01*
X137009095Y-126719057D01*
X137056714Y-126623819D01*
X137104333Y-126576200D01*
X137199571Y-126528580D01*
X99769633Y-129052580D02*
X99436300Y-128576390D01*
X99198204Y-129052580D02*
X99198204Y-128052580D01*
X99579157Y-128052580D01*
X99674395Y-128100200D01*
X99722014Y-128147819D01*
X99769633Y-128243057D01*
X99769633Y-128385914D01*
X99722014Y-128481152D01*
X99674395Y-128528771D01*
X99579157Y-128576390D01*
X99198204Y-128576390D01*
X100102966Y-128052580D02*
X100769633Y-128052580D01*
X100341061Y-129052580D01*
X89647733Y-130868680D02*
X89314400Y-130392490D01*
X89076304Y-130868680D02*
X89076304Y-129868680D01*
X89457257Y-129868680D01*
X89552495Y-129916300D01*
X89600114Y-129963919D01*
X89647733Y-130059157D01*
X89647733Y-130202014D01*
X89600114Y-130297252D01*
X89552495Y-130344871D01*
X89457257Y-130392490D01*
X89076304Y-130392490D01*
X90504876Y-129868680D02*
X90314400Y-129868680D01*
X90219161Y-129916300D01*
X90171542Y-129963919D01*
X90076304Y-130106776D01*
X90028685Y-130297252D01*
X90028685Y-130678204D01*
X90076304Y-130773442D01*
X90123923Y-130821061D01*
X90219161Y-130868680D01*
X90409638Y-130868680D01*
X90504876Y-130821061D01*
X90552495Y-130773442D01*
X90600114Y-130678204D01*
X90600114Y-130440109D01*
X90552495Y-130344871D01*
X90504876Y-130297252D01*
X90409638Y-130249633D01*
X90219161Y-130249633D01*
X90123923Y-130297252D01*
X90076304Y-130344871D01*
X90028685Y-130440109D01*
X134132580Y-125795066D02*
X133656390Y-126128400D01*
X134132580Y-126366495D02*
X133132580Y-126366495D01*
X133132580Y-125985542D01*
X133180200Y-125890304D01*
X133227819Y-125842685D01*
X133323057Y-125795066D01*
X133465914Y-125795066D01*
X133561152Y-125842685D01*
X133608771Y-125890304D01*
X133656390Y-125985542D01*
X133656390Y-126366495D01*
X133132580Y-124890304D02*
X133132580Y-125366495D01*
X133608771Y-125414114D01*
X133561152Y-125366495D01*
X133513533Y-125271257D01*
X133513533Y-125033161D01*
X133561152Y-124937923D01*
X133608771Y-124890304D01*
X133704009Y-124842685D01*
X133942104Y-124842685D01*
X134037342Y-124890304D01*
X134084961Y-124937923D01*
X134132580Y-125033161D01*
X134132580Y-125271257D01*
X134084961Y-125366495D01*
X134037342Y-125414114D01*
X130159533Y-125966480D02*
X129826200Y-125490290D01*
X129588104Y-125966480D02*
X129588104Y-124966480D01*
X129969057Y-124966480D01*
X130064295Y-125014100D01*
X130111914Y-125061719D01*
X130159533Y-125156957D01*
X130159533Y-125299814D01*
X130111914Y-125395052D01*
X130064295Y-125442671D01*
X129969057Y-125490290D01*
X129588104Y-125490290D01*
X131016676Y-125299814D02*
X131016676Y-125966480D01*
X130778580Y-124918861D02*
X130540485Y-125633147D01*
X131159533Y-125633147D01*
X126277619Y-87191838D02*
X126230000Y-87287076D01*
X126134761Y-87382314D01*
X125991904Y-87525171D01*
X125944285Y-87620409D01*
X125944285Y-87715647D01*
X126182380Y-87668028D02*
X126134761Y-87763266D01*
X126039523Y-87858504D01*
X125849047Y-87906123D01*
X125515714Y-87906123D01*
X125325238Y-87858504D01*
X125230000Y-87763266D01*
X125182380Y-87668028D01*
X125182380Y-87477552D01*
X125230000Y-87382314D01*
X125325238Y-87287076D01*
X125515714Y-87239457D01*
X125849047Y-87239457D01*
X126039523Y-87287076D01*
X126134761Y-87382314D01*
X126182380Y-87477552D01*
X126182380Y-87668028D01*
X125182380Y-86334695D02*
X125182380Y-86810885D01*
X125658571Y-86858504D01*
X125610952Y-86810885D01*
X125563333Y-86715647D01*
X125563333Y-86477552D01*
X125610952Y-86382314D01*
X125658571Y-86334695D01*
X125753809Y-86287076D01*
X125991904Y-86287076D01*
X126087142Y-86334695D01*
X126134761Y-86382314D01*
X126182380Y-86477552D01*
X126182380Y-86715647D01*
X126134761Y-86810885D01*
X126087142Y-86858504D01*
X119673619Y-90620838D02*
X119626000Y-90716076D01*
X119530761Y-90811314D01*
X119387904Y-90954171D01*
X119340285Y-91049409D01*
X119340285Y-91144647D01*
X119578380Y-91097028D02*
X119530761Y-91192266D01*
X119435523Y-91287504D01*
X119245047Y-91335123D01*
X118911714Y-91335123D01*
X118721238Y-91287504D01*
X118626000Y-91192266D01*
X118578380Y-91097028D01*
X118578380Y-90906552D01*
X118626000Y-90811314D01*
X118721238Y-90716076D01*
X118911714Y-90668457D01*
X119245047Y-90668457D01*
X119435523Y-90716076D01*
X119530761Y-90811314D01*
X119578380Y-90906552D01*
X119578380Y-91097028D01*
X118911714Y-89811314D02*
X119578380Y-89811314D01*
X118530761Y-90049409D02*
X119245047Y-90287504D01*
X119245047Y-89668457D01*
X89025433Y-127668280D02*
X88549242Y-127668280D01*
X88549242Y-126668280D01*
X89882576Y-127668280D02*
X89311147Y-127668280D01*
X89596861Y-127668280D02*
X89596861Y-126668280D01*
X89501623Y-126811138D01*
X89406385Y-126906376D01*
X89311147Y-126953995D01*
X94502433Y-131919671D02*
X94169100Y-131919671D01*
X94169100Y-132443480D02*
X94169100Y-131443480D01*
X94645290Y-131443480D01*
X95026242Y-131919671D02*
X95359576Y-131919671D01*
X95502433Y-132443480D02*
X95026242Y-132443480D01*
X95026242Y-131443480D01*
X95502433Y-131443480D01*
X95788147Y-131443480D02*
X96359576Y-131443480D01*
X96073861Y-132443480D02*
X96073861Y-131443480D01*
X97216719Y-132443480D02*
X96645290Y-132443480D01*
X96931004Y-132443480D02*
X96931004Y-131443480D01*
X96835766Y-131586338D01*
X96740528Y-131681576D01*
X96645290Y-131729195D01*
X98321904Y-131770380D02*
X98321904Y-130770380D01*
X98560000Y-130770380D01*
X98702857Y-130818000D01*
X98798095Y-130913238D01*
X98845714Y-131008476D01*
X98893333Y-131198952D01*
X98893333Y-131341809D01*
X98845714Y-131532285D01*
X98798095Y-131627523D01*
X98702857Y-131722761D01*
X98560000Y-131770380D01*
X98321904Y-131770380D01*
X99750476Y-131103714D02*
X99750476Y-131770380D01*
X99512380Y-130722761D02*
X99274285Y-131437047D01*
X99893333Y-131437047D01*
X102246204Y-103601780D02*
X102246204Y-102601780D01*
X102484300Y-102601780D01*
X102627157Y-102649400D01*
X102722395Y-102744638D01*
X102770014Y-102839876D01*
X102817633Y-103030352D01*
X102817633Y-103173209D01*
X102770014Y-103363685D01*
X102722395Y-103458923D01*
X102627157Y-103554161D01*
X102484300Y-103601780D01*
X102246204Y-103601780D01*
X103770014Y-103601780D02*
X103198585Y-103601780D01*
X103484300Y-103601780D02*
X103484300Y-102601780D01*
X103389061Y-102744638D01*
X103293823Y-102839876D01*
X103198585Y-102887495D01*
X103544642Y-131021057D02*
X103592261Y-131068676D01*
X103639880Y-131211533D01*
X103639880Y-131306771D01*
X103592261Y-131449628D01*
X103497023Y-131544866D01*
X103401785Y-131592485D01*
X103211309Y-131640104D01*
X103068452Y-131640104D01*
X102877976Y-131592485D01*
X102782738Y-131544866D01*
X102687500Y-131449628D01*
X102639880Y-131306771D01*
X102639880Y-131211533D01*
X102687500Y-131068676D01*
X102735119Y-131021057D01*
X103639880Y-130068676D02*
X103639880Y-130640104D01*
X103639880Y-130354390D02*
X102639880Y-130354390D01*
X102782738Y-130449628D01*
X102877976Y-130544866D01*
X102925595Y-130640104D01*
X102639880Y-129449628D02*
X102639880Y-129354390D01*
X102687500Y-129259152D01*
X102735119Y-129211533D01*
X102830357Y-129163914D01*
X103020833Y-129116295D01*
X103258928Y-129116295D01*
X103449404Y-129163914D01*
X103544642Y-129211533D01*
X103592261Y-129259152D01*
X103639880Y-129354390D01*
X103639880Y-129449628D01*
X103592261Y-129544866D01*
X103544642Y-129592485D01*
X103449404Y-129640104D01*
X103258928Y-129687723D01*
X103020833Y-129687723D01*
X102830357Y-129640104D01*
X102735119Y-129592485D01*
X102687500Y-129544866D01*
X102639880Y-129449628D01*
X114720642Y-135676766D02*
X114768261Y-135724385D01*
X114815880Y-135867242D01*
X114815880Y-135962480D01*
X114768261Y-136105338D01*
X114673023Y-136200576D01*
X114577785Y-136248195D01*
X114387309Y-136295814D01*
X114244452Y-136295814D01*
X114053976Y-136248195D01*
X113958738Y-136200576D01*
X113863500Y-136105338D01*
X113815880Y-135962480D01*
X113815880Y-135867242D01*
X113863500Y-135724385D01*
X113911119Y-135676766D01*
X114815880Y-135200576D02*
X114815880Y-135010100D01*
X114768261Y-134914861D01*
X114720642Y-134867242D01*
X114577785Y-134772004D01*
X114387309Y-134724385D01*
X114006357Y-134724385D01*
X113911119Y-134772004D01*
X113863500Y-134819623D01*
X113815880Y-134914861D01*
X113815880Y-135105338D01*
X113863500Y-135200576D01*
X113911119Y-135248195D01*
X114006357Y-135295814D01*
X114244452Y-135295814D01*
X114339690Y-135248195D01*
X114387309Y-135200576D01*
X114434928Y-135105338D01*
X114434928Y-134914861D01*
X114387309Y-134819623D01*
X114339690Y-134772004D01*
X114244452Y-134724385D01*
X103608142Y-134812066D02*
X103655761Y-134859685D01*
X103703380Y-135002542D01*
X103703380Y-135097780D01*
X103655761Y-135240638D01*
X103560523Y-135335876D01*
X103465285Y-135383495D01*
X103274809Y-135431114D01*
X103131952Y-135431114D01*
X102941476Y-135383495D01*
X102846238Y-135335876D01*
X102751000Y-135240638D01*
X102703380Y-135097780D01*
X102703380Y-135002542D01*
X102751000Y-134859685D01*
X102798619Y-134812066D01*
X102703380Y-134478733D02*
X102703380Y-133812066D01*
X103703380Y-134240638D01*
X133961142Y-130354366D02*
X134008761Y-130401985D01*
X134056380Y-130544842D01*
X134056380Y-130640080D01*
X134008761Y-130782938D01*
X133913523Y-130878176D01*
X133818285Y-130925795D01*
X133627809Y-130973414D01*
X133484952Y-130973414D01*
X133294476Y-130925795D01*
X133199238Y-130878176D01*
X133104000Y-130782938D01*
X133056380Y-130640080D01*
X133056380Y-130544842D01*
X133104000Y-130401985D01*
X133151619Y-130354366D01*
X133056380Y-129497223D02*
X133056380Y-129687700D01*
X133104000Y-129782938D01*
X133151619Y-129830557D01*
X133294476Y-129925795D01*
X133484952Y-129973414D01*
X133865904Y-129973414D01*
X133961142Y-129925795D01*
X134008761Y-129878176D01*
X134056380Y-129782938D01*
X134056380Y-129592461D01*
X134008761Y-129497223D01*
X133961142Y-129449604D01*
X133865904Y-129401985D01*
X133627809Y-129401985D01*
X133532571Y-129449604D01*
X133484952Y-129497223D01*
X133437333Y-129592461D01*
X133437333Y-129782938D01*
X133484952Y-129878176D01*
X133532571Y-129925795D01*
X133627809Y-129973414D01*
X91209833Y-126150642D02*
X91162214Y-126198261D01*
X91019357Y-126245880D01*
X90924119Y-126245880D01*
X90781261Y-126198261D01*
X90686023Y-126103023D01*
X90638404Y-126007785D01*
X90590785Y-125817309D01*
X90590785Y-125674452D01*
X90638404Y-125483976D01*
X90686023Y-125388738D01*
X90781261Y-125293500D01*
X90924119Y-125245880D01*
X91019357Y-125245880D01*
X91162214Y-125293500D01*
X91209833Y-125341119D01*
X92162214Y-126245880D02*
X91590785Y-126245880D01*
X91876500Y-126245880D02*
X91876500Y-125245880D01*
X91781261Y-125388738D01*
X91686023Y-125483976D01*
X91590785Y-125531595D01*
X92181680Y-98245680D02*
X91705490Y-98245680D01*
X91657871Y-98721871D01*
X91705490Y-98674252D01*
X91800728Y-98626633D01*
X92038823Y-98626633D01*
X92134061Y-98674252D01*
X92181680Y-98721871D01*
X92229300Y-98817109D01*
X92229300Y-99055204D01*
X92181680Y-99150442D01*
X92134061Y-99198061D01*
X92038823Y-99245680D01*
X91800728Y-99245680D01*
X91705490Y-99198061D01*
X91657871Y-99150442D01*
X92515014Y-98245680D02*
X92848347Y-99245680D01*
X93181680Y-98245680D01*
X93276919Y-99340919D02*
X94038823Y-99340919D01*
X94276919Y-98245680D02*
X94276919Y-99055204D01*
X94324538Y-99150442D01*
X94372157Y-99198061D01*
X94467395Y-99245680D01*
X94657871Y-99245680D01*
X94753109Y-99198061D01*
X94800728Y-99150442D01*
X94848347Y-99055204D01*
X94848347Y-98245680D01*
X95276919Y-99198061D02*
X95419776Y-99245680D01*
X95657871Y-99245680D01*
X95753109Y-99198061D01*
X95800728Y-99150442D01*
X95848347Y-99055204D01*
X95848347Y-98959966D01*
X95800728Y-98864728D01*
X95753109Y-98817109D01*
X95657871Y-98769490D01*
X95467395Y-98721871D01*
X95372157Y-98674252D01*
X95324538Y-98626633D01*
X95276919Y-98531395D01*
X95276919Y-98436157D01*
X95324538Y-98340919D01*
X95372157Y-98293300D01*
X95467395Y-98245680D01*
X95705490Y-98245680D01*
X95848347Y-98293300D01*
X96610252Y-98721871D02*
X96753109Y-98769490D01*
X96800728Y-98817109D01*
X96848347Y-98912347D01*
X96848347Y-99055204D01*
X96800728Y-99150442D01*
X96753109Y-99198061D01*
X96657871Y-99245680D01*
X96276919Y-99245680D01*
X96276919Y-98245680D01*
X96610252Y-98245680D01*
X96705490Y-98293300D01*
X96753109Y-98340919D01*
X96800728Y-98436157D01*
X96800728Y-98531395D01*
X96753109Y-98626633D01*
X96705490Y-98674252D01*
X96610252Y-98721871D01*
X96276919Y-98721871D01*
X97800728Y-99245680D02*
X97229300Y-99245680D01*
X97515014Y-99245680D02*
X97515014Y-98245680D01*
X97419776Y-98388538D01*
X97324538Y-98483776D01*
X97229300Y-98531395D01*
X109721733Y-133754880D02*
X109245542Y-133754880D01*
X109197923Y-134231071D01*
X109245542Y-134183452D01*
X109340780Y-134135833D01*
X109578876Y-134135833D01*
X109674114Y-134183452D01*
X109721733Y-134231071D01*
X109769352Y-134326309D01*
X109769352Y-134564404D01*
X109721733Y-134659642D01*
X109674114Y-134707261D01*
X109578876Y-134754880D01*
X109340780Y-134754880D01*
X109245542Y-134707261D01*
X109197923Y-134659642D01*
X110055066Y-133754880D02*
X110388400Y-134754880D01*
X110721733Y-133754880D01*
X111578876Y-134754880D02*
X111007447Y-134754880D01*
X111293161Y-134754880D02*
X111293161Y-133754880D01*
X111197923Y-133897738D01*
X111102685Y-133992976D01*
X111007447Y-134040595D01*
X128772066Y-84069180D02*
X128438733Y-83592990D01*
X128200638Y-84069180D02*
X128200638Y-83069180D01*
X128581590Y-83069180D01*
X128676828Y-83116800D01*
X128724447Y-83164419D01*
X128772066Y-83259657D01*
X128772066Y-83402514D01*
X128724447Y-83497752D01*
X128676828Y-83545371D01*
X128581590Y-83592990D01*
X128200638Y-83592990D01*
X129533971Y-83545371D02*
X129200638Y-83545371D01*
X129200638Y-84069180D02*
X129200638Y-83069180D01*
X129676828Y-83069180D01*
X130057780Y-84069180D02*
X130057780Y-83069180D01*
X130533971Y-84069180D02*
X130533971Y-83069180D01*
X130772066Y-83069180D01*
X130914923Y-83116800D01*
X131010161Y-83212038D01*
X131057780Y-83307276D01*
X131105400Y-83497752D01*
X131105400Y-83640609D01*
X131057780Y-83831085D01*
X131010161Y-83926323D01*
X130914923Y-84021561D01*
X130772066Y-84069180D01*
X130533971Y-84069180D01*
X131295876Y-84164419D02*
X132057780Y-84164419D01*
X132200638Y-83069180D02*
X132819685Y-83069180D01*
X132486352Y-83450133D01*
X132629209Y-83450133D01*
X132724447Y-83497752D01*
X132772066Y-83545371D01*
X132819685Y-83640609D01*
X132819685Y-83878704D01*
X132772066Y-83973942D01*
X132724447Y-84021561D01*
X132629209Y-84069180D01*
X132343495Y-84069180D01*
X132248257Y-84021561D01*
X132200638Y-83973942D01*
X133248257Y-83973942D02*
X133295876Y-84021561D01*
X133248257Y-84069180D01*
X133200638Y-84021561D01*
X133248257Y-83973942D01*
X133248257Y-84069180D01*
X133629209Y-83069180D02*
X134248257Y-83069180D01*
X133914923Y-83450133D01*
X134057780Y-83450133D01*
X134153019Y-83497752D01*
X134200638Y-83545371D01*
X134248257Y-83640609D01*
X134248257Y-83878704D01*
X134200638Y-83973942D01*
X134153019Y-84021561D01*
X134057780Y-84069180D01*
X133772066Y-84069180D01*
X133676828Y-84021561D01*
X133629209Y-83973942D01*
X134533971Y-83069180D02*
X134867304Y-84069180D01*
X135200638Y-83069180D01*
X136057780Y-84069180D02*
X135486352Y-84069180D01*
X135772066Y-84069180D02*
X135772066Y-83069180D01*
X135676828Y-83212038D01*
X135581590Y-83307276D01*
X135486352Y-83354895D01*
X84553380Y-89995333D02*
X85267666Y-89995333D01*
X85410523Y-90042952D01*
X85505761Y-90138190D01*
X85553380Y-90281047D01*
X85553380Y-90376285D01*
X84648619Y-89566761D02*
X84601000Y-89519142D01*
X84553380Y-89423904D01*
X84553380Y-89185809D01*
X84601000Y-89090571D01*
X84648619Y-89042952D01*
X84743857Y-88995333D01*
X84839095Y-88995333D01*
X84981952Y-89042952D01*
X85553380Y-89614380D01*
X85553380Y-88995333D01*
X102533380Y-91696166D02*
X102057190Y-92029500D01*
X102533380Y-92267595D02*
X101533380Y-92267595D01*
X101533380Y-91886642D01*
X101581000Y-91791404D01*
X101628619Y-91743785D01*
X101723857Y-91696166D01*
X101866714Y-91696166D01*
X101961952Y-91743785D01*
X102009571Y-91791404D01*
X102057190Y-91886642D01*
X102057190Y-92267595D01*
X102533380Y-90743785D02*
X102533380Y-91315214D01*
X102533380Y-91029500D02*
X101533380Y-91029500D01*
X101676238Y-91124738D01*
X101771476Y-91219976D01*
X101819095Y-91315214D01*
X104873380Y-89104166D02*
X104397190Y-89437500D01*
X104873380Y-89675595D02*
X103873380Y-89675595D01*
X103873380Y-89294642D01*
X103921000Y-89199404D01*
X103968619Y-89151785D01*
X104063857Y-89104166D01*
X104206714Y-89104166D01*
X104301952Y-89151785D01*
X104349571Y-89199404D01*
X104397190Y-89294642D01*
X104397190Y-89675595D01*
X103968619Y-88723214D02*
X103921000Y-88675595D01*
X103873380Y-88580357D01*
X103873380Y-88342261D01*
X103921000Y-88247023D01*
X103968619Y-88199404D01*
X104063857Y-88151785D01*
X104159095Y-88151785D01*
X104301952Y-88199404D01*
X104873380Y-88770833D01*
X104873380Y-88151785D01*
X95524580Y-105449666D02*
X95048390Y-105783000D01*
X95524580Y-106021095D02*
X94524580Y-106021095D01*
X94524580Y-105640142D01*
X94572200Y-105544904D01*
X94619819Y-105497285D01*
X94715057Y-105449666D01*
X94857914Y-105449666D01*
X94953152Y-105497285D01*
X95000771Y-105544904D01*
X95048390Y-105640142D01*
X95048390Y-106021095D01*
X94953152Y-104878238D02*
X94905533Y-104973476D01*
X94857914Y-105021095D01*
X94762676Y-105068714D01*
X94715057Y-105068714D01*
X94619819Y-105021095D01*
X94572200Y-104973476D01*
X94524580Y-104878238D01*
X94524580Y-104687761D01*
X94572200Y-104592523D01*
X94619819Y-104544904D01*
X94715057Y-104497285D01*
X94762676Y-104497285D01*
X94857914Y-104544904D01*
X94905533Y-104592523D01*
X94953152Y-104687761D01*
X94953152Y-104878238D01*
X95000771Y-104973476D01*
X95048390Y-105021095D01*
X95143628Y-105068714D01*
X95334104Y-105068714D01*
X95429342Y-105021095D01*
X95476961Y-104973476D01*
X95524580Y-104878238D01*
X95524580Y-104687761D01*
X95476961Y-104592523D01*
X95429342Y-104544904D01*
X95334104Y-104497285D01*
X95143628Y-104497285D01*
X95048390Y-104544904D01*
X95000771Y-104592523D01*
X94953152Y-104687761D01*
X105510033Y-114892080D02*
X105176700Y-114415890D01*
X104938604Y-114892080D02*
X104938604Y-113892080D01*
X105319557Y-113892080D01*
X105414795Y-113939700D01*
X105462414Y-113987319D01*
X105510033Y-114082557D01*
X105510033Y-114225414D01*
X105462414Y-114320652D01*
X105414795Y-114368271D01*
X105319557Y-114415890D01*
X104938604Y-114415890D01*
X105986223Y-114892080D02*
X106176700Y-114892080D01*
X106271938Y-114844461D01*
X106319557Y-114796842D01*
X106414795Y-114653985D01*
X106462414Y-114463509D01*
X106462414Y-114082557D01*
X106414795Y-113987319D01*
X106367176Y-113939700D01*
X106271938Y-113892080D01*
X106081461Y-113892080D01*
X105986223Y-113939700D01*
X105938604Y-113987319D01*
X105890985Y-114082557D01*
X105890985Y-114320652D01*
X105938604Y-114415890D01*
X105986223Y-114463509D01*
X106081461Y-114511128D01*
X106271938Y-114511128D01*
X106367176Y-114463509D01*
X106414795Y-114415890D01*
X106462414Y-114320652D01*
X108529380Y-111628157D02*
X108053190Y-111961490D01*
X108529380Y-112199585D02*
X107529380Y-112199585D01*
X107529380Y-111818633D01*
X107577000Y-111723395D01*
X107624619Y-111675776D01*
X107719857Y-111628157D01*
X107862714Y-111628157D01*
X107957952Y-111675776D01*
X108005571Y-111723395D01*
X108053190Y-111818633D01*
X108053190Y-112199585D01*
X108529380Y-110675776D02*
X108529380Y-111247204D01*
X108529380Y-110961490D02*
X107529380Y-110961490D01*
X107672238Y-111056728D01*
X107767476Y-111151966D01*
X107815095Y-111247204D01*
X107624619Y-110294823D02*
X107577000Y-110247204D01*
X107529380Y-110151966D01*
X107529380Y-109913871D01*
X107577000Y-109818633D01*
X107624619Y-109771014D01*
X107719857Y-109723395D01*
X107815095Y-109723395D01*
X107957952Y-109771014D01*
X108529380Y-110342442D01*
X108529380Y-109723395D01*
X163215580Y-128379457D02*
X162739390Y-128712790D01*
X163215580Y-128950885D02*
X162215580Y-128950885D01*
X162215580Y-128569933D01*
X162263200Y-128474695D01*
X162310819Y-128427076D01*
X162406057Y-128379457D01*
X162548914Y-128379457D01*
X162644152Y-128427076D01*
X162691771Y-128474695D01*
X162739390Y-128569933D01*
X162739390Y-128950885D01*
X163215580Y-127427076D02*
X163215580Y-127998504D01*
X163215580Y-127712790D02*
X162215580Y-127712790D01*
X162358438Y-127808028D01*
X162453676Y-127903266D01*
X162501295Y-127998504D01*
X162215580Y-127093742D02*
X162215580Y-126474695D01*
X162596533Y-126808028D01*
X162596533Y-126665171D01*
X162644152Y-126569933D01*
X162691771Y-126522314D01*
X162787009Y-126474695D01*
X163025104Y-126474695D01*
X163120342Y-126522314D01*
X163167961Y-126569933D01*
X163215580Y-126665171D01*
X163215580Y-126950885D01*
X163167961Y-127046123D01*
X163120342Y-127093742D01*
X108920642Y-107918180D02*
X108587309Y-107441990D01*
X108349214Y-107918180D02*
X108349214Y-106918180D01*
X108730166Y-106918180D01*
X108825404Y-106965800D01*
X108873023Y-107013419D01*
X108920642Y-107108657D01*
X108920642Y-107251514D01*
X108873023Y-107346752D01*
X108825404Y-107394371D01*
X108730166Y-107441990D01*
X108349214Y-107441990D01*
X109873023Y-107918180D02*
X109301595Y-107918180D01*
X109587309Y-107918180D02*
X109587309Y-106918180D01*
X109492071Y-107061038D01*
X109396833Y-107156276D01*
X109301595Y-107203895D01*
X110730166Y-107251514D02*
X110730166Y-107918180D01*
X110492071Y-106870561D02*
X110253976Y-107584847D01*
X110873023Y-107584847D01*
X94194333Y-110897942D02*
X94146714Y-110945561D01*
X94003857Y-110993180D01*
X93908619Y-110993180D01*
X93765761Y-110945561D01*
X93670523Y-110850323D01*
X93622904Y-110755085D01*
X93575285Y-110564609D01*
X93575285Y-110421752D01*
X93622904Y-110231276D01*
X93670523Y-110136038D01*
X93765761Y-110040800D01*
X93908619Y-109993180D01*
X94003857Y-109993180D01*
X94146714Y-110040800D01*
X94194333Y-110088419D01*
X94575285Y-110088419D02*
X94622904Y-110040800D01*
X94718142Y-109993180D01*
X94956238Y-109993180D01*
X95051476Y-110040800D01*
X95099095Y-110088419D01*
X95146714Y-110183657D01*
X95146714Y-110278895D01*
X95099095Y-110421752D01*
X94527666Y-110993180D01*
X95146714Y-110993180D01*
X99099642Y-116231966D02*
X99147261Y-116279585D01*
X99194880Y-116422442D01*
X99194880Y-116517680D01*
X99147261Y-116660538D01*
X99052023Y-116755776D01*
X98956785Y-116803395D01*
X98766309Y-116851014D01*
X98623452Y-116851014D01*
X98432976Y-116803395D01*
X98337738Y-116755776D01*
X98242500Y-116660538D01*
X98194880Y-116517680D01*
X98194880Y-116422442D01*
X98242500Y-116279585D01*
X98290119Y-116231966D01*
X98194880Y-115898633D02*
X98194880Y-115279585D01*
X98575833Y-115612919D01*
X98575833Y-115470061D01*
X98623452Y-115374823D01*
X98671071Y-115327204D01*
X98766309Y-115279585D01*
X99004404Y-115279585D01*
X99099642Y-115327204D01*
X99147261Y-115374823D01*
X99194880Y-115470061D01*
X99194880Y-115755776D01*
X99147261Y-115851014D01*
X99099642Y-115898633D01*
X100366533Y-114098342D02*
X100318914Y-114145961D01*
X100176057Y-114193580D01*
X100080819Y-114193580D01*
X99937961Y-114145961D01*
X99842723Y-114050723D01*
X99795104Y-113955485D01*
X99747485Y-113765009D01*
X99747485Y-113622152D01*
X99795104Y-113431676D01*
X99842723Y-113336438D01*
X99937961Y-113241200D01*
X100080819Y-113193580D01*
X100176057Y-113193580D01*
X100318914Y-113241200D01*
X100366533Y-113288819D01*
X101271295Y-113193580D02*
X100795104Y-113193580D01*
X100747485Y-113669771D01*
X100795104Y-113622152D01*
X100890342Y-113574533D01*
X101128438Y-113574533D01*
X101223676Y-113622152D01*
X101271295Y-113669771D01*
X101318914Y-113765009D01*
X101318914Y-114003104D01*
X101271295Y-114098342D01*
X101223676Y-114145961D01*
X101128438Y-114193580D01*
X100890342Y-114193580D01*
X100795104Y-114145961D01*
X100747485Y-114098342D01*
X91352642Y-116474366D02*
X91400261Y-116521985D01*
X91447880Y-116664842D01*
X91447880Y-116760080D01*
X91400261Y-116902938D01*
X91305023Y-116998176D01*
X91209785Y-117045795D01*
X91019309Y-117093414D01*
X90876452Y-117093414D01*
X90685976Y-117045795D01*
X90590738Y-116998176D01*
X90495500Y-116902938D01*
X90447880Y-116760080D01*
X90447880Y-116664842D01*
X90495500Y-116521985D01*
X90543119Y-116474366D01*
X90876452Y-115902938D02*
X90828833Y-115998176D01*
X90781214Y-116045795D01*
X90685976Y-116093414D01*
X90638357Y-116093414D01*
X90543119Y-116045795D01*
X90495500Y-115998176D01*
X90447880Y-115902938D01*
X90447880Y-115712461D01*
X90495500Y-115617223D01*
X90543119Y-115569604D01*
X90638357Y-115521985D01*
X90685976Y-115521985D01*
X90781214Y-115569604D01*
X90828833Y-115617223D01*
X90876452Y-115712461D01*
X90876452Y-115902938D01*
X90924071Y-115998176D01*
X90971690Y-116045795D01*
X91066928Y-116093414D01*
X91257404Y-116093414D01*
X91352642Y-116045795D01*
X91400261Y-115998176D01*
X91447880Y-115902938D01*
X91447880Y-115712461D01*
X91400261Y-115617223D01*
X91352642Y-115569604D01*
X91257404Y-115521985D01*
X91066928Y-115521985D01*
X90971690Y-115569604D01*
X90924071Y-115617223D01*
X90876452Y-115712461D01*
X107834204Y-115552480D02*
X107834204Y-114552480D01*
X108072300Y-114552480D01*
X108215157Y-114600100D01*
X108310395Y-114695338D01*
X108358014Y-114790576D01*
X108405633Y-114981052D01*
X108405633Y-115123909D01*
X108358014Y-115314385D01*
X108310395Y-115409623D01*
X108215157Y-115504861D01*
X108072300Y-115552480D01*
X107834204Y-115552480D01*
X108786585Y-114647719D02*
X108834204Y-114600100D01*
X108929442Y-114552480D01*
X109167538Y-114552480D01*
X109262776Y-114600100D01*
X109310395Y-114647719D01*
X109358014Y-114742957D01*
X109358014Y-114838195D01*
X109310395Y-114981052D01*
X108738966Y-115552480D01*
X109358014Y-115552480D01*
X111602780Y-118276595D02*
X110602780Y-118276595D01*
X110602780Y-118038500D01*
X110650400Y-117895642D01*
X110745638Y-117800404D01*
X110840876Y-117752785D01*
X111031352Y-117705166D01*
X111174209Y-117705166D01*
X111364685Y-117752785D01*
X111459923Y-117800404D01*
X111555161Y-117895642D01*
X111602780Y-118038500D01*
X111602780Y-118276595D01*
X110602780Y-117371833D02*
X110602780Y-116752785D01*
X110983733Y-117086119D01*
X110983733Y-116943261D01*
X111031352Y-116848023D01*
X111078971Y-116800404D01*
X111174209Y-116752785D01*
X111412304Y-116752785D01*
X111507542Y-116800404D01*
X111555161Y-116848023D01*
X111602780Y-116943261D01*
X111602780Y-117228976D01*
X111555161Y-117324214D01*
X111507542Y-117371833D01*
X133818404Y-115474380D02*
X133818404Y-114474380D01*
X134056500Y-114474380D01*
X134199357Y-114522000D01*
X134294595Y-114617238D01*
X134342214Y-114712476D01*
X134389833Y-114902952D01*
X134389833Y-115045809D01*
X134342214Y-115236285D01*
X134294595Y-115331523D01*
X134199357Y-115426761D01*
X134056500Y-115474380D01*
X133818404Y-115474380D01*
X135294595Y-114474380D02*
X134818404Y-114474380D01*
X134770785Y-114950571D01*
X134818404Y-114902952D01*
X134913642Y-114855333D01*
X135151738Y-114855333D01*
X135246976Y-114902952D01*
X135294595Y-114950571D01*
X135342214Y-115045809D01*
X135342214Y-115283904D01*
X135294595Y-115379142D01*
X135246976Y-115426761D01*
X135151738Y-115474380D01*
X134913642Y-115474380D01*
X134818404Y-115426761D01*
X134770785Y-115379142D01*
X115639861Y-111977419D02*
X115544623Y-111929800D01*
X115449385Y-111834561D01*
X115306528Y-111691704D01*
X115211290Y-111644085D01*
X115116052Y-111644085D01*
X115163671Y-111882180D02*
X115068433Y-111834561D01*
X114973195Y-111739323D01*
X114925576Y-111548847D01*
X114925576Y-111215514D01*
X114973195Y-111025038D01*
X115068433Y-110929800D01*
X115163671Y-110882180D01*
X115354147Y-110882180D01*
X115449385Y-110929800D01*
X115544623Y-111025038D01*
X115592242Y-111215514D01*
X115592242Y-111548847D01*
X115544623Y-111739323D01*
X115449385Y-111834561D01*
X115354147Y-111882180D01*
X115163671Y-111882180D01*
X115973195Y-110977419D02*
X116020814Y-110929800D01*
X116116052Y-110882180D01*
X116354147Y-110882180D01*
X116449385Y-110929800D01*
X116497004Y-110977419D01*
X116544623Y-111072657D01*
X116544623Y-111167895D01*
X116497004Y-111310752D01*
X115925576Y-111882180D01*
X116544623Y-111882180D01*
X115728761Y-108408719D02*
X115633523Y-108361100D01*
X115538285Y-108265861D01*
X115395428Y-108123004D01*
X115300190Y-108075385D01*
X115204952Y-108075385D01*
X115252571Y-108313480D02*
X115157333Y-108265861D01*
X115062095Y-108170623D01*
X115014476Y-107980147D01*
X115014476Y-107646814D01*
X115062095Y-107456338D01*
X115157333Y-107361100D01*
X115252571Y-107313480D01*
X115443047Y-107313480D01*
X115538285Y-107361100D01*
X115633523Y-107456338D01*
X115681142Y-107646814D01*
X115681142Y-107980147D01*
X115633523Y-108170623D01*
X115538285Y-108265861D01*
X115443047Y-108313480D01*
X115252571Y-108313480D01*
X116014476Y-107313480D02*
X116633523Y-107313480D01*
X116300190Y-107694433D01*
X116443047Y-107694433D01*
X116538285Y-107742052D01*
X116585904Y-107789671D01*
X116633523Y-107884909D01*
X116633523Y-108123004D01*
X116585904Y-108218242D01*
X116538285Y-108265861D01*
X116443047Y-108313480D01*
X116157333Y-108313480D01*
X116062095Y-108265861D01*
X116014476Y-108218242D01*
X86098380Y-119057609D02*
X85622190Y-119390942D01*
X86098380Y-119629038D02*
X85098380Y-119629038D01*
X85098380Y-119248085D01*
X85146000Y-119152847D01*
X85193619Y-119105228D01*
X85288857Y-119057609D01*
X85431714Y-119057609D01*
X85526952Y-119105228D01*
X85574571Y-119152847D01*
X85622190Y-119248085D01*
X85622190Y-119629038D01*
X86050761Y-118676657D02*
X86098380Y-118533800D01*
X86098380Y-118295704D01*
X86050761Y-118200466D01*
X86003142Y-118152847D01*
X85907904Y-118105228D01*
X85812666Y-118105228D01*
X85717428Y-118152847D01*
X85669809Y-118200466D01*
X85622190Y-118295704D01*
X85574571Y-118486180D01*
X85526952Y-118581419D01*
X85479333Y-118629038D01*
X85384095Y-118676657D01*
X85288857Y-118676657D01*
X85193619Y-118629038D01*
X85146000Y-118581419D01*
X85098380Y-118486180D01*
X85098380Y-118248085D01*
X85146000Y-118105228D01*
X85098380Y-117819514D02*
X85098380Y-117248085D01*
X86098380Y-117533800D02*
X85098380Y-117533800D01*
X86098380Y-116390942D02*
X86098380Y-116962371D01*
X86098380Y-116676657D02*
X85098380Y-116676657D01*
X85241238Y-116771895D01*
X85336476Y-116867133D01*
X85384095Y-116962371D01*
X97734380Y-109833657D02*
X97258190Y-110166990D01*
X97734380Y-110405085D02*
X96734380Y-110405085D01*
X96734380Y-110024133D01*
X96782000Y-109928895D01*
X96829619Y-109881276D01*
X96924857Y-109833657D01*
X97067714Y-109833657D01*
X97162952Y-109881276D01*
X97210571Y-109928895D01*
X97258190Y-110024133D01*
X97258190Y-110405085D01*
X97734380Y-108881276D02*
X97734380Y-109452704D01*
X97734380Y-109166990D02*
X96734380Y-109166990D01*
X96877238Y-109262228D01*
X96972476Y-109357466D01*
X97020095Y-109452704D01*
X97734380Y-108405085D02*
X97734380Y-108214609D01*
X97686761Y-108119371D01*
X97639142Y-108071752D01*
X97496285Y-107976514D01*
X97305809Y-107928895D01*
X96924857Y-107928895D01*
X96829619Y-107976514D01*
X96782000Y-108024133D01*
X96734380Y-108119371D01*
X96734380Y-108309847D01*
X96782000Y-108405085D01*
X96829619Y-108452704D01*
X96924857Y-108500323D01*
X97162952Y-108500323D01*
X97258190Y-108452704D01*
X97305809Y-108405085D01*
X97353428Y-108309847D01*
X97353428Y-108119371D01*
X97305809Y-108024133D01*
X97258190Y-107976514D01*
X97162952Y-107928895D01*
X90535166Y-113168180D02*
X90535166Y-113882466D01*
X90487547Y-114025323D01*
X90392309Y-114120561D01*
X90249452Y-114168180D01*
X90154214Y-114168180D01*
X91439928Y-113501514D02*
X91439928Y-114168180D01*
X91201833Y-113120561D02*
X90963738Y-113834847D01*
X91582785Y-113834847D01*
X123690404Y-108442780D02*
X123690404Y-107442780D01*
X123928500Y-107442780D01*
X124071357Y-107490400D01*
X124166595Y-107585638D01*
X124214214Y-107680876D01*
X124261833Y-107871352D01*
X124261833Y-108014209D01*
X124214214Y-108204685D01*
X124166595Y-108299923D01*
X124071357Y-108395161D01*
X123928500Y-108442780D01*
X123690404Y-108442780D01*
X124452309Y-108538019D02*
X125214214Y-108538019D01*
X126023738Y-108347542D02*
X125976119Y-108395161D01*
X125833261Y-108442780D01*
X125738023Y-108442780D01*
X125595166Y-108395161D01*
X125499928Y-108299923D01*
X125452309Y-108204685D01*
X125404690Y-108014209D01*
X125404690Y-107871352D01*
X125452309Y-107680876D01*
X125499928Y-107585638D01*
X125595166Y-107490400D01*
X125738023Y-107442780D01*
X125833261Y-107442780D01*
X125976119Y-107490400D01*
X126023738Y-107538019D01*
X126595166Y-108442780D02*
X126499928Y-108395161D01*
X126452309Y-108347542D01*
X126404690Y-108252304D01*
X126404690Y-107966590D01*
X126452309Y-107871352D01*
X126499928Y-107823733D01*
X126595166Y-107776114D01*
X126738023Y-107776114D01*
X126833261Y-107823733D01*
X126880880Y-107871352D01*
X126928500Y-107966590D01*
X126928500Y-108252304D01*
X126880880Y-108347542D01*
X126833261Y-108395161D01*
X126738023Y-108442780D01*
X126595166Y-108442780D01*
X127357071Y-108442780D02*
X127357071Y-107776114D01*
X127357071Y-107871352D02*
X127404690Y-107823733D01*
X127499928Y-107776114D01*
X127642785Y-107776114D01*
X127738023Y-107823733D01*
X127785642Y-107918971D01*
X127785642Y-108442780D01*
X127785642Y-107918971D02*
X127833261Y-107823733D01*
X127928500Y-107776114D01*
X128071357Y-107776114D01*
X128166595Y-107823733D01*
X128214214Y-107918971D01*
X128214214Y-108442780D01*
X129214214Y-108442780D02*
X128642785Y-108442780D01*
X128928500Y-108442780D02*
X128928500Y-107442780D01*
X128833261Y-107585638D01*
X128738023Y-107680876D01*
X128642785Y-107728495D01*
X160991704Y-108531800D02*
X160896466Y-108484180D01*
X160753609Y-108484180D01*
X160610752Y-108531800D01*
X160515514Y-108627038D01*
X160467895Y-108722276D01*
X160420276Y-108912752D01*
X160420276Y-109055609D01*
X160467895Y-109246085D01*
X160515514Y-109341323D01*
X160610752Y-109436561D01*
X160753609Y-109484180D01*
X160848847Y-109484180D01*
X160991704Y-109436561D01*
X161039323Y-109388942D01*
X161039323Y-109055609D01*
X160848847Y-109055609D01*
X161467895Y-109484180D02*
X161467895Y-108484180D01*
X162039323Y-109484180D01*
X162039323Y-108484180D01*
X162515514Y-109484180D02*
X162515514Y-108484180D01*
X162753609Y-108484180D01*
X162896466Y-108531800D01*
X162991704Y-108627038D01*
X163039323Y-108722276D01*
X163086942Y-108912752D01*
X163086942Y-109055609D01*
X163039323Y-109246085D01*
X162991704Y-109341323D01*
X162896466Y-109436561D01*
X162753609Y-109484180D01*
X162515514Y-109484180D01*
X164039323Y-109484180D02*
X163467895Y-109484180D01*
X163753609Y-109484180D02*
X163753609Y-108484180D01*
X163658371Y-108627038D01*
X163563133Y-108722276D01*
X163467895Y-108769895D01*
X91876571Y-140136428D02*
X91876571Y-140469761D01*
X92400380Y-140469761D02*
X91400380Y-140469761D01*
X91400380Y-139993571D01*
X92400380Y-139612619D02*
X91400380Y-139612619D01*
X92400380Y-139136428D02*
X91400380Y-139136428D01*
X91400380Y-138898333D01*
X91448000Y-138755476D01*
X91543238Y-138660238D01*
X91638476Y-138612619D01*
X91828952Y-138565000D01*
X91971809Y-138565000D01*
X92162285Y-138612619D01*
X92257523Y-138660238D01*
X92352761Y-138755476D01*
X92400380Y-138898333D01*
X92400380Y-139136428D01*
X92400380Y-137612619D02*
X92400380Y-138184047D01*
X92400380Y-137898333D02*
X91400380Y-137898333D01*
X91543238Y-137993571D01*
X91638476Y-138088809D01*
X91686095Y-138184047D01*
X160218571Y-136326571D02*
X159885238Y-136326571D01*
X159885238Y-136850380D02*
X159885238Y-135850380D01*
X160361428Y-135850380D01*
X160742380Y-136850380D02*
X160742380Y-135850380D01*
X161218571Y-136850380D02*
X161218571Y-135850380D01*
X161456666Y-135850380D01*
X161599523Y-135898000D01*
X161694761Y-135993238D01*
X161742380Y-136088476D01*
X161790000Y-136278952D01*
X161790000Y-136421809D01*
X161742380Y-136612285D01*
X161694761Y-136707523D01*
X161599523Y-136802761D01*
X161456666Y-136850380D01*
X161218571Y-136850380D01*
X162170952Y-135945619D02*
X162218571Y-135898000D01*
X162313809Y-135850380D01*
X162551904Y-135850380D01*
X162647142Y-135898000D01*
X162694761Y-135945619D01*
X162742380Y-136040857D01*
X162742380Y-136136095D01*
X162694761Y-136278952D01*
X162123333Y-136850380D01*
X162742380Y-136850380D01*
X92781571Y-77906571D02*
X92448238Y-77906571D01*
X92448238Y-78430380D02*
X92448238Y-77430380D01*
X92924428Y-77430380D01*
X93305380Y-78430380D02*
X93305380Y-77430380D01*
X93781571Y-78430380D02*
X93781571Y-77430380D01*
X94019666Y-77430380D01*
X94162523Y-77478000D01*
X94257761Y-77573238D01*
X94305380Y-77668476D01*
X94353000Y-77858952D01*
X94353000Y-78001809D01*
X94305380Y-78192285D01*
X94257761Y-78287523D01*
X94162523Y-78382761D01*
X94019666Y-78430380D01*
X93781571Y-78430380D01*
X94686333Y-77430380D02*
X95305380Y-77430380D01*
X94972047Y-77811333D01*
X95114904Y-77811333D01*
X95210142Y-77858952D01*
X95257761Y-77906571D01*
X95305380Y-78001809D01*
X95305380Y-78239904D01*
X95257761Y-78335142D01*
X95210142Y-78382761D01*
X95114904Y-78430380D01*
X94829190Y-78430380D01*
X94733952Y-78382761D01*
X94686333Y-78335142D01*
X156294271Y-79024171D02*
X155960938Y-79024171D01*
X155960938Y-79547980D02*
X155960938Y-78547980D01*
X156437128Y-78547980D01*
X156818080Y-79547980D02*
X156818080Y-78547980D01*
X157294271Y-79547980D02*
X157294271Y-78547980D01*
X157532366Y-78547980D01*
X157675223Y-78595600D01*
X157770461Y-78690838D01*
X157818080Y-78786076D01*
X157865700Y-78976552D01*
X157865700Y-79119409D01*
X157818080Y-79309885D01*
X157770461Y-79405123D01*
X157675223Y-79500361D01*
X157532366Y-79547980D01*
X157294271Y-79547980D01*
X158722842Y-78881314D02*
X158722842Y-79547980D01*
X158484747Y-78500361D02*
X158246652Y-79214647D01*
X158865700Y-79214647D01*
X93503761Y-112612419D02*
X93408523Y-112564800D01*
X93313285Y-112469561D01*
X93170428Y-112326704D01*
X93075190Y-112279085D01*
X92979952Y-112279085D01*
X93027571Y-112517180D02*
X92932333Y-112469561D01*
X92837095Y-112374323D01*
X92789476Y-112183847D01*
X92789476Y-111850514D01*
X92837095Y-111660038D01*
X92932333Y-111564800D01*
X93027571Y-111517180D01*
X93218047Y-111517180D01*
X93313285Y-111564800D01*
X93408523Y-111660038D01*
X93456142Y-111850514D01*
X93456142Y-112183847D01*
X93408523Y-112374323D01*
X93313285Y-112469561D01*
X93218047Y-112517180D01*
X93027571Y-112517180D01*
X94408523Y-112517180D02*
X93837095Y-112517180D01*
X94122809Y-112517180D02*
X94122809Y-111517180D01*
X94027571Y-111660038D01*
X93932333Y-111755276D01*
X93837095Y-111802895D01*
M02*
