G04 #@! TF.GenerationSoftware,KiCad,Pcbnew,(5.1.9-0-10_14)*
G04 #@! TF.CreationDate,2021-02-25T23:37:31+01:00*
G04 #@! TF.ProjectId,QUino-Dogbox,5155696e-6f2d-4446-9f67-626f782e6b69,C*
G04 #@! TF.SameCoordinates,Original*
G04 #@! TF.FileFunction,Soldermask,Top*
G04 #@! TF.FilePolarity,Negative*
%FSLAX46Y46*%
G04 Gerber Fmt 4.6, Leading zero omitted, Abs format (unit mm)*
G04 Created by KiCad (PCBNEW (5.1.9-0-10_14)) date 2021-02-25 23:37:31*
%MOMM*%
%LPD*%
G01*
G04 APERTURE LIST*
%ADD10O,2.100000X2.100000*%
%ADD11O,2.150000X1.600000*%
%ADD12C,3.400000*%
%ADD13C,0.100000*%
%ADD14C,3.000000*%
G04 APERTURE END LIST*
G36*
G01*
X94162700Y-126398500D02*
X96362700Y-126398500D01*
G75*
G02*
X96562700Y-126598500I0J-200000D01*
G01*
X96562700Y-128798500D01*
G75*
G02*
X96362700Y-128998500I-200000J0D01*
G01*
X94162700Y-128998500D01*
G75*
G02*
X93962700Y-128798500I0J200000D01*
G01*
X93962700Y-126598500D01*
G75*
G02*
X94162700Y-126398500I200000J0D01*
G01*
G37*
G36*
G01*
X96612700Y-126348500D02*
X97612700Y-126348500D01*
G75*
G02*
X97812700Y-126548500I0J-200000D01*
G01*
X97812700Y-126898500D01*
G75*
G02*
X97612700Y-127098500I-200000J0D01*
G01*
X96612700Y-127098500D01*
G75*
G02*
X96412700Y-126898500I0J200000D01*
G01*
X96412700Y-126548500D01*
G75*
G02*
X96612700Y-126348500I200000J0D01*
G01*
G37*
G36*
G01*
X96612700Y-126998500D02*
X97612700Y-126998500D01*
G75*
G02*
X97812700Y-127198500I0J-200000D01*
G01*
X97812700Y-127548500D01*
G75*
G02*
X97612700Y-127748500I-200000J0D01*
G01*
X96612700Y-127748500D01*
G75*
G02*
X96412700Y-127548500I0J200000D01*
G01*
X96412700Y-127198500D01*
G75*
G02*
X96612700Y-126998500I200000J0D01*
G01*
G37*
G36*
G01*
X96612700Y-127648500D02*
X97612700Y-127648500D01*
G75*
G02*
X97812700Y-127848500I0J-200000D01*
G01*
X97812700Y-128198500D01*
G75*
G02*
X97612700Y-128398500I-200000J0D01*
G01*
X96612700Y-128398500D01*
G75*
G02*
X96412700Y-128198500I0J200000D01*
G01*
X96412700Y-127848500D01*
G75*
G02*
X96612700Y-127648500I200000J0D01*
G01*
G37*
G36*
G01*
X96612700Y-128298500D02*
X97612700Y-128298500D01*
G75*
G02*
X97812700Y-128498500I0J-200000D01*
G01*
X97812700Y-128848500D01*
G75*
G02*
X97612700Y-129048500I-200000J0D01*
G01*
X96612700Y-129048500D01*
G75*
G02*
X96412700Y-128848500I0J200000D01*
G01*
X96412700Y-128498500D01*
G75*
G02*
X96612700Y-128298500I200000J0D01*
G01*
G37*
G36*
G01*
X95862700Y-130048500D02*
X95862700Y-129048500D01*
G75*
G02*
X96062700Y-128848500I200000J0D01*
G01*
X96412700Y-128848500D01*
G75*
G02*
X96612700Y-129048500I0J-200000D01*
G01*
X96612700Y-130048500D01*
G75*
G02*
X96412700Y-130248500I-200000J0D01*
G01*
X96062700Y-130248500D01*
G75*
G02*
X95862700Y-130048500I0J200000D01*
G01*
G37*
G36*
G01*
X95212700Y-130048500D02*
X95212700Y-129048500D01*
G75*
G02*
X95412700Y-128848500I200000J0D01*
G01*
X95762700Y-128848500D01*
G75*
G02*
X95962700Y-129048500I0J-200000D01*
G01*
X95962700Y-130048500D01*
G75*
G02*
X95762700Y-130248500I-200000J0D01*
G01*
X95412700Y-130248500D01*
G75*
G02*
X95212700Y-130048500I0J200000D01*
G01*
G37*
G36*
G01*
X94562700Y-130048500D02*
X94562700Y-129048500D01*
G75*
G02*
X94762700Y-128848500I200000J0D01*
G01*
X95112700Y-128848500D01*
G75*
G02*
X95312700Y-129048500I0J-200000D01*
G01*
X95312700Y-130048500D01*
G75*
G02*
X95112700Y-130248500I-200000J0D01*
G01*
X94762700Y-130248500D01*
G75*
G02*
X94562700Y-130048500I0J200000D01*
G01*
G37*
G36*
G01*
X93912700Y-130048500D02*
X93912700Y-129048500D01*
G75*
G02*
X94112700Y-128848500I200000J0D01*
G01*
X94462700Y-128848500D01*
G75*
G02*
X94662700Y-129048500I0J-200000D01*
G01*
X94662700Y-130048500D01*
G75*
G02*
X94462700Y-130248500I-200000J0D01*
G01*
X94112700Y-130248500D01*
G75*
G02*
X93912700Y-130048500I0J200000D01*
G01*
G37*
G36*
G01*
X92912700Y-128298500D02*
X93912700Y-128298500D01*
G75*
G02*
X94112700Y-128498500I0J-200000D01*
G01*
X94112700Y-128848500D01*
G75*
G02*
X93912700Y-129048500I-200000J0D01*
G01*
X92912700Y-129048500D01*
G75*
G02*
X92712700Y-128848500I0J200000D01*
G01*
X92712700Y-128498500D01*
G75*
G02*
X92912700Y-128298500I200000J0D01*
G01*
G37*
G36*
G01*
X92912700Y-127648500D02*
X93912700Y-127648500D01*
G75*
G02*
X94112700Y-127848500I0J-200000D01*
G01*
X94112700Y-128198500D01*
G75*
G02*
X93912700Y-128398500I-200000J0D01*
G01*
X92912700Y-128398500D01*
G75*
G02*
X92712700Y-128198500I0J200000D01*
G01*
X92712700Y-127848500D01*
G75*
G02*
X92912700Y-127648500I200000J0D01*
G01*
G37*
G36*
G01*
X92912700Y-126998500D02*
X93912700Y-126998500D01*
G75*
G02*
X94112700Y-127198500I0J-200000D01*
G01*
X94112700Y-127548500D01*
G75*
G02*
X93912700Y-127748500I-200000J0D01*
G01*
X92912700Y-127748500D01*
G75*
G02*
X92712700Y-127548500I0J200000D01*
G01*
X92712700Y-127198500D01*
G75*
G02*
X92912700Y-126998500I200000J0D01*
G01*
G37*
G36*
G01*
X92912700Y-126348500D02*
X93912700Y-126348500D01*
G75*
G02*
X94112700Y-126548500I0J-200000D01*
G01*
X94112700Y-126898500D01*
G75*
G02*
X93912700Y-127098500I-200000J0D01*
G01*
X92912700Y-127098500D01*
G75*
G02*
X92712700Y-126898500I0J200000D01*
G01*
X92712700Y-126548500D01*
G75*
G02*
X92912700Y-126348500I200000J0D01*
G01*
G37*
G36*
G01*
X93912700Y-126348500D02*
X93912700Y-125348500D01*
G75*
G02*
X94112700Y-125148500I200000J0D01*
G01*
X94462700Y-125148500D01*
G75*
G02*
X94662700Y-125348500I0J-200000D01*
G01*
X94662700Y-126348500D01*
G75*
G02*
X94462700Y-126548500I-200000J0D01*
G01*
X94112700Y-126548500D01*
G75*
G02*
X93912700Y-126348500I0J200000D01*
G01*
G37*
G36*
G01*
X94562700Y-126348500D02*
X94562700Y-125348500D01*
G75*
G02*
X94762700Y-125148500I200000J0D01*
G01*
X95112700Y-125148500D01*
G75*
G02*
X95312700Y-125348500I0J-200000D01*
G01*
X95312700Y-126348500D01*
G75*
G02*
X95112700Y-126548500I-200000J0D01*
G01*
X94762700Y-126548500D01*
G75*
G02*
X94562700Y-126348500I0J200000D01*
G01*
G37*
G36*
G01*
X95212700Y-126348500D02*
X95212700Y-125348500D01*
G75*
G02*
X95412700Y-125148500I200000J0D01*
G01*
X95762700Y-125148500D01*
G75*
G02*
X95962700Y-125348500I0J-200000D01*
G01*
X95962700Y-126348500D01*
G75*
G02*
X95762700Y-126548500I-200000J0D01*
G01*
X95412700Y-126548500D01*
G75*
G02*
X95212700Y-126348500I0J200000D01*
G01*
G37*
G36*
G01*
X95862700Y-126348500D02*
X95862700Y-125348500D01*
G75*
G02*
X96062700Y-125148500I200000J0D01*
G01*
X96412700Y-125148500D01*
G75*
G02*
X96612700Y-125348500I0J-200000D01*
G01*
X96612700Y-126348500D01*
G75*
G02*
X96412700Y-126548500I-200000J0D01*
G01*
X96062700Y-126548500D01*
G75*
G02*
X95862700Y-126348500I0J200000D01*
G01*
G37*
G36*
G01*
X98241000Y-105818800D02*
X99741000Y-105818800D01*
G75*
G02*
X99941000Y-106018800I0J-200000D01*
G01*
X99941000Y-106418800D01*
G75*
G02*
X99741000Y-106618800I-200000J0D01*
G01*
X98241000Y-106618800D01*
G75*
G02*
X98041000Y-106418800I0J200000D01*
G01*
X98041000Y-106018800D01*
G75*
G02*
X98241000Y-105818800I200000J0D01*
G01*
G37*
G36*
G01*
X98241000Y-106468800D02*
X99741000Y-106468800D01*
G75*
G02*
X99941000Y-106668800I0J-200000D01*
G01*
X99941000Y-107068800D01*
G75*
G02*
X99741000Y-107268800I-200000J0D01*
G01*
X98241000Y-107268800D01*
G75*
G02*
X98041000Y-107068800I0J200000D01*
G01*
X98041000Y-106668800D01*
G75*
G02*
X98241000Y-106468800I200000J0D01*
G01*
G37*
G36*
G01*
X98241000Y-107118800D02*
X99741000Y-107118800D01*
G75*
G02*
X99941000Y-107318800I0J-200000D01*
G01*
X99941000Y-107718800D01*
G75*
G02*
X99741000Y-107918800I-200000J0D01*
G01*
X98241000Y-107918800D01*
G75*
G02*
X98041000Y-107718800I0J200000D01*
G01*
X98041000Y-107318800D01*
G75*
G02*
X98241000Y-107118800I200000J0D01*
G01*
G37*
G36*
G01*
X98241000Y-107768800D02*
X99741000Y-107768800D01*
G75*
G02*
X99941000Y-107968800I0J-200000D01*
G01*
X99941000Y-108368800D01*
G75*
G02*
X99741000Y-108568800I-200000J0D01*
G01*
X98241000Y-108568800D01*
G75*
G02*
X98041000Y-108368800I0J200000D01*
G01*
X98041000Y-107968800D01*
G75*
G02*
X98241000Y-107768800I200000J0D01*
G01*
G37*
G36*
G01*
X98241000Y-108418800D02*
X99741000Y-108418800D01*
G75*
G02*
X99941000Y-108618800I0J-200000D01*
G01*
X99941000Y-109018800D01*
G75*
G02*
X99741000Y-109218800I-200000J0D01*
G01*
X98241000Y-109218800D01*
G75*
G02*
X98041000Y-109018800I0J200000D01*
G01*
X98041000Y-108618800D01*
G75*
G02*
X98241000Y-108418800I200000J0D01*
G01*
G37*
G36*
G01*
X98241000Y-109068800D02*
X99741000Y-109068800D01*
G75*
G02*
X99941000Y-109268800I0J-200000D01*
G01*
X99941000Y-109668800D01*
G75*
G02*
X99741000Y-109868800I-200000J0D01*
G01*
X98241000Y-109868800D01*
G75*
G02*
X98041000Y-109668800I0J200000D01*
G01*
X98041000Y-109268800D01*
G75*
G02*
X98241000Y-109068800I200000J0D01*
G01*
G37*
G36*
G01*
X98241000Y-109718800D02*
X99741000Y-109718800D01*
G75*
G02*
X99941000Y-109918800I0J-200000D01*
G01*
X99941000Y-110318800D01*
G75*
G02*
X99741000Y-110518800I-200000J0D01*
G01*
X98241000Y-110518800D01*
G75*
G02*
X98041000Y-110318800I0J200000D01*
G01*
X98041000Y-109918800D01*
G75*
G02*
X98241000Y-109718800I200000J0D01*
G01*
G37*
G36*
G01*
X98241000Y-110368800D02*
X99741000Y-110368800D01*
G75*
G02*
X99941000Y-110568800I0J-200000D01*
G01*
X99941000Y-110968800D01*
G75*
G02*
X99741000Y-111168800I-200000J0D01*
G01*
X98241000Y-111168800D01*
G75*
G02*
X98041000Y-110968800I0J200000D01*
G01*
X98041000Y-110568800D01*
G75*
G02*
X98241000Y-110368800I200000J0D01*
G01*
G37*
G36*
G01*
X98241000Y-111018800D02*
X99741000Y-111018800D01*
G75*
G02*
X99941000Y-111218800I0J-200000D01*
G01*
X99941000Y-111618800D01*
G75*
G02*
X99741000Y-111818800I-200000J0D01*
G01*
X98241000Y-111818800D01*
G75*
G02*
X98041000Y-111618800I0J200000D01*
G01*
X98041000Y-111218800D01*
G75*
G02*
X98241000Y-111018800I200000J0D01*
G01*
G37*
G36*
G01*
X98241000Y-111668800D02*
X99741000Y-111668800D01*
G75*
G02*
X99941000Y-111868800I0J-200000D01*
G01*
X99941000Y-112268800D01*
G75*
G02*
X99741000Y-112468800I-200000J0D01*
G01*
X98241000Y-112468800D01*
G75*
G02*
X98041000Y-112268800I0J200000D01*
G01*
X98041000Y-111868800D01*
G75*
G02*
X98241000Y-111668800I200000J0D01*
G01*
G37*
G36*
G01*
X105491000Y-111668800D02*
X106991000Y-111668800D01*
G75*
G02*
X107191000Y-111868800I0J-200000D01*
G01*
X107191000Y-112268800D01*
G75*
G02*
X106991000Y-112468800I-200000J0D01*
G01*
X105491000Y-112468800D01*
G75*
G02*
X105291000Y-112268800I0J200000D01*
G01*
X105291000Y-111868800D01*
G75*
G02*
X105491000Y-111668800I200000J0D01*
G01*
G37*
G36*
G01*
X105491000Y-111018800D02*
X106991000Y-111018800D01*
G75*
G02*
X107191000Y-111218800I0J-200000D01*
G01*
X107191000Y-111618800D01*
G75*
G02*
X106991000Y-111818800I-200000J0D01*
G01*
X105491000Y-111818800D01*
G75*
G02*
X105291000Y-111618800I0J200000D01*
G01*
X105291000Y-111218800D01*
G75*
G02*
X105491000Y-111018800I200000J0D01*
G01*
G37*
G36*
G01*
X105491000Y-110368800D02*
X106991000Y-110368800D01*
G75*
G02*
X107191000Y-110568800I0J-200000D01*
G01*
X107191000Y-110968800D01*
G75*
G02*
X106991000Y-111168800I-200000J0D01*
G01*
X105491000Y-111168800D01*
G75*
G02*
X105291000Y-110968800I0J200000D01*
G01*
X105291000Y-110568800D01*
G75*
G02*
X105491000Y-110368800I200000J0D01*
G01*
G37*
G36*
G01*
X105491000Y-109718800D02*
X106991000Y-109718800D01*
G75*
G02*
X107191000Y-109918800I0J-200000D01*
G01*
X107191000Y-110318800D01*
G75*
G02*
X106991000Y-110518800I-200000J0D01*
G01*
X105491000Y-110518800D01*
G75*
G02*
X105291000Y-110318800I0J200000D01*
G01*
X105291000Y-109918800D01*
G75*
G02*
X105491000Y-109718800I200000J0D01*
G01*
G37*
G36*
G01*
X105491000Y-109068800D02*
X106991000Y-109068800D01*
G75*
G02*
X107191000Y-109268800I0J-200000D01*
G01*
X107191000Y-109668800D01*
G75*
G02*
X106991000Y-109868800I-200000J0D01*
G01*
X105491000Y-109868800D01*
G75*
G02*
X105291000Y-109668800I0J200000D01*
G01*
X105291000Y-109268800D01*
G75*
G02*
X105491000Y-109068800I200000J0D01*
G01*
G37*
G36*
G01*
X105491000Y-108418800D02*
X106991000Y-108418800D01*
G75*
G02*
X107191000Y-108618800I0J-200000D01*
G01*
X107191000Y-109018800D01*
G75*
G02*
X106991000Y-109218800I-200000J0D01*
G01*
X105491000Y-109218800D01*
G75*
G02*
X105291000Y-109018800I0J200000D01*
G01*
X105291000Y-108618800D01*
G75*
G02*
X105491000Y-108418800I200000J0D01*
G01*
G37*
G36*
G01*
X105491000Y-107768800D02*
X106991000Y-107768800D01*
G75*
G02*
X107191000Y-107968800I0J-200000D01*
G01*
X107191000Y-108368800D01*
G75*
G02*
X106991000Y-108568800I-200000J0D01*
G01*
X105491000Y-108568800D01*
G75*
G02*
X105291000Y-108368800I0J200000D01*
G01*
X105291000Y-107968800D01*
G75*
G02*
X105491000Y-107768800I200000J0D01*
G01*
G37*
G36*
G01*
X105491000Y-107118800D02*
X106991000Y-107118800D01*
G75*
G02*
X107191000Y-107318800I0J-200000D01*
G01*
X107191000Y-107718800D01*
G75*
G02*
X106991000Y-107918800I-200000J0D01*
G01*
X105491000Y-107918800D01*
G75*
G02*
X105291000Y-107718800I0J200000D01*
G01*
X105291000Y-107318800D01*
G75*
G02*
X105491000Y-107118800I200000J0D01*
G01*
G37*
G36*
G01*
X105491000Y-106468800D02*
X106991000Y-106468800D01*
G75*
G02*
X107191000Y-106668800I0J-200000D01*
G01*
X107191000Y-107068800D01*
G75*
G02*
X106991000Y-107268800I-200000J0D01*
G01*
X105491000Y-107268800D01*
G75*
G02*
X105291000Y-107068800I0J200000D01*
G01*
X105291000Y-106668800D01*
G75*
G02*
X105491000Y-106468800I200000J0D01*
G01*
G37*
G36*
G01*
X105491000Y-105818800D02*
X106991000Y-105818800D01*
G75*
G02*
X107191000Y-106018800I0J-200000D01*
G01*
X107191000Y-106418800D01*
G75*
G02*
X106991000Y-106618800I-200000J0D01*
G01*
X105491000Y-106618800D01*
G75*
G02*
X105291000Y-106418800I0J200000D01*
G01*
X105291000Y-106018800D01*
G75*
G02*
X105491000Y-105818800I200000J0D01*
G01*
G37*
G36*
G01*
X135591900Y-132283900D02*
X136111900Y-132283900D01*
G75*
G02*
X136371900Y-132543900I0J-260000D01*
G01*
X136371900Y-133138900D01*
G75*
G02*
X136111900Y-133398900I-260000J0D01*
G01*
X135591900Y-133398900D01*
G75*
G02*
X135331900Y-133138900I0J260000D01*
G01*
X135331900Y-132543900D01*
G75*
G02*
X135591900Y-132283900I260000J0D01*
G01*
G37*
G36*
G01*
X135591900Y-133478900D02*
X136111900Y-133478900D01*
G75*
G02*
X136371900Y-133738900I0J-260000D01*
G01*
X136371900Y-134333900D01*
G75*
G02*
X136111900Y-134593900I-260000J0D01*
G01*
X135591900Y-134593900D01*
G75*
G02*
X135331900Y-134333900I0J260000D01*
G01*
X135331900Y-133738900D01*
G75*
G02*
X135591900Y-133478900I260000J0D01*
G01*
G37*
G36*
G01*
X91830400Y-123980500D02*
X91830400Y-122780500D01*
G75*
G02*
X92030400Y-122580500I200000J0D01*
G01*
X92930400Y-122580500D01*
G75*
G02*
X93130400Y-122780500I0J-200000D01*
G01*
X93130400Y-123980500D01*
G75*
G02*
X92930400Y-124180500I-200000J0D01*
G01*
X92030400Y-124180500D01*
G75*
G02*
X91830400Y-123980500I0J200000D01*
G01*
G37*
G36*
G01*
X88530400Y-123980500D02*
X88530400Y-122780500D01*
G75*
G02*
X88730400Y-122580500I200000J0D01*
G01*
X89630400Y-122580500D01*
G75*
G02*
X89830400Y-122780500I0J-200000D01*
G01*
X89830400Y-123980500D01*
G75*
G02*
X89630400Y-124180500I-200000J0D01*
G01*
X88730400Y-124180500D01*
G75*
G02*
X88530400Y-123980500I0J200000D01*
G01*
G37*
G36*
G01*
X109881100Y-132238600D02*
X108381100Y-132238600D01*
G75*
G02*
X108181100Y-132038600I0J200000D01*
G01*
X108181100Y-130038600D01*
G75*
G02*
X108381100Y-129838600I200000J0D01*
G01*
X109881100Y-129838600D01*
G75*
G02*
X110081100Y-130038600I0J-200000D01*
G01*
X110081100Y-132038600D01*
G75*
G02*
X109881100Y-132238600I-200000J0D01*
G01*
G37*
G36*
G01*
X114481100Y-132238600D02*
X112981100Y-132238600D01*
G75*
G02*
X112781100Y-132038600I0J200000D01*
G01*
X112781100Y-130038600D01*
G75*
G02*
X112981100Y-129838600I200000J0D01*
G01*
X114481100Y-129838600D01*
G75*
G02*
X114681100Y-130038600I0J-200000D01*
G01*
X114681100Y-132038600D01*
G75*
G02*
X114481100Y-132238600I-200000J0D01*
G01*
G37*
G36*
G01*
X112181100Y-132238600D02*
X110681100Y-132238600D01*
G75*
G02*
X110481100Y-132038600I0J200000D01*
G01*
X110481100Y-130038600D01*
G75*
G02*
X110681100Y-129838600I200000J0D01*
G01*
X112181100Y-129838600D01*
G75*
G02*
X112381100Y-130038600I0J-200000D01*
G01*
X112381100Y-132038600D01*
G75*
G02*
X112181100Y-132238600I-200000J0D01*
G01*
G37*
G36*
G01*
X113331100Y-125938600D02*
X109531100Y-125938600D01*
G75*
G02*
X109331100Y-125738600I0J200000D01*
G01*
X109331100Y-123738600D01*
G75*
G02*
X109531100Y-123538600I200000J0D01*
G01*
X113331100Y-123538600D01*
G75*
G02*
X113531100Y-123738600I0J-200000D01*
G01*
X113531100Y-125738600D01*
G75*
G02*
X113331100Y-125938600I-200000J0D01*
G01*
G37*
G36*
G01*
X103857300Y-101272900D02*
X103857300Y-100072900D01*
G75*
G02*
X104057300Y-99872900I200000J0D01*
G01*
X104957300Y-99872900D01*
G75*
G02*
X105157300Y-100072900I0J-200000D01*
G01*
X105157300Y-101272900D01*
G75*
G02*
X104957300Y-101472900I-200000J0D01*
G01*
X104057300Y-101472900D01*
G75*
G02*
X103857300Y-101272900I0J200000D01*
G01*
G37*
G36*
G01*
X100557300Y-101272900D02*
X100557300Y-100072900D01*
G75*
G02*
X100757300Y-99872900I200000J0D01*
G01*
X101657300Y-99872900D01*
G75*
G02*
X101857300Y-100072900I0J-200000D01*
G01*
X101857300Y-101272900D01*
G75*
G02*
X101657300Y-101472900I-200000J0D01*
G01*
X100757300Y-101472900D01*
G75*
G02*
X100557300Y-101272900I0J200000D01*
G01*
G37*
G36*
G01*
X101832900Y-97863100D02*
X101832900Y-99063100D01*
G75*
G02*
X101632900Y-99263100I-200000J0D01*
G01*
X100732900Y-99263100D01*
G75*
G02*
X100532900Y-99063100I0J200000D01*
G01*
X100532900Y-97863100D01*
G75*
G02*
X100732900Y-97663100I200000J0D01*
G01*
X101632900Y-97663100D01*
G75*
G02*
X101832900Y-97863100I0J-200000D01*
G01*
G37*
G36*
G01*
X105132900Y-97863100D02*
X105132900Y-99063100D01*
G75*
G02*
X104932900Y-99263100I-200000J0D01*
G01*
X104032900Y-99263100D01*
G75*
G02*
X103832900Y-99063100I0J200000D01*
G01*
X103832900Y-97863100D01*
G75*
G02*
X104032900Y-97663100I200000J0D01*
G01*
X104932900Y-97663100D01*
G75*
G02*
X105132900Y-97863100I0J-200000D01*
G01*
G37*
G36*
G01*
X130413200Y-87626700D02*
X131613200Y-87626700D01*
G75*
G02*
X131813200Y-87826700I0J-200000D01*
G01*
X131813200Y-88726700D01*
G75*
G02*
X131613200Y-88926700I-200000J0D01*
G01*
X130413200Y-88926700D01*
G75*
G02*
X130213200Y-88726700I0J200000D01*
G01*
X130213200Y-87826700D01*
G75*
G02*
X130413200Y-87626700I200000J0D01*
G01*
G37*
G36*
G01*
X130413200Y-84326700D02*
X131613200Y-84326700D01*
G75*
G02*
X131813200Y-84526700I0J-200000D01*
G01*
X131813200Y-85426700D01*
G75*
G02*
X131613200Y-85626700I-200000J0D01*
G01*
X130413200Y-85626700D01*
G75*
G02*
X130213200Y-85426700I0J200000D01*
G01*
X130213200Y-84526700D01*
G75*
G02*
X130413200Y-84326700I200000J0D01*
G01*
G37*
G36*
G01*
X104173900Y-124739400D02*
X104173900Y-126009400D01*
G75*
G02*
X103973900Y-126209400I-200000J0D01*
G01*
X103213900Y-126209400D01*
G75*
G02*
X103013900Y-126009400I0J200000D01*
G01*
X103013900Y-124739400D01*
G75*
G02*
X103213900Y-124539400I200000J0D01*
G01*
X103973900Y-124539400D01*
G75*
G02*
X104173900Y-124739400I0J-200000D01*
G01*
G37*
G36*
G01*
X102903900Y-124739400D02*
X102903900Y-126009400D01*
G75*
G02*
X102703900Y-126209400I-200000J0D01*
G01*
X101943900Y-126209400D01*
G75*
G02*
X101743900Y-126009400I0J200000D01*
G01*
X101743900Y-124739400D01*
G75*
G02*
X101943900Y-124539400I200000J0D01*
G01*
X102703900Y-124539400D01*
G75*
G02*
X102903900Y-124739400I0J-200000D01*
G01*
G37*
G36*
G01*
X101633900Y-124739400D02*
X101633900Y-126009400D01*
G75*
G02*
X101433900Y-126209400I-200000J0D01*
G01*
X100673900Y-126209400D01*
G75*
G02*
X100473900Y-126009400I0J200000D01*
G01*
X100473900Y-124739400D01*
G75*
G02*
X100673900Y-124539400I200000J0D01*
G01*
X101433900Y-124539400D01*
G75*
G02*
X101633900Y-124739400I0J-200000D01*
G01*
G37*
G36*
G01*
X100363900Y-124739400D02*
X100363900Y-126009400D01*
G75*
G02*
X100163900Y-126209400I-200000J0D01*
G01*
X99403900Y-126209400D01*
G75*
G02*
X99203900Y-126009400I0J200000D01*
G01*
X99203900Y-124739400D01*
G75*
G02*
X99403900Y-124539400I200000J0D01*
G01*
X100163900Y-124539400D01*
G75*
G02*
X100363900Y-124739400I0J-200000D01*
G01*
G37*
G36*
G01*
X100363900Y-117119400D02*
X100363900Y-118389400D01*
G75*
G02*
X100163900Y-118589400I-200000J0D01*
G01*
X99403900Y-118589400D01*
G75*
G02*
X99203900Y-118389400I0J200000D01*
G01*
X99203900Y-117119400D01*
G75*
G02*
X99403900Y-116919400I200000J0D01*
G01*
X100163900Y-116919400D01*
G75*
G02*
X100363900Y-117119400I0J-200000D01*
G01*
G37*
G36*
G01*
X101633900Y-117119400D02*
X101633900Y-118389400D01*
G75*
G02*
X101433900Y-118589400I-200000J0D01*
G01*
X100673900Y-118589400D01*
G75*
G02*
X100473900Y-118389400I0J200000D01*
G01*
X100473900Y-117119400D01*
G75*
G02*
X100673900Y-116919400I200000J0D01*
G01*
X101433900Y-116919400D01*
G75*
G02*
X101633900Y-117119400I0J-200000D01*
G01*
G37*
G36*
G01*
X102903900Y-117119400D02*
X102903900Y-118389400D01*
G75*
G02*
X102703900Y-118589400I-200000J0D01*
G01*
X101943900Y-118589400D01*
G75*
G02*
X101743900Y-118389400I0J200000D01*
G01*
X101743900Y-117119400D01*
G75*
G02*
X101943900Y-116919400I200000J0D01*
G01*
X102703900Y-116919400D01*
G75*
G02*
X102903900Y-117119400I0J-200000D01*
G01*
G37*
G36*
G01*
X104173900Y-117119400D02*
X104173900Y-118389400D01*
G75*
G02*
X103973900Y-118589400I-200000J0D01*
G01*
X103213900Y-118589400D01*
G75*
G02*
X103013900Y-118389400I0J200000D01*
G01*
X103013900Y-117119400D01*
G75*
G02*
X103213900Y-116919400I200000J0D01*
G01*
X103973900Y-116919400D01*
G75*
G02*
X104173900Y-117119400I0J-200000D01*
G01*
G37*
G36*
G01*
X160090300Y-129105400D02*
X160090300Y-130035400D01*
G75*
G02*
X159890300Y-130235400I-200000J0D01*
G01*
X158440300Y-130235400D01*
G75*
G02*
X158240300Y-130035400I0J200000D01*
G01*
X158240300Y-129105400D01*
G75*
G02*
X158440300Y-128905400I200000J0D01*
G01*
X159890300Y-128905400D01*
G75*
G02*
X160090300Y-129105400I0J-200000D01*
G01*
G37*
G36*
G01*
X160090300Y-127835400D02*
X160090300Y-128765400D01*
G75*
G02*
X159890300Y-128965400I-200000J0D01*
G01*
X158440300Y-128965400D01*
G75*
G02*
X158240300Y-128765400I0J200000D01*
G01*
X158240300Y-127835400D01*
G75*
G02*
X158440300Y-127635400I200000J0D01*
G01*
X159890300Y-127635400D01*
G75*
G02*
X160090300Y-127835400I0J-200000D01*
G01*
G37*
G36*
G01*
X160090300Y-126565400D02*
X160090300Y-127495400D01*
G75*
G02*
X159890300Y-127695400I-200000J0D01*
G01*
X158440300Y-127695400D01*
G75*
G02*
X158240300Y-127495400I0J200000D01*
G01*
X158240300Y-126565400D01*
G75*
G02*
X158440300Y-126365400I200000J0D01*
G01*
X159890300Y-126365400D01*
G75*
G02*
X160090300Y-126565400I0J-200000D01*
G01*
G37*
G36*
G01*
X160090300Y-125295400D02*
X160090300Y-126225400D01*
G75*
G02*
X159890300Y-126425400I-200000J0D01*
G01*
X158440300Y-126425400D01*
G75*
G02*
X158240300Y-126225400I0J200000D01*
G01*
X158240300Y-125295400D01*
G75*
G02*
X158440300Y-125095400I200000J0D01*
G01*
X159890300Y-125095400D01*
G75*
G02*
X160090300Y-125295400I0J-200000D01*
G01*
G37*
G36*
G01*
X160090300Y-124025400D02*
X160090300Y-124955400D01*
G75*
G02*
X159890300Y-125155400I-200000J0D01*
G01*
X158440300Y-125155400D01*
G75*
G02*
X158240300Y-124955400I0J200000D01*
G01*
X158240300Y-124025400D01*
G75*
G02*
X158440300Y-123825400I200000J0D01*
G01*
X159890300Y-123825400D01*
G75*
G02*
X160090300Y-124025400I0J-200000D01*
G01*
G37*
G36*
G01*
X160090300Y-122755400D02*
X160090300Y-123685400D01*
G75*
G02*
X159890300Y-123885400I-200000J0D01*
G01*
X158440300Y-123885400D01*
G75*
G02*
X158240300Y-123685400I0J200000D01*
G01*
X158240300Y-122755400D01*
G75*
G02*
X158440300Y-122555400I200000J0D01*
G01*
X159890300Y-122555400D01*
G75*
G02*
X160090300Y-122755400I0J-200000D01*
G01*
G37*
G36*
G01*
X160090300Y-121485400D02*
X160090300Y-122415400D01*
G75*
G02*
X159890300Y-122615400I-200000J0D01*
G01*
X158440300Y-122615400D01*
G75*
G02*
X158240300Y-122415400I0J200000D01*
G01*
X158240300Y-121485400D01*
G75*
G02*
X158440300Y-121285400I200000J0D01*
G01*
X159890300Y-121285400D01*
G75*
G02*
X160090300Y-121485400I0J-200000D01*
G01*
G37*
G36*
G01*
X160090300Y-120215400D02*
X160090300Y-121145400D01*
G75*
G02*
X159890300Y-121345400I-200000J0D01*
G01*
X158440300Y-121345400D01*
G75*
G02*
X158240300Y-121145400I0J200000D01*
G01*
X158240300Y-120215400D01*
G75*
G02*
X158440300Y-120015400I200000J0D01*
G01*
X159890300Y-120015400D01*
G75*
G02*
X160090300Y-120215400I0J-200000D01*
G01*
G37*
G36*
G01*
X160090300Y-118945400D02*
X160090300Y-119875400D01*
G75*
G02*
X159890300Y-120075400I-200000J0D01*
G01*
X158440300Y-120075400D01*
G75*
G02*
X158240300Y-119875400I0J200000D01*
G01*
X158240300Y-118945400D01*
G75*
G02*
X158440300Y-118745400I200000J0D01*
G01*
X159890300Y-118745400D01*
G75*
G02*
X160090300Y-118945400I0J-200000D01*
G01*
G37*
G36*
G01*
X160090300Y-117675400D02*
X160090300Y-118605400D01*
G75*
G02*
X159890300Y-118805400I-200000J0D01*
G01*
X158440300Y-118805400D01*
G75*
G02*
X158240300Y-118605400I0J200000D01*
G01*
X158240300Y-117675400D01*
G75*
G02*
X158440300Y-117475400I200000J0D01*
G01*
X159890300Y-117475400D01*
G75*
G02*
X160090300Y-117675400I0J-200000D01*
G01*
G37*
G36*
G01*
X160090300Y-116405400D02*
X160090300Y-117335400D01*
G75*
G02*
X159890300Y-117535400I-200000J0D01*
G01*
X158440300Y-117535400D01*
G75*
G02*
X158240300Y-117335400I0J200000D01*
G01*
X158240300Y-116405400D01*
G75*
G02*
X158440300Y-116205400I200000J0D01*
G01*
X159890300Y-116205400D01*
G75*
G02*
X160090300Y-116405400I0J-200000D01*
G01*
G37*
G36*
G01*
X160090300Y-115135400D02*
X160090300Y-116065400D01*
G75*
G02*
X159890300Y-116265400I-200000J0D01*
G01*
X158440300Y-116265400D01*
G75*
G02*
X158240300Y-116065400I0J200000D01*
G01*
X158240300Y-115135400D01*
G75*
G02*
X158440300Y-114935400I200000J0D01*
G01*
X159890300Y-114935400D01*
G75*
G02*
X160090300Y-115135400I0J-200000D01*
G01*
G37*
G36*
G01*
X160090300Y-113865400D02*
X160090300Y-114795400D01*
G75*
G02*
X159890300Y-114995400I-200000J0D01*
G01*
X158440300Y-114995400D01*
G75*
G02*
X158240300Y-114795400I0J200000D01*
G01*
X158240300Y-113865400D01*
G75*
G02*
X158440300Y-113665400I200000J0D01*
G01*
X159890300Y-113665400D01*
G75*
G02*
X160090300Y-113865400I0J-200000D01*
G01*
G37*
G36*
G01*
X160090300Y-112595400D02*
X160090300Y-113525400D01*
G75*
G02*
X159890300Y-113725400I-200000J0D01*
G01*
X158440300Y-113725400D01*
G75*
G02*
X158240300Y-113525400I0J200000D01*
G01*
X158240300Y-112595400D01*
G75*
G02*
X158440300Y-112395400I200000J0D01*
G01*
X159890300Y-112395400D01*
G75*
G02*
X160090300Y-112595400I0J-200000D01*
G01*
G37*
G36*
G01*
X160090300Y-111325400D02*
X160090300Y-112255400D01*
G75*
G02*
X159890300Y-112455400I-200000J0D01*
G01*
X158440300Y-112455400D01*
G75*
G02*
X158240300Y-112255400I0J200000D01*
G01*
X158240300Y-111325400D01*
G75*
G02*
X158440300Y-111125400I200000J0D01*
G01*
X159890300Y-111125400D01*
G75*
G02*
X160090300Y-111325400I0J-200000D01*
G01*
G37*
G36*
G01*
X160090300Y-110055400D02*
X160090300Y-110985400D01*
G75*
G02*
X159890300Y-111185400I-200000J0D01*
G01*
X158440300Y-111185400D01*
G75*
G02*
X158240300Y-110985400I0J200000D01*
G01*
X158240300Y-110055400D01*
G75*
G02*
X158440300Y-109855400I200000J0D01*
G01*
X159890300Y-109855400D01*
G75*
G02*
X160090300Y-110055400I0J-200000D01*
G01*
G37*
G36*
G01*
X160090300Y-108785400D02*
X160090300Y-109715400D01*
G75*
G02*
X159890300Y-109915400I-200000J0D01*
G01*
X158440300Y-109915400D01*
G75*
G02*
X158240300Y-109715400I0J200000D01*
G01*
X158240300Y-108785400D01*
G75*
G02*
X158440300Y-108585400I200000J0D01*
G01*
X159890300Y-108585400D01*
G75*
G02*
X160090300Y-108785400I0J-200000D01*
G01*
G37*
G36*
G01*
X160090300Y-107515400D02*
X160090300Y-108445400D01*
G75*
G02*
X159890300Y-108645400I-200000J0D01*
G01*
X158440300Y-108645400D01*
G75*
G02*
X158240300Y-108445400I0J200000D01*
G01*
X158240300Y-107515400D01*
G75*
G02*
X158440300Y-107315400I200000J0D01*
G01*
X159890300Y-107315400D01*
G75*
G02*
X160090300Y-107515400I0J-200000D01*
G01*
G37*
G36*
G01*
X160090300Y-106245400D02*
X160090300Y-107175400D01*
G75*
G02*
X159890300Y-107375400I-200000J0D01*
G01*
X158440300Y-107375400D01*
G75*
G02*
X158240300Y-107175400I0J200000D01*
G01*
X158240300Y-106245400D01*
G75*
G02*
X158440300Y-106045400I200000J0D01*
G01*
X159890300Y-106045400D01*
G75*
G02*
X160090300Y-106245400I0J-200000D01*
G01*
G37*
G36*
G01*
X142470300Y-106245400D02*
X142470300Y-107175400D01*
G75*
G02*
X142270300Y-107375400I-200000J0D01*
G01*
X140820300Y-107375400D01*
G75*
G02*
X140620300Y-107175400I0J200000D01*
G01*
X140620300Y-106245400D01*
G75*
G02*
X140820300Y-106045400I200000J0D01*
G01*
X142270300Y-106045400D01*
G75*
G02*
X142470300Y-106245400I0J-200000D01*
G01*
G37*
G36*
G01*
X142470300Y-107515400D02*
X142470300Y-108445400D01*
G75*
G02*
X142270300Y-108645400I-200000J0D01*
G01*
X140820300Y-108645400D01*
G75*
G02*
X140620300Y-108445400I0J200000D01*
G01*
X140620300Y-107515400D01*
G75*
G02*
X140820300Y-107315400I200000J0D01*
G01*
X142270300Y-107315400D01*
G75*
G02*
X142470300Y-107515400I0J-200000D01*
G01*
G37*
G36*
G01*
X142470300Y-108785400D02*
X142470300Y-109715400D01*
G75*
G02*
X142270300Y-109915400I-200000J0D01*
G01*
X140820300Y-109915400D01*
G75*
G02*
X140620300Y-109715400I0J200000D01*
G01*
X140620300Y-108785400D01*
G75*
G02*
X140820300Y-108585400I200000J0D01*
G01*
X142270300Y-108585400D01*
G75*
G02*
X142470300Y-108785400I0J-200000D01*
G01*
G37*
G36*
G01*
X142470300Y-110055400D02*
X142470300Y-110985400D01*
G75*
G02*
X142270300Y-111185400I-200000J0D01*
G01*
X140820300Y-111185400D01*
G75*
G02*
X140620300Y-110985400I0J200000D01*
G01*
X140620300Y-110055400D01*
G75*
G02*
X140820300Y-109855400I200000J0D01*
G01*
X142270300Y-109855400D01*
G75*
G02*
X142470300Y-110055400I0J-200000D01*
G01*
G37*
G36*
G01*
X142470300Y-111325400D02*
X142470300Y-112255400D01*
G75*
G02*
X142270300Y-112455400I-200000J0D01*
G01*
X140820300Y-112455400D01*
G75*
G02*
X140620300Y-112255400I0J200000D01*
G01*
X140620300Y-111325400D01*
G75*
G02*
X140820300Y-111125400I200000J0D01*
G01*
X142270300Y-111125400D01*
G75*
G02*
X142470300Y-111325400I0J-200000D01*
G01*
G37*
G36*
G01*
X142470300Y-112595400D02*
X142470300Y-113525400D01*
G75*
G02*
X142270300Y-113725400I-200000J0D01*
G01*
X140820300Y-113725400D01*
G75*
G02*
X140620300Y-113525400I0J200000D01*
G01*
X140620300Y-112595400D01*
G75*
G02*
X140820300Y-112395400I200000J0D01*
G01*
X142270300Y-112395400D01*
G75*
G02*
X142470300Y-112595400I0J-200000D01*
G01*
G37*
G36*
G01*
X142470300Y-113865400D02*
X142470300Y-114795400D01*
G75*
G02*
X142270300Y-114995400I-200000J0D01*
G01*
X140820300Y-114995400D01*
G75*
G02*
X140620300Y-114795400I0J200000D01*
G01*
X140620300Y-113865400D01*
G75*
G02*
X140820300Y-113665400I200000J0D01*
G01*
X142270300Y-113665400D01*
G75*
G02*
X142470300Y-113865400I0J-200000D01*
G01*
G37*
G36*
G01*
X142470300Y-115135400D02*
X142470300Y-116065400D01*
G75*
G02*
X142270300Y-116265400I-200000J0D01*
G01*
X140820300Y-116265400D01*
G75*
G02*
X140620300Y-116065400I0J200000D01*
G01*
X140620300Y-115135400D01*
G75*
G02*
X140820300Y-114935400I200000J0D01*
G01*
X142270300Y-114935400D01*
G75*
G02*
X142470300Y-115135400I0J-200000D01*
G01*
G37*
G36*
G01*
X142470300Y-116405400D02*
X142470300Y-117335400D01*
G75*
G02*
X142270300Y-117535400I-200000J0D01*
G01*
X140820300Y-117535400D01*
G75*
G02*
X140620300Y-117335400I0J200000D01*
G01*
X140620300Y-116405400D01*
G75*
G02*
X140820300Y-116205400I200000J0D01*
G01*
X142270300Y-116205400D01*
G75*
G02*
X142470300Y-116405400I0J-200000D01*
G01*
G37*
G36*
G01*
X142470300Y-117675400D02*
X142470300Y-118605400D01*
G75*
G02*
X142270300Y-118805400I-200000J0D01*
G01*
X140820300Y-118805400D01*
G75*
G02*
X140620300Y-118605400I0J200000D01*
G01*
X140620300Y-117675400D01*
G75*
G02*
X140820300Y-117475400I200000J0D01*
G01*
X142270300Y-117475400D01*
G75*
G02*
X142470300Y-117675400I0J-200000D01*
G01*
G37*
G36*
G01*
X142470300Y-118945400D02*
X142470300Y-119875400D01*
G75*
G02*
X142270300Y-120075400I-200000J0D01*
G01*
X140820300Y-120075400D01*
G75*
G02*
X140620300Y-119875400I0J200000D01*
G01*
X140620300Y-118945400D01*
G75*
G02*
X140820300Y-118745400I200000J0D01*
G01*
X142270300Y-118745400D01*
G75*
G02*
X142470300Y-118945400I0J-200000D01*
G01*
G37*
G36*
G01*
X142470300Y-120215400D02*
X142470300Y-121145400D01*
G75*
G02*
X142270300Y-121345400I-200000J0D01*
G01*
X140820300Y-121345400D01*
G75*
G02*
X140620300Y-121145400I0J200000D01*
G01*
X140620300Y-120215400D01*
G75*
G02*
X140820300Y-120015400I200000J0D01*
G01*
X142270300Y-120015400D01*
G75*
G02*
X142470300Y-120215400I0J-200000D01*
G01*
G37*
G36*
G01*
X142470300Y-121485400D02*
X142470300Y-122415400D01*
G75*
G02*
X142270300Y-122615400I-200000J0D01*
G01*
X140820300Y-122615400D01*
G75*
G02*
X140620300Y-122415400I0J200000D01*
G01*
X140620300Y-121485400D01*
G75*
G02*
X140820300Y-121285400I200000J0D01*
G01*
X142270300Y-121285400D01*
G75*
G02*
X142470300Y-121485400I0J-200000D01*
G01*
G37*
G36*
G01*
X142470300Y-122755400D02*
X142470300Y-123685400D01*
G75*
G02*
X142270300Y-123885400I-200000J0D01*
G01*
X140820300Y-123885400D01*
G75*
G02*
X140620300Y-123685400I0J200000D01*
G01*
X140620300Y-122755400D01*
G75*
G02*
X140820300Y-122555400I200000J0D01*
G01*
X142270300Y-122555400D01*
G75*
G02*
X142470300Y-122755400I0J-200000D01*
G01*
G37*
G36*
G01*
X142470300Y-124025400D02*
X142470300Y-124955400D01*
G75*
G02*
X142270300Y-125155400I-200000J0D01*
G01*
X140820300Y-125155400D01*
G75*
G02*
X140620300Y-124955400I0J200000D01*
G01*
X140620300Y-124025400D01*
G75*
G02*
X140820300Y-123825400I200000J0D01*
G01*
X142270300Y-123825400D01*
G75*
G02*
X142470300Y-124025400I0J-200000D01*
G01*
G37*
G36*
G01*
X142470300Y-125295400D02*
X142470300Y-126225400D01*
G75*
G02*
X142270300Y-126425400I-200000J0D01*
G01*
X140820300Y-126425400D01*
G75*
G02*
X140620300Y-126225400I0J200000D01*
G01*
X140620300Y-125295400D01*
G75*
G02*
X140820300Y-125095400I200000J0D01*
G01*
X142270300Y-125095400D01*
G75*
G02*
X142470300Y-125295400I0J-200000D01*
G01*
G37*
G36*
G01*
X142470300Y-126565400D02*
X142470300Y-127495400D01*
G75*
G02*
X142270300Y-127695400I-200000J0D01*
G01*
X140820300Y-127695400D01*
G75*
G02*
X140620300Y-127495400I0J200000D01*
G01*
X140620300Y-126565400D01*
G75*
G02*
X140820300Y-126365400I200000J0D01*
G01*
X142270300Y-126365400D01*
G75*
G02*
X142470300Y-126565400I0J-200000D01*
G01*
G37*
G36*
G01*
X142470300Y-127835400D02*
X142470300Y-128765400D01*
G75*
G02*
X142270300Y-128965400I-200000J0D01*
G01*
X140820300Y-128965400D01*
G75*
G02*
X140620300Y-128765400I0J200000D01*
G01*
X140620300Y-127835400D01*
G75*
G02*
X140820300Y-127635400I200000J0D01*
G01*
X142270300Y-127635400D01*
G75*
G02*
X142470300Y-127835400I0J-200000D01*
G01*
G37*
G36*
G01*
X142470300Y-129105400D02*
X142470300Y-130035400D01*
G75*
G02*
X142270300Y-130235400I-200000J0D01*
G01*
X140820300Y-130235400D01*
G75*
G02*
X140620300Y-130035400I0J200000D01*
G01*
X140620300Y-129105400D01*
G75*
G02*
X140820300Y-128905400I200000J0D01*
G01*
X142270300Y-128905400D01*
G75*
G02*
X142470300Y-129105400I0J-200000D01*
G01*
G37*
G36*
G01*
X153935300Y-119780400D02*
X153935300Y-123780400D01*
G75*
G02*
X153735300Y-123980400I-200000J0D01*
G01*
X149735300Y-123980400D01*
G75*
G02*
X149535300Y-123780400I0J200000D01*
G01*
X149535300Y-119780400D01*
G75*
G02*
X149735300Y-119580400I200000J0D01*
G01*
X153735300Y-119580400D01*
G75*
G02*
X153935300Y-119780400I0J-200000D01*
G01*
G37*
D10*
X140106400Y-96202500D03*
X137566400Y-96202500D03*
X135026400Y-96202500D03*
X132486400Y-96202500D03*
X129946400Y-96202500D03*
X127406400Y-96202500D03*
G36*
G01*
X124016400Y-95152500D02*
X125716400Y-95152500D01*
G75*
G02*
X125916400Y-95352500I0J-200000D01*
G01*
X125916400Y-97052500D01*
G75*
G02*
X125716400Y-97252500I-200000J0D01*
G01*
X124016400Y-97252500D01*
G75*
G02*
X123816400Y-97052500I0J200000D01*
G01*
X123816400Y-95352500D01*
G75*
G02*
X124016400Y-95152500I200000J0D01*
G01*
G37*
G36*
G01*
X117469000Y-109818800D02*
X117989000Y-109818800D01*
G75*
G02*
X118249000Y-110078800I0J-260000D01*
G01*
X118249000Y-110673800D01*
G75*
G02*
X117989000Y-110933800I-260000J0D01*
G01*
X117469000Y-110933800D01*
G75*
G02*
X117209000Y-110673800I0J260000D01*
G01*
X117209000Y-110078800D01*
G75*
G02*
X117469000Y-109818800I260000J0D01*
G01*
G37*
G36*
G01*
X117469000Y-108623800D02*
X117989000Y-108623800D01*
G75*
G02*
X118249000Y-108883800I0J-260000D01*
G01*
X118249000Y-109478800D01*
G75*
G02*
X117989000Y-109738800I-260000J0D01*
G01*
X117469000Y-109738800D01*
G75*
G02*
X117209000Y-109478800I0J260000D01*
G01*
X117209000Y-108883800D01*
G75*
G02*
X117469000Y-108623800I260000J0D01*
G01*
G37*
G36*
G01*
X94000000Y-106505300D02*
X93325000Y-106505300D01*
G75*
G02*
X92987500Y-106167800I0J337500D01*
G01*
X92987500Y-105367800D01*
G75*
G02*
X93325000Y-105030300I337500J0D01*
G01*
X94000000Y-105030300D01*
G75*
G02*
X94337500Y-105367800I0J-337500D01*
G01*
X94337500Y-106167800D01*
G75*
G02*
X94000000Y-106505300I-337500J0D01*
G01*
G37*
G36*
G01*
X94000000Y-108230300D02*
X93325000Y-108230300D01*
G75*
G02*
X92987500Y-107892800I0J337500D01*
G01*
X92987500Y-107092800D01*
G75*
G02*
X93325000Y-106755300I337500J0D01*
G01*
X94000000Y-106755300D01*
G75*
G02*
X94337500Y-107092800I0J-337500D01*
G01*
X94337500Y-107892800D01*
G75*
G02*
X94000000Y-108230300I-337500J0D01*
G01*
G37*
G36*
G01*
X100535100Y-116223700D02*
X100535100Y-115703700D01*
G75*
G02*
X100795100Y-115443700I260000J0D01*
G01*
X101390100Y-115443700D01*
G75*
G02*
X101650100Y-115703700I0J-260000D01*
G01*
X101650100Y-116223700D01*
G75*
G02*
X101390100Y-116483700I-260000J0D01*
G01*
X100795100Y-116483700D01*
G75*
G02*
X100535100Y-116223700I0J260000D01*
G01*
G37*
G36*
G01*
X99340100Y-116223700D02*
X99340100Y-115703700D01*
G75*
G02*
X99600100Y-115443700I260000J0D01*
G01*
X100195100Y-115443700D01*
G75*
G02*
X100455100Y-115703700I0J-260000D01*
G01*
X100455100Y-116223700D01*
G75*
G02*
X100195100Y-116483700I-260000J0D01*
G01*
X99600100Y-116483700D01*
G75*
G02*
X99340100Y-116223700I0J260000D01*
G01*
G37*
G36*
G01*
X133026500Y-87238200D02*
X133546500Y-87238200D01*
G75*
G02*
X133806500Y-87498200I0J-260000D01*
G01*
X133806500Y-88093200D01*
G75*
G02*
X133546500Y-88353200I-260000J0D01*
G01*
X133026500Y-88353200D01*
G75*
G02*
X132766500Y-88093200I0J260000D01*
G01*
X132766500Y-87498200D01*
G75*
G02*
X133026500Y-87238200I260000J0D01*
G01*
G37*
G36*
G01*
X133026500Y-86043200D02*
X133546500Y-86043200D01*
G75*
G02*
X133806500Y-86303200I0J-260000D01*
G01*
X133806500Y-86898200D01*
G75*
G02*
X133546500Y-87158200I-260000J0D01*
G01*
X133026500Y-87158200D01*
G75*
G02*
X132766500Y-86898200I0J260000D01*
G01*
X132766500Y-86303200D01*
G75*
G02*
X133026500Y-86043200I260000J0D01*
G01*
G37*
G36*
G01*
X128137000Y-87212800D02*
X128657000Y-87212800D01*
G75*
G02*
X128917000Y-87472800I0J-260000D01*
G01*
X128917000Y-88067800D01*
G75*
G02*
X128657000Y-88327800I-260000J0D01*
G01*
X128137000Y-88327800D01*
G75*
G02*
X127877000Y-88067800I0J260000D01*
G01*
X127877000Y-87472800D01*
G75*
G02*
X128137000Y-87212800I260000J0D01*
G01*
G37*
G36*
G01*
X128137000Y-86017800D02*
X128657000Y-86017800D01*
G75*
G02*
X128917000Y-86277800I0J-260000D01*
G01*
X128917000Y-86872800D01*
G75*
G02*
X128657000Y-87132800I-260000J0D01*
G01*
X128137000Y-87132800D01*
G75*
G02*
X127877000Y-86872800I0J260000D01*
G01*
X127877000Y-86277800D01*
G75*
G02*
X128137000Y-86017800I260000J0D01*
G01*
G37*
G36*
G01*
X121054500Y-92297600D02*
X121054500Y-92817600D01*
G75*
G02*
X120794500Y-93077600I-260000J0D01*
G01*
X120199500Y-93077600D01*
G75*
G02*
X119939500Y-92817600I0J260000D01*
G01*
X119939500Y-92297600D01*
G75*
G02*
X120199500Y-92037600I260000J0D01*
G01*
X120794500Y-92037600D01*
G75*
G02*
X121054500Y-92297600I0J-260000D01*
G01*
G37*
G36*
G01*
X122249500Y-92297600D02*
X122249500Y-92817600D01*
G75*
G02*
X121989500Y-93077600I-260000J0D01*
G01*
X121394500Y-93077600D01*
G75*
G02*
X121134500Y-92817600I0J260000D01*
G01*
X121134500Y-92297600D01*
G75*
G02*
X121394500Y-92037600I260000J0D01*
G01*
X121989500Y-92037600D01*
G75*
G02*
X122249500Y-92297600I0J-260000D01*
G01*
G37*
G36*
G01*
X136226900Y-130253100D02*
X136746900Y-130253100D01*
G75*
G02*
X137006900Y-130513100I0J-260000D01*
G01*
X137006900Y-131108100D01*
G75*
G02*
X136746900Y-131368100I-260000J0D01*
G01*
X136226900Y-131368100D01*
G75*
G02*
X135966900Y-131108100I0J260000D01*
G01*
X135966900Y-130513100D01*
G75*
G02*
X136226900Y-130253100I260000J0D01*
G01*
G37*
G36*
G01*
X136226900Y-129058100D02*
X136746900Y-129058100D01*
G75*
G02*
X137006900Y-129318100I0J-260000D01*
G01*
X137006900Y-129913100D01*
G75*
G02*
X136746900Y-130173100I-260000J0D01*
G01*
X136226900Y-130173100D01*
G75*
G02*
X135966900Y-129913100I0J260000D01*
G01*
X135966900Y-129318100D01*
G75*
G02*
X136226900Y-129058100I260000J0D01*
G01*
G37*
G36*
G01*
X135815700Y-128441100D02*
X135815700Y-127921100D01*
G75*
G02*
X136075700Y-127661100I260000J0D01*
G01*
X136670700Y-127661100D01*
G75*
G02*
X136930700Y-127921100I0J-260000D01*
G01*
X136930700Y-128441100D01*
G75*
G02*
X136670700Y-128701100I-260000J0D01*
G01*
X136075700Y-128701100D01*
G75*
G02*
X135815700Y-128441100I0J260000D01*
G01*
G37*
G36*
G01*
X134620700Y-128441100D02*
X134620700Y-127921100D01*
G75*
G02*
X134880700Y-127661100I260000J0D01*
G01*
X135475700Y-127661100D01*
G75*
G02*
X135735700Y-127921100I0J-260000D01*
G01*
X135735700Y-128441100D01*
G75*
G02*
X135475700Y-128701100I-260000J0D01*
G01*
X134880700Y-128701100D01*
G75*
G02*
X134620700Y-128441100I0J260000D01*
G01*
G37*
G36*
G01*
X99201600Y-129952400D02*
X99201600Y-129432400D01*
G75*
G02*
X99461600Y-129172400I260000J0D01*
G01*
X100056600Y-129172400D01*
G75*
G02*
X100316600Y-129432400I0J-260000D01*
G01*
X100316600Y-129952400D01*
G75*
G02*
X100056600Y-130212400I-260000J0D01*
G01*
X99461600Y-130212400D01*
G75*
G02*
X99201600Y-129952400I0J260000D01*
G01*
G37*
G36*
G01*
X98006600Y-129952400D02*
X98006600Y-129432400D01*
G75*
G02*
X98266600Y-129172400I260000J0D01*
G01*
X98861600Y-129172400D01*
G75*
G02*
X99121600Y-129432400I0J-260000D01*
G01*
X99121600Y-129952400D01*
G75*
G02*
X98861600Y-130212400I-260000J0D01*
G01*
X98266600Y-130212400D01*
G75*
G02*
X98006600Y-129952400I0J260000D01*
G01*
G37*
G36*
G01*
X92026700Y-130689000D02*
X92026700Y-130169000D01*
G75*
G02*
X92286700Y-129909000I260000J0D01*
G01*
X92881700Y-129909000D01*
G75*
G02*
X93141700Y-130169000I0J-260000D01*
G01*
X93141700Y-130689000D01*
G75*
G02*
X92881700Y-130949000I-260000J0D01*
G01*
X92286700Y-130949000D01*
G75*
G02*
X92026700Y-130689000I0J260000D01*
G01*
G37*
G36*
G01*
X90831700Y-130689000D02*
X90831700Y-130169000D01*
G75*
G02*
X91091700Y-129909000I260000J0D01*
G01*
X91686700Y-129909000D01*
G75*
G02*
X91946700Y-130169000I0J-260000D01*
G01*
X91946700Y-130689000D01*
G75*
G02*
X91686700Y-130949000I-260000J0D01*
G01*
X91091700Y-130949000D01*
G75*
G02*
X90831700Y-130689000I0J260000D01*
G01*
G37*
G36*
G01*
X132150200Y-126074200D02*
X132670200Y-126074200D01*
G75*
G02*
X132930200Y-126334200I0J-260000D01*
G01*
X132930200Y-126929200D01*
G75*
G02*
X132670200Y-127189200I-260000J0D01*
G01*
X132150200Y-127189200D01*
G75*
G02*
X131890200Y-126929200I0J260000D01*
G01*
X131890200Y-126334200D01*
G75*
G02*
X132150200Y-126074200I260000J0D01*
G01*
G37*
G36*
G01*
X132150200Y-124879200D02*
X132670200Y-124879200D01*
G75*
G02*
X132930200Y-125139200I0J-260000D01*
G01*
X132930200Y-125734200D01*
G75*
G02*
X132670200Y-125994200I-260000J0D01*
G01*
X132150200Y-125994200D01*
G75*
G02*
X131890200Y-125734200I0J260000D01*
G01*
X131890200Y-125139200D01*
G75*
G02*
X132150200Y-124879200I260000J0D01*
G01*
G37*
G36*
G01*
X130490000Y-126371700D02*
X130490000Y-126891700D01*
G75*
G02*
X130230000Y-127151700I-260000J0D01*
G01*
X129635000Y-127151700D01*
G75*
G02*
X129375000Y-126891700I0J260000D01*
G01*
X129375000Y-126371700D01*
G75*
G02*
X129635000Y-126111700I260000J0D01*
G01*
X130230000Y-126111700D01*
G75*
G02*
X130490000Y-126371700I0J-260000D01*
G01*
G37*
G36*
G01*
X131685000Y-126371700D02*
X131685000Y-126891700D01*
G75*
G02*
X131425000Y-127151700I-260000J0D01*
G01*
X130830000Y-127151700D01*
G75*
G02*
X130570000Y-126891700I0J260000D01*
G01*
X130570000Y-126371700D01*
G75*
G02*
X130830000Y-126111700I260000J0D01*
G01*
X131425000Y-126111700D01*
G75*
G02*
X131685000Y-126371700I0J-260000D01*
G01*
G37*
G36*
G01*
X124796500Y-88715100D02*
X123996500Y-88715100D01*
G75*
G02*
X123796500Y-88515100I0J200000D01*
G01*
X123796500Y-86615100D01*
G75*
G02*
X123996500Y-86415100I200000J0D01*
G01*
X124796500Y-86415100D01*
G75*
G02*
X124996500Y-86615100I0J-200000D01*
G01*
X124996500Y-88515100D01*
G75*
G02*
X124796500Y-88715100I-200000J0D01*
G01*
G37*
G36*
G01*
X125746500Y-91715100D02*
X124946500Y-91715100D01*
G75*
G02*
X124746500Y-91515100I0J200000D01*
G01*
X124746500Y-89615100D01*
G75*
G02*
X124946500Y-89415100I200000J0D01*
G01*
X125746500Y-89415100D01*
G75*
G02*
X125946500Y-89615100I0J-200000D01*
G01*
X125946500Y-91515100D01*
G75*
G02*
X125746500Y-91715100I-200000J0D01*
G01*
G37*
G36*
G01*
X123846500Y-91715100D02*
X123046500Y-91715100D01*
G75*
G02*
X122846500Y-91515100I0J200000D01*
G01*
X122846500Y-89615100D01*
G75*
G02*
X123046500Y-89415100I200000J0D01*
G01*
X123846500Y-89415100D01*
G75*
G02*
X124046500Y-89615100I0J-200000D01*
G01*
X124046500Y-91515100D01*
G75*
G02*
X123846500Y-91715100I-200000J0D01*
G01*
G37*
G36*
G01*
X120082500Y-88942600D02*
X120882500Y-88942600D01*
G75*
G02*
X121082500Y-89142600I0J-200000D01*
G01*
X121082500Y-91042600D01*
G75*
G02*
X120882500Y-91242600I-200000J0D01*
G01*
X120082500Y-91242600D01*
G75*
G02*
X119882500Y-91042600I0J200000D01*
G01*
X119882500Y-89142600D01*
G75*
G02*
X120082500Y-88942600I200000J0D01*
G01*
G37*
G36*
G01*
X119132500Y-85942600D02*
X119932500Y-85942600D01*
G75*
G02*
X120132500Y-86142600I0J-200000D01*
G01*
X120132500Y-88042600D01*
G75*
G02*
X119932500Y-88242600I-200000J0D01*
G01*
X119132500Y-88242600D01*
G75*
G02*
X118932500Y-88042600I0J200000D01*
G01*
X118932500Y-86142600D01*
G75*
G02*
X119132500Y-85942600I200000J0D01*
G01*
G37*
G36*
G01*
X121032500Y-85942600D02*
X121832500Y-85942600D01*
G75*
G02*
X122032500Y-86142600I0J-200000D01*
G01*
X122032500Y-88042600D01*
G75*
G02*
X121832500Y-88242600I-200000J0D01*
G01*
X121032500Y-88242600D01*
G75*
G02*
X120832500Y-88042600I0J200000D01*
G01*
X120832500Y-86142600D01*
G75*
G02*
X121032500Y-85942600I200000J0D01*
G01*
G37*
G36*
G01*
X88374636Y-128078800D02*
X89984164Y-128078800D01*
G75*
G02*
X90329400Y-128424036I0J-345236D01*
G01*
X90329400Y-129183564D01*
G75*
G02*
X89984164Y-129528800I-345236J0D01*
G01*
X88374636Y-129528800D01*
G75*
G02*
X88029400Y-129183564I0J345236D01*
G01*
X88029400Y-128424036D01*
G75*
G02*
X88374636Y-128078800I345236J0D01*
G01*
G37*
G36*
G01*
X88374636Y-124928800D02*
X89984164Y-124928800D01*
G75*
G02*
X90329400Y-125274036I0J-345236D01*
G01*
X90329400Y-126033564D01*
G75*
G02*
X89984164Y-126378800I-345236J0D01*
G01*
X88374636Y-126378800D01*
G75*
G02*
X88029400Y-126033564I0J345236D01*
G01*
X88029400Y-125274036D01*
G75*
G02*
X88374636Y-124928800I345236J0D01*
G01*
G37*
G36*
G01*
X94430100Y-133978700D02*
X94430100Y-134778700D01*
G75*
G02*
X94230100Y-134978700I-200000J0D01*
G01*
X92330100Y-134978700D01*
G75*
G02*
X92130100Y-134778700I0J200000D01*
G01*
X92130100Y-133978700D01*
G75*
G02*
X92330100Y-133778700I200000J0D01*
G01*
X94230100Y-133778700D01*
G75*
G02*
X94430100Y-133978700I0J-200000D01*
G01*
G37*
G36*
G01*
X97430100Y-133028700D02*
X97430100Y-133828700D01*
G75*
G02*
X97230100Y-134028700I-200000J0D01*
G01*
X95330100Y-134028700D01*
G75*
G02*
X95130100Y-133828700I0J200000D01*
G01*
X95130100Y-133028700D01*
G75*
G02*
X95330100Y-132828700I200000J0D01*
G01*
X97230100Y-132828700D01*
G75*
G02*
X97430100Y-133028700I0J-200000D01*
G01*
G37*
G36*
G01*
X97430100Y-134928700D02*
X97430100Y-135728700D01*
G75*
G02*
X97230100Y-135928700I-200000J0D01*
G01*
X95330100Y-135928700D01*
G75*
G02*
X95130100Y-135728700I0J200000D01*
G01*
X95130100Y-134928700D01*
G75*
G02*
X95330100Y-134728700I200000J0D01*
G01*
X97230100Y-134728700D01*
G75*
G02*
X97430100Y-134928700I0J-200000D01*
G01*
G37*
G36*
G01*
X98612400Y-135442200D02*
X99812400Y-135442200D01*
G75*
G02*
X100012400Y-135642200I0J-200000D01*
G01*
X100012400Y-136542200D01*
G75*
G02*
X99812400Y-136742200I-200000J0D01*
G01*
X98612400Y-136742200D01*
G75*
G02*
X98412400Y-136542200I0J200000D01*
G01*
X98412400Y-135642200D01*
G75*
G02*
X98612400Y-135442200I200000J0D01*
G01*
G37*
G36*
G01*
X98612400Y-132142200D02*
X99812400Y-132142200D01*
G75*
G02*
X100012400Y-132342200I0J-200000D01*
G01*
X100012400Y-133242200D01*
G75*
G02*
X99812400Y-133442200I-200000J0D01*
G01*
X98612400Y-133442200D01*
G75*
G02*
X98412400Y-133242200I0J200000D01*
G01*
X98412400Y-132342200D01*
G75*
G02*
X98612400Y-132142200I200000J0D01*
G01*
G37*
G36*
G01*
X103959900Y-103927200D02*
X103959900Y-102727200D01*
G75*
G02*
X104159900Y-102527200I200000J0D01*
G01*
X105059900Y-102527200D01*
G75*
G02*
X105259900Y-102727200I0J-200000D01*
G01*
X105259900Y-103927200D01*
G75*
G02*
X105059900Y-104127200I-200000J0D01*
G01*
X104159900Y-104127200D01*
G75*
G02*
X103959900Y-103927200I0J200000D01*
G01*
G37*
G36*
G01*
X100659900Y-103927200D02*
X100659900Y-102727200D01*
G75*
G02*
X100859900Y-102527200I200000J0D01*
G01*
X101759900Y-102527200D01*
G75*
G02*
X101959900Y-102727200I0J-200000D01*
G01*
X101959900Y-103927200D01*
G75*
G02*
X101759900Y-104127200I-200000J0D01*
G01*
X100859900Y-104127200D01*
G75*
G02*
X100659900Y-103927200I0J200000D01*
G01*
G37*
G36*
G01*
X101541900Y-130402700D02*
X102216900Y-130402700D01*
G75*
G02*
X102554400Y-130740200I0J-337500D01*
G01*
X102554400Y-131540200D01*
G75*
G02*
X102216900Y-131877700I-337500J0D01*
G01*
X101541900Y-131877700D01*
G75*
G02*
X101204400Y-131540200I0J337500D01*
G01*
X101204400Y-130740200D01*
G75*
G02*
X101541900Y-130402700I337500J0D01*
G01*
G37*
G36*
G01*
X101541900Y-128677700D02*
X102216900Y-128677700D01*
G75*
G02*
X102554400Y-129015200I0J-337500D01*
G01*
X102554400Y-129815200D01*
G75*
G02*
X102216900Y-130152700I-337500J0D01*
G01*
X101541900Y-130152700D01*
G75*
G02*
X101204400Y-129815200I0J337500D01*
G01*
X101204400Y-129015200D01*
G75*
G02*
X101541900Y-128677700I337500J0D01*
G01*
G37*
G36*
G01*
X112489300Y-135101700D02*
X113164300Y-135101700D01*
G75*
G02*
X113501800Y-135439200I0J-337500D01*
G01*
X113501800Y-136239200D01*
G75*
G02*
X113164300Y-136576700I-337500J0D01*
G01*
X112489300Y-136576700D01*
G75*
G02*
X112151800Y-136239200I0J337500D01*
G01*
X112151800Y-135439200D01*
G75*
G02*
X112489300Y-135101700I337500J0D01*
G01*
G37*
G36*
G01*
X112489300Y-133376700D02*
X113164300Y-133376700D01*
G75*
G02*
X113501800Y-133714200I0J-337500D01*
G01*
X113501800Y-134514200D01*
G75*
G02*
X113164300Y-134851700I-337500J0D01*
G01*
X112489300Y-134851700D01*
G75*
G02*
X112151800Y-134514200I0J337500D01*
G01*
X112151800Y-133714200D01*
G75*
G02*
X112489300Y-133376700I337500J0D01*
G01*
G37*
G36*
G01*
X101554600Y-133754400D02*
X102229600Y-133754400D01*
G75*
G02*
X102567100Y-134091900I0J-337500D01*
G01*
X102567100Y-134891900D01*
G75*
G02*
X102229600Y-135229400I-337500J0D01*
G01*
X101554600Y-135229400D01*
G75*
G02*
X101217100Y-134891900I0J337500D01*
G01*
X101217100Y-134091900D01*
G75*
G02*
X101554600Y-133754400I337500J0D01*
G01*
G37*
G36*
G01*
X101554600Y-132029400D02*
X102229600Y-132029400D01*
G75*
G02*
X102567100Y-132366900I0J-337500D01*
G01*
X102567100Y-133166900D01*
G75*
G02*
X102229600Y-133504400I-337500J0D01*
G01*
X101554600Y-133504400D01*
G75*
G02*
X101217100Y-133166900I0J337500D01*
G01*
X101217100Y-132366900D01*
G75*
G02*
X101554600Y-132029400I337500J0D01*
G01*
G37*
G36*
G01*
X135154400Y-130149600D02*
X134644400Y-130149600D01*
G75*
G02*
X134389400Y-129894600I0J255000D01*
G01*
X134389400Y-129269600D01*
G75*
G02*
X134644400Y-129014600I255000J0D01*
G01*
X135154400Y-129014600D01*
G75*
G02*
X135409400Y-129269600I0J-255000D01*
G01*
X135409400Y-129894600D01*
G75*
G02*
X135154400Y-130149600I-255000J0D01*
G01*
G37*
G36*
G01*
X135154400Y-131284600D02*
X134644400Y-131284600D01*
G75*
G02*
X134389400Y-131029600I0J255000D01*
G01*
X134389400Y-130404600D01*
G75*
G02*
X134644400Y-130149600I255000J0D01*
G01*
X135154400Y-130149600D01*
G75*
G02*
X135409400Y-130404600I0J-255000D01*
G01*
X135409400Y-131029600D01*
G75*
G02*
X135154400Y-131284600I-255000J0D01*
G01*
G37*
G36*
G01*
X91714000Y-127801000D02*
X91039000Y-127801000D01*
G75*
G02*
X90701500Y-127463500I0J337500D01*
G01*
X90701500Y-126663500D01*
G75*
G02*
X91039000Y-126326000I337500J0D01*
G01*
X91714000Y-126326000D01*
G75*
G02*
X92051500Y-126663500I0J-337500D01*
G01*
X92051500Y-127463500D01*
G75*
G02*
X91714000Y-127801000I-337500J0D01*
G01*
G37*
G36*
G01*
X91714000Y-129526000D02*
X91039000Y-129526000D01*
G75*
G02*
X90701500Y-129188500I0J337500D01*
G01*
X90701500Y-128388500D01*
G75*
G02*
X91039000Y-128051000I337500J0D01*
G01*
X91714000Y-128051000D01*
G75*
G02*
X92051500Y-128388500I0J-337500D01*
G01*
X92051500Y-129188500D01*
G75*
G02*
X91714000Y-129526000I-337500J0D01*
G01*
G37*
D11*
X108737400Y-98457000D03*
G36*
G01*
X109479068Y-101257000D02*
X107995732Y-101257000D01*
G75*
G02*
X107662400Y-100923668I0J333332D01*
G01*
X107662400Y-99990332D01*
G75*
G02*
X107995732Y-99657000I333332J0D01*
G01*
X109479068Y-99657000D01*
G75*
G02*
X109812400Y-99990332I0J-333332D01*
G01*
X109812400Y-100923668D01*
G75*
G02*
X109479068Y-101257000I-333332J0D01*
G01*
G37*
D12*
X95885000Y-101231700D03*
X107175300Y-134835900D03*
D13*
G36*
X125707918Y-83572343D02*
G01*
X125745437Y-83583724D01*
X125780014Y-83602206D01*
X125810321Y-83627079D01*
X125835194Y-83657386D01*
X125853676Y-83691963D01*
X125865057Y-83729482D01*
X125868900Y-83768500D01*
X125868900Y-85268500D01*
X125865057Y-85307518D01*
X125853676Y-85345037D01*
X125835194Y-85379614D01*
X125810321Y-85409921D01*
X125780014Y-85434794D01*
X125745437Y-85453276D01*
X125707918Y-85464657D01*
X125668900Y-85468500D01*
X125168900Y-85468500D01*
X125162788Y-85467898D01*
X125144366Y-85467898D01*
X125124760Y-85466935D01*
X125075929Y-85462125D01*
X125056520Y-85459246D01*
X125008395Y-85449674D01*
X124989352Y-85444904D01*
X124942397Y-85430660D01*
X124923920Y-85424049D01*
X124878587Y-85405272D01*
X124860839Y-85396877D01*
X124817566Y-85373746D01*
X124800738Y-85363660D01*
X124759939Y-85336400D01*
X124744170Y-85324705D01*
X124706241Y-85293577D01*
X124691700Y-85280397D01*
X124657003Y-85245700D01*
X124643823Y-85231159D01*
X124612695Y-85193230D01*
X124601000Y-85177461D01*
X124573740Y-85136662D01*
X124563654Y-85119834D01*
X124540523Y-85076561D01*
X124532128Y-85058813D01*
X124513351Y-85013480D01*
X124506740Y-84995003D01*
X124492496Y-84948048D01*
X124487726Y-84929005D01*
X124478154Y-84880880D01*
X124475275Y-84861471D01*
X124470465Y-84812640D01*
X124469502Y-84793034D01*
X124469502Y-84774612D01*
X124468900Y-84768500D01*
X124468900Y-84268500D01*
X124469502Y-84262388D01*
X124469502Y-84243966D01*
X124470465Y-84224360D01*
X124475275Y-84175529D01*
X124478154Y-84156120D01*
X124487726Y-84107995D01*
X124492496Y-84088952D01*
X124506740Y-84041997D01*
X124513351Y-84023520D01*
X124532128Y-83978187D01*
X124540523Y-83960439D01*
X124563654Y-83917166D01*
X124573740Y-83900338D01*
X124601000Y-83859539D01*
X124612695Y-83843770D01*
X124643823Y-83805841D01*
X124657003Y-83791300D01*
X124691700Y-83756603D01*
X124706241Y-83743423D01*
X124744170Y-83712295D01*
X124759939Y-83700600D01*
X124800738Y-83673340D01*
X124817566Y-83663254D01*
X124860839Y-83640123D01*
X124878587Y-83631728D01*
X124923920Y-83612951D01*
X124942397Y-83606340D01*
X124989352Y-83592096D01*
X125008395Y-83587326D01*
X125056520Y-83577754D01*
X125075929Y-83574875D01*
X125124760Y-83570065D01*
X125144366Y-83569102D01*
X125162788Y-83569102D01*
X125168900Y-83568500D01*
X125668900Y-83568500D01*
X125707918Y-83572343D01*
G37*
G36*
X126475012Y-83569102D02*
G01*
X126493434Y-83569102D01*
X126513040Y-83570065D01*
X126561871Y-83574875D01*
X126581280Y-83577754D01*
X126629405Y-83587326D01*
X126648448Y-83592096D01*
X126695403Y-83606340D01*
X126713880Y-83612951D01*
X126759213Y-83631728D01*
X126776961Y-83640123D01*
X126820234Y-83663254D01*
X126837062Y-83673340D01*
X126877861Y-83700600D01*
X126893630Y-83712295D01*
X126931559Y-83743423D01*
X126946100Y-83756603D01*
X126980797Y-83791300D01*
X126993977Y-83805841D01*
X127025105Y-83843770D01*
X127036800Y-83859539D01*
X127064060Y-83900338D01*
X127074146Y-83917166D01*
X127097277Y-83960439D01*
X127105672Y-83978187D01*
X127124449Y-84023520D01*
X127131060Y-84041997D01*
X127145304Y-84088952D01*
X127150074Y-84107995D01*
X127159646Y-84156120D01*
X127162525Y-84175529D01*
X127167335Y-84224360D01*
X127168298Y-84243966D01*
X127168298Y-84262388D01*
X127168900Y-84268500D01*
X127168900Y-84768500D01*
X127168298Y-84774612D01*
X127168298Y-84793034D01*
X127167335Y-84812640D01*
X127162525Y-84861471D01*
X127159646Y-84880880D01*
X127150074Y-84929005D01*
X127145304Y-84948048D01*
X127131060Y-84995003D01*
X127124449Y-85013480D01*
X127105672Y-85058813D01*
X127097277Y-85076561D01*
X127074146Y-85119834D01*
X127064060Y-85136662D01*
X127036800Y-85177461D01*
X127025105Y-85193230D01*
X126993977Y-85231159D01*
X126980797Y-85245700D01*
X126946100Y-85280397D01*
X126931559Y-85293577D01*
X126893630Y-85324705D01*
X126877861Y-85336400D01*
X126837062Y-85363660D01*
X126820234Y-85373746D01*
X126776961Y-85396877D01*
X126759213Y-85405272D01*
X126713880Y-85424049D01*
X126695403Y-85430660D01*
X126648448Y-85444904D01*
X126629405Y-85449674D01*
X126581280Y-85459246D01*
X126561871Y-85462125D01*
X126513040Y-85466935D01*
X126493434Y-85467898D01*
X126475012Y-85467898D01*
X126468900Y-85468500D01*
X125968900Y-85468500D01*
X125929882Y-85464657D01*
X125892363Y-85453276D01*
X125857786Y-85434794D01*
X125827479Y-85409921D01*
X125802606Y-85379614D01*
X125784124Y-85345037D01*
X125772743Y-85307518D01*
X125768900Y-85268500D01*
X125768900Y-83768500D01*
X125772743Y-83729482D01*
X125784124Y-83691963D01*
X125802606Y-83657386D01*
X125827479Y-83627079D01*
X125857786Y-83602206D01*
X125892363Y-83583724D01*
X125929882Y-83572343D01*
X125968900Y-83568500D01*
X126468900Y-83568500D01*
X126475012Y-83569102D01*
G37*
G36*
G01*
X157987100Y-89416600D02*
X156287100Y-89416600D01*
G75*
G02*
X156087100Y-89216600I0J200000D01*
G01*
X156087100Y-87516600D01*
G75*
G02*
X156287100Y-87316600I200000J0D01*
G01*
X157987100Y-87316600D01*
G75*
G02*
X158187100Y-87516600I0J-200000D01*
G01*
X158187100Y-89216600D01*
G75*
G02*
X157987100Y-89416600I-200000J0D01*
G01*
G37*
D10*
X154597100Y-88366600D03*
X152057100Y-88366600D03*
X149517100Y-88366600D03*
X146977100Y-88366600D03*
X144437100Y-88366600D03*
X141897100Y-88366600D03*
X139357100Y-88366600D03*
G36*
G01*
X89941000Y-83712000D02*
X87941000Y-83712000D01*
G75*
G02*
X87741000Y-83512000I0J200000D01*
G01*
X87741000Y-82062000D01*
G75*
G02*
X87941000Y-81862000I200000J0D01*
G01*
X89941000Y-81862000D01*
G75*
G02*
X90141000Y-82062000I0J-200000D01*
G01*
X90141000Y-83512000D01*
G75*
G02*
X89941000Y-83712000I-200000J0D01*
G01*
G37*
G36*
G01*
X89941000Y-97462000D02*
X87941000Y-97462000D01*
G75*
G02*
X87741000Y-97262000I0J200000D01*
G01*
X87741000Y-95812000D01*
G75*
G02*
X87941000Y-95612000I200000J0D01*
G01*
X89941000Y-95612000D01*
G75*
G02*
X90141000Y-95812000I0J-200000D01*
G01*
X90141000Y-97262000D01*
G75*
G02*
X89941000Y-97462000I-200000J0D01*
G01*
G37*
G36*
G01*
X98241000Y-97462000D02*
X96241000Y-97462000D01*
G75*
G02*
X96041000Y-97262000I0J200000D01*
G01*
X96041000Y-95812000D01*
G75*
G02*
X96241000Y-95612000I200000J0D01*
G01*
X98241000Y-95612000D01*
G75*
G02*
X98441000Y-95812000I0J-200000D01*
G01*
X98441000Y-97262000D01*
G75*
G02*
X98241000Y-97462000I-200000J0D01*
G01*
G37*
G36*
G01*
X98241000Y-83712000D02*
X96241000Y-83712000D01*
G75*
G02*
X96041000Y-83512000I0J200000D01*
G01*
X96041000Y-82062000D01*
G75*
G02*
X96241000Y-81862000I200000J0D01*
G01*
X98241000Y-81862000D01*
G75*
G02*
X98441000Y-82062000I0J-200000D01*
G01*
X98441000Y-83512000D01*
G75*
G02*
X98241000Y-83712000I-200000J0D01*
G01*
G37*
G36*
G01*
X92291000Y-85762000D02*
X90791000Y-85762000D01*
G75*
G02*
X90591000Y-85562000I0J200000D01*
G01*
X90591000Y-84762000D01*
G75*
G02*
X90791000Y-84562000I200000J0D01*
G01*
X92291000Y-84562000D01*
G75*
G02*
X92491000Y-84762000I0J-200000D01*
G01*
X92491000Y-85562000D01*
G75*
G02*
X92291000Y-85762000I-200000J0D01*
G01*
G37*
G36*
G01*
X92291000Y-86862000D02*
X90791000Y-86862000D01*
G75*
G02*
X90591000Y-86662000I0J200000D01*
G01*
X90591000Y-85862000D01*
G75*
G02*
X90791000Y-85662000I200000J0D01*
G01*
X92291000Y-85662000D01*
G75*
G02*
X92491000Y-85862000I0J-200000D01*
G01*
X92491000Y-86662000D01*
G75*
G02*
X92291000Y-86862000I-200000J0D01*
G01*
G37*
G36*
G01*
X92291000Y-87962000D02*
X90791000Y-87962000D01*
G75*
G02*
X90591000Y-87762000I0J200000D01*
G01*
X90591000Y-86962000D01*
G75*
G02*
X90791000Y-86762000I200000J0D01*
G01*
X92291000Y-86762000D01*
G75*
G02*
X92491000Y-86962000I0J-200000D01*
G01*
X92491000Y-87762000D01*
G75*
G02*
X92291000Y-87962000I-200000J0D01*
G01*
G37*
G36*
G01*
X92291000Y-89062000D02*
X90791000Y-89062000D01*
G75*
G02*
X90591000Y-88862000I0J200000D01*
G01*
X90591000Y-88062000D01*
G75*
G02*
X90791000Y-87862000I200000J0D01*
G01*
X92291000Y-87862000D01*
G75*
G02*
X92491000Y-88062000I0J-200000D01*
G01*
X92491000Y-88862000D01*
G75*
G02*
X92291000Y-89062000I-200000J0D01*
G01*
G37*
G36*
G01*
X92291000Y-90162000D02*
X90791000Y-90162000D01*
G75*
G02*
X90591000Y-89962000I0J200000D01*
G01*
X90591000Y-89162000D01*
G75*
G02*
X90791000Y-88962000I200000J0D01*
G01*
X92291000Y-88962000D01*
G75*
G02*
X92491000Y-89162000I0J-200000D01*
G01*
X92491000Y-89962000D01*
G75*
G02*
X92291000Y-90162000I-200000J0D01*
G01*
G37*
G36*
G01*
X92291000Y-91262000D02*
X90791000Y-91262000D01*
G75*
G02*
X90591000Y-91062000I0J200000D01*
G01*
X90591000Y-90262000D01*
G75*
G02*
X90791000Y-90062000I200000J0D01*
G01*
X92291000Y-90062000D01*
G75*
G02*
X92491000Y-90262000I0J-200000D01*
G01*
X92491000Y-91062000D01*
G75*
G02*
X92291000Y-91262000I-200000J0D01*
G01*
G37*
G36*
G01*
X92291000Y-92362000D02*
X90791000Y-92362000D01*
G75*
G02*
X90591000Y-92162000I0J200000D01*
G01*
X90591000Y-91362000D01*
G75*
G02*
X90791000Y-91162000I200000J0D01*
G01*
X92291000Y-91162000D01*
G75*
G02*
X92491000Y-91362000I0J-200000D01*
G01*
X92491000Y-92162000D01*
G75*
G02*
X92291000Y-92362000I-200000J0D01*
G01*
G37*
G36*
G01*
X92291000Y-93462000D02*
X90791000Y-93462000D01*
G75*
G02*
X90591000Y-93262000I0J200000D01*
G01*
X90591000Y-92462000D01*
G75*
G02*
X90791000Y-92262000I200000J0D01*
G01*
X92291000Y-92262000D01*
G75*
G02*
X92491000Y-92462000I0J-200000D01*
G01*
X92491000Y-93262000D01*
G75*
G02*
X92291000Y-93462000I-200000J0D01*
G01*
G37*
G36*
G01*
X103511000Y-91489500D02*
X102991000Y-91489500D01*
G75*
G02*
X102731000Y-91229500I0J260000D01*
G01*
X102731000Y-90634500D01*
G75*
G02*
X102991000Y-90374500I260000J0D01*
G01*
X103511000Y-90374500D01*
G75*
G02*
X103771000Y-90634500I0J-260000D01*
G01*
X103771000Y-91229500D01*
G75*
G02*
X103511000Y-91489500I-260000J0D01*
G01*
G37*
G36*
G01*
X103511000Y-92684500D02*
X102991000Y-92684500D01*
G75*
G02*
X102731000Y-92424500I0J260000D01*
G01*
X102731000Y-91829500D01*
G75*
G02*
X102991000Y-91569500I260000J0D01*
G01*
X103511000Y-91569500D01*
G75*
G02*
X103771000Y-91829500I0J-260000D01*
G01*
X103771000Y-92424500D01*
G75*
G02*
X103511000Y-92684500I-260000J0D01*
G01*
G37*
G36*
G01*
X102991000Y-87782500D02*
X103511000Y-87782500D01*
G75*
G02*
X103771000Y-88042500I0J-260000D01*
G01*
X103771000Y-88637500D01*
G75*
G02*
X103511000Y-88897500I-260000J0D01*
G01*
X102991000Y-88897500D01*
G75*
G02*
X102731000Y-88637500I0J260000D01*
G01*
X102731000Y-88042500D01*
G75*
G02*
X102991000Y-87782500I260000J0D01*
G01*
G37*
G36*
G01*
X102991000Y-88977500D02*
X103511000Y-88977500D01*
G75*
G02*
X103771000Y-89237500I0J-260000D01*
G01*
X103771000Y-89832500D01*
G75*
G02*
X103511000Y-90092500I-260000J0D01*
G01*
X102991000Y-90092500D01*
G75*
G02*
X102731000Y-89832500I0J260000D01*
G01*
X102731000Y-89237500D01*
G75*
G02*
X102991000Y-88977500I260000J0D01*
G01*
G37*
G36*
G01*
X95951000Y-106990800D02*
X95951000Y-106470800D01*
G75*
G02*
X96211000Y-106210800I260000J0D01*
G01*
X96806000Y-106210800D01*
G75*
G02*
X97066000Y-106470800I0J-260000D01*
G01*
X97066000Y-106990800D01*
G75*
G02*
X96806000Y-107250800I-260000J0D01*
G01*
X96211000Y-107250800D01*
G75*
G02*
X95951000Y-106990800I0J260000D01*
G01*
G37*
G36*
G01*
X94756000Y-106990800D02*
X94756000Y-106470800D01*
G75*
G02*
X95016000Y-106210800I260000J0D01*
G01*
X95611000Y-106210800D01*
G75*
G02*
X95871000Y-106470800I0J-260000D01*
G01*
X95871000Y-106990800D01*
G75*
G02*
X95611000Y-107250800I-260000J0D01*
G01*
X95016000Y-107250800D01*
G75*
G02*
X94756000Y-106990800I0J260000D01*
G01*
G37*
G36*
G01*
X105124600Y-115177000D02*
X105644600Y-115177000D01*
G75*
G02*
X105904600Y-115437000I0J-260000D01*
G01*
X105904600Y-116032000D01*
G75*
G02*
X105644600Y-116292000I-260000J0D01*
G01*
X105124600Y-116292000D01*
G75*
G02*
X104864600Y-116032000I0J260000D01*
G01*
X104864600Y-115437000D01*
G75*
G02*
X105124600Y-115177000I260000J0D01*
G01*
G37*
G36*
G01*
X105124600Y-116372000D02*
X105644600Y-116372000D01*
G75*
G02*
X105904600Y-116632000I0J-260000D01*
G01*
X105904600Y-117227000D01*
G75*
G02*
X105644600Y-117487000I-260000J0D01*
G01*
X105124600Y-117487000D01*
G75*
G02*
X104864600Y-117227000I0J260000D01*
G01*
X104864600Y-116632000D01*
G75*
G02*
X105124600Y-116372000I260000J0D01*
G01*
G37*
G36*
G01*
X109214000Y-109284800D02*
X109734000Y-109284800D01*
G75*
G02*
X109994000Y-109544800I0J-260000D01*
G01*
X109994000Y-110139800D01*
G75*
G02*
X109734000Y-110399800I-260000J0D01*
G01*
X109214000Y-110399800D01*
G75*
G02*
X108954000Y-110139800I0J260000D01*
G01*
X108954000Y-109544800D01*
G75*
G02*
X109214000Y-109284800I260000J0D01*
G01*
G37*
G36*
G01*
X109214000Y-110479800D02*
X109734000Y-110479800D01*
G75*
G02*
X109994000Y-110739800I0J-260000D01*
G01*
X109994000Y-111334800D01*
G75*
G02*
X109734000Y-111594800I-260000J0D01*
G01*
X109214000Y-111594800D01*
G75*
G02*
X108954000Y-111334800I0J260000D01*
G01*
X108954000Y-110739800D01*
G75*
G02*
X109214000Y-110479800I260000J0D01*
G01*
G37*
G36*
G01*
X161651600Y-128828100D02*
X161131600Y-128828100D01*
G75*
G02*
X160871600Y-128568100I0J260000D01*
G01*
X160871600Y-127973100D01*
G75*
G02*
X161131600Y-127713100I260000J0D01*
G01*
X161651600Y-127713100D01*
G75*
G02*
X161911600Y-127973100I0J-260000D01*
G01*
X161911600Y-128568100D01*
G75*
G02*
X161651600Y-128828100I-260000J0D01*
G01*
G37*
G36*
G01*
X161651600Y-127633100D02*
X161131600Y-127633100D01*
G75*
G02*
X160871600Y-127373100I0J260000D01*
G01*
X160871600Y-126778100D01*
G75*
G02*
X161131600Y-126518100I260000J0D01*
G01*
X161651600Y-126518100D01*
G75*
G02*
X161911600Y-126778100I0J-260000D01*
G01*
X161911600Y-127373100D01*
G75*
G02*
X161651600Y-127633100I-260000J0D01*
G01*
G37*
G36*
G01*
X109603500Y-108895800D02*
X109603500Y-108375800D01*
G75*
G02*
X109863500Y-108115800I260000J0D01*
G01*
X110458500Y-108115800D01*
G75*
G02*
X110718500Y-108375800I0J-260000D01*
G01*
X110718500Y-108895800D01*
G75*
G02*
X110458500Y-109155800I-260000J0D01*
G01*
X109863500Y-109155800D01*
G75*
G02*
X109603500Y-108895800I0J260000D01*
G01*
G37*
G36*
G01*
X108408500Y-108895800D02*
X108408500Y-108375800D01*
G75*
G02*
X108668500Y-108115800I260000J0D01*
G01*
X109263500Y-108115800D01*
G75*
G02*
X109523500Y-108375800I0J-260000D01*
G01*
X109523500Y-108895800D01*
G75*
G02*
X109263500Y-109155800I-260000J0D01*
G01*
X108668500Y-109155800D01*
G75*
G02*
X108408500Y-108895800I0J260000D01*
G01*
G37*
G36*
G01*
X97655000Y-111174800D02*
X97655000Y-111684800D01*
G75*
G02*
X97400000Y-111939800I-255000J0D01*
G01*
X96775000Y-111939800D01*
G75*
G02*
X96520000Y-111684800I0J255000D01*
G01*
X96520000Y-111174800D01*
G75*
G02*
X96775000Y-110919800I255000J0D01*
G01*
X97400000Y-110919800D01*
G75*
G02*
X97655000Y-111174800I0J-255000D01*
G01*
G37*
G36*
G01*
X96520000Y-111174800D02*
X96520000Y-111684800D01*
G75*
G02*
X96265000Y-111939800I-255000J0D01*
G01*
X95640000Y-111939800D01*
G75*
G02*
X95385000Y-111684800I0J255000D01*
G01*
X95385000Y-111174800D01*
G75*
G02*
X95640000Y-110919800I255000J0D01*
G01*
X96265000Y-110919800D01*
G75*
G02*
X96520000Y-111174800I0J-255000D01*
G01*
G37*
G36*
G01*
X98424000Y-113775300D02*
X98934000Y-113775300D01*
G75*
G02*
X99189000Y-114030300I0J-255000D01*
G01*
X99189000Y-114655300D01*
G75*
G02*
X98934000Y-114910300I-255000J0D01*
G01*
X98424000Y-114910300D01*
G75*
G02*
X98169000Y-114655300I0J255000D01*
G01*
X98169000Y-114030300D01*
G75*
G02*
X98424000Y-113775300I255000J0D01*
G01*
G37*
G36*
G01*
X98424000Y-112640300D02*
X98934000Y-112640300D01*
G75*
G02*
X99189000Y-112895300I0J-255000D01*
G01*
X99189000Y-113520300D01*
G75*
G02*
X98934000Y-113775300I-255000J0D01*
G01*
X98424000Y-113775300D01*
G75*
G02*
X98169000Y-113520300I0J255000D01*
G01*
X98169000Y-112895300D01*
G75*
G02*
X98424000Y-112640300I255000J0D01*
G01*
G37*
G36*
G01*
X102768400Y-113384600D02*
X102768400Y-113894600D01*
G75*
G02*
X102513400Y-114149600I-255000J0D01*
G01*
X101888400Y-114149600D01*
G75*
G02*
X101633400Y-113894600I0J255000D01*
G01*
X101633400Y-113384600D01*
G75*
G02*
X101888400Y-113129600I255000J0D01*
G01*
X102513400Y-113129600D01*
G75*
G02*
X102768400Y-113384600I0J-255000D01*
G01*
G37*
G36*
G01*
X103903400Y-113384600D02*
X103903400Y-113894600D01*
G75*
G02*
X103648400Y-114149600I-255000J0D01*
G01*
X103023400Y-114149600D01*
G75*
G02*
X102768400Y-113894600I0J255000D01*
G01*
X102768400Y-113384600D01*
G75*
G02*
X103023400Y-113129600I255000J0D01*
G01*
X103648400Y-113129600D01*
G75*
G02*
X103903400Y-113384600I0J-255000D01*
G01*
G37*
G36*
G01*
X91269500Y-120473100D02*
X90594500Y-120473100D01*
G75*
G02*
X90257000Y-120135600I0J337500D01*
G01*
X90257000Y-119335600D01*
G75*
G02*
X90594500Y-118998100I337500J0D01*
G01*
X91269500Y-118998100D01*
G75*
G02*
X91607000Y-119335600I0J-337500D01*
G01*
X91607000Y-120135600D01*
G75*
G02*
X91269500Y-120473100I-337500J0D01*
G01*
G37*
G36*
G01*
X91269500Y-118748100D02*
X90594500Y-118748100D01*
G75*
G02*
X90257000Y-118410600I0J337500D01*
G01*
X90257000Y-117610600D01*
G75*
G02*
X90594500Y-117273100I337500J0D01*
G01*
X91269500Y-117273100D01*
G75*
G02*
X91607000Y-117610600I0J-337500D01*
G01*
X91607000Y-118410600D01*
G75*
G02*
X91269500Y-118748100I-337500J0D01*
G01*
G37*
G36*
G01*
X108010400Y-116316000D02*
X109210400Y-116316000D01*
G75*
G02*
X109410400Y-116516000I0J-200000D01*
G01*
X109410400Y-117416000D01*
G75*
G02*
X109210400Y-117616000I-200000J0D01*
G01*
X108010400Y-117616000D01*
G75*
G02*
X107810400Y-117416000I0J200000D01*
G01*
X107810400Y-116516000D01*
G75*
G02*
X108010400Y-116316000I200000J0D01*
G01*
G37*
G36*
G01*
X108010400Y-113016000D02*
X109210400Y-113016000D01*
G75*
G02*
X109410400Y-113216000I0J-200000D01*
G01*
X109410400Y-114116000D01*
G75*
G02*
X109210400Y-114316000I-200000J0D01*
G01*
X108010400Y-114316000D01*
G75*
G02*
X107810400Y-114116000I0J200000D01*
G01*
X107810400Y-113216000D01*
G75*
G02*
X108010400Y-113016000I200000J0D01*
G01*
G37*
G36*
G01*
X111623400Y-119838500D02*
X110423400Y-119838500D01*
G75*
G02*
X110223400Y-119638500I0J200000D01*
G01*
X110223400Y-118738500D01*
G75*
G02*
X110423400Y-118538500I200000J0D01*
G01*
X111623400Y-118538500D01*
G75*
G02*
X111823400Y-118738500I0J-200000D01*
G01*
X111823400Y-119638500D01*
G75*
G02*
X111623400Y-119838500I-200000J0D01*
G01*
G37*
G36*
G01*
X111623400Y-116538500D02*
X110423400Y-116538500D01*
G75*
G02*
X110223400Y-116338500I0J200000D01*
G01*
X110223400Y-115438500D01*
G75*
G02*
X110423400Y-115238500I200000J0D01*
G01*
X111623400Y-115238500D01*
G75*
G02*
X111823400Y-115438500I0J-200000D01*
G01*
X111823400Y-116338500D01*
G75*
G02*
X111623400Y-116538500I-200000J0D01*
G01*
G37*
G36*
G01*
X137206500Y-113072000D02*
X137206500Y-113872000D01*
G75*
G02*
X137006500Y-114072000I-200000J0D01*
G01*
X135106500Y-114072000D01*
G75*
G02*
X134906500Y-113872000I0J200000D01*
G01*
X134906500Y-113072000D01*
G75*
G02*
X135106500Y-112872000I200000J0D01*
G01*
X137006500Y-112872000D01*
G75*
G02*
X137206500Y-113072000I0J-200000D01*
G01*
G37*
G36*
G01*
X137206500Y-111172000D02*
X137206500Y-111972000D01*
G75*
G02*
X137006500Y-112172000I-200000J0D01*
G01*
X135106500Y-112172000D01*
G75*
G02*
X134906500Y-111972000I0J200000D01*
G01*
X134906500Y-111172000D01*
G75*
G02*
X135106500Y-110972000I200000J0D01*
G01*
X137006500Y-110972000D01*
G75*
G02*
X137206500Y-111172000I0J-200000D01*
G01*
G37*
G36*
G01*
X134206500Y-112122000D02*
X134206500Y-112922000D01*
G75*
G02*
X134006500Y-113122000I-200000J0D01*
G01*
X132106500Y-113122000D01*
G75*
G02*
X131906500Y-112922000I0J200000D01*
G01*
X131906500Y-112122000D01*
G75*
G02*
X132106500Y-111922000I200000J0D01*
G01*
X134006500Y-111922000D01*
G75*
G02*
X134206500Y-112122000I0J-200000D01*
G01*
G37*
G36*
G01*
X114332500Y-113061700D02*
X114332500Y-112261700D01*
G75*
G02*
X114532500Y-112061700I200000J0D01*
G01*
X116432500Y-112061700D01*
G75*
G02*
X116632500Y-112261700I0J-200000D01*
G01*
X116632500Y-113061700D01*
G75*
G02*
X116432500Y-113261700I-200000J0D01*
G01*
X114532500Y-113261700D01*
G75*
G02*
X114332500Y-113061700I0J200000D01*
G01*
G37*
G36*
G01*
X111332500Y-114011700D02*
X111332500Y-113211700D01*
G75*
G02*
X111532500Y-113011700I200000J0D01*
G01*
X113432500Y-113011700D01*
G75*
G02*
X113632500Y-113211700I0J-200000D01*
G01*
X113632500Y-114011700D01*
G75*
G02*
X113432500Y-114211700I-200000J0D01*
G01*
X111532500Y-114211700D01*
G75*
G02*
X111332500Y-114011700I0J200000D01*
G01*
G37*
G36*
G01*
X111332500Y-112111700D02*
X111332500Y-111311700D01*
G75*
G02*
X111532500Y-111111700I200000J0D01*
G01*
X113432500Y-111111700D01*
G75*
G02*
X113632500Y-111311700I0J-200000D01*
G01*
X113632500Y-112111700D01*
G75*
G02*
X113432500Y-112311700I-200000J0D01*
G01*
X111532500Y-112311700D01*
G75*
G02*
X111332500Y-112111700I0J200000D01*
G01*
G37*
G36*
G01*
X111396000Y-108593800D02*
X111396000Y-107793800D01*
G75*
G02*
X111596000Y-107593800I200000J0D01*
G01*
X113496000Y-107593800D01*
G75*
G02*
X113696000Y-107793800I0J-200000D01*
G01*
X113696000Y-108593800D01*
G75*
G02*
X113496000Y-108793800I-200000J0D01*
G01*
X111596000Y-108793800D01*
G75*
G02*
X111396000Y-108593800I0J200000D01*
G01*
G37*
G36*
G01*
X111396000Y-110493800D02*
X111396000Y-109693800D01*
G75*
G02*
X111596000Y-109493800I200000J0D01*
G01*
X113496000Y-109493800D01*
G75*
G02*
X113696000Y-109693800I0J-200000D01*
G01*
X113696000Y-110493800D01*
G75*
G02*
X113496000Y-110693800I-200000J0D01*
G01*
X111596000Y-110693800D01*
G75*
G02*
X111396000Y-110493800I0J200000D01*
G01*
G37*
G36*
G01*
X114396000Y-109543800D02*
X114396000Y-108743800D01*
G75*
G02*
X114596000Y-108543800I200000J0D01*
G01*
X116496000Y-108543800D01*
G75*
G02*
X116696000Y-108743800I0J-200000D01*
G01*
X116696000Y-109543800D01*
G75*
G02*
X116496000Y-109743800I-200000J0D01*
G01*
X114596000Y-109743800D01*
G75*
G02*
X114396000Y-109543800I0J200000D01*
G01*
G37*
G36*
G01*
X89496000Y-120383800D02*
X87796000Y-120383800D01*
G75*
G02*
X87596000Y-120183800I0J200000D01*
G01*
X87596000Y-119283800D01*
G75*
G02*
X87796000Y-119083800I200000J0D01*
G01*
X89496000Y-119083800D01*
G75*
G02*
X89696000Y-119283800I0J-200000D01*
G01*
X89696000Y-120183800D01*
G75*
G02*
X89496000Y-120383800I-200000J0D01*
G01*
G37*
G36*
G01*
X89496000Y-116983800D02*
X87796000Y-116983800D01*
G75*
G02*
X87596000Y-116783800I0J200000D01*
G01*
X87596000Y-115883800D01*
G75*
G02*
X87796000Y-115683800I200000J0D01*
G01*
X89496000Y-115683800D01*
G75*
G02*
X89696000Y-115883800I0J-200000D01*
G01*
X89696000Y-116783800D01*
G75*
G02*
X89496000Y-116983800I-200000J0D01*
G01*
G37*
G36*
G01*
X95674500Y-107440300D02*
X96349500Y-107440300D01*
G75*
G02*
X96687000Y-107777800I0J-337500D01*
G01*
X96687000Y-108477800D01*
G75*
G02*
X96349500Y-108815300I-337500J0D01*
G01*
X95674500Y-108815300D01*
G75*
G02*
X95337000Y-108477800I0J337500D01*
G01*
X95337000Y-107777800D01*
G75*
G02*
X95674500Y-107440300I337500J0D01*
G01*
G37*
G36*
G01*
X95674500Y-109265300D02*
X96349500Y-109265300D01*
G75*
G02*
X96687000Y-109602800I0J-337500D01*
G01*
X96687000Y-110302800D01*
G75*
G02*
X96349500Y-110640300I-337500J0D01*
G01*
X95674500Y-110640300D01*
G75*
G02*
X95337000Y-110302800I0J337500D01*
G01*
X95337000Y-109602800D01*
G75*
G02*
X95674500Y-109265300I337500J0D01*
G01*
G37*
G36*
G01*
X90686000Y-107418800D02*
X92066000Y-107418800D01*
G75*
G02*
X92266000Y-107618800I0J-200000D01*
G01*
X92266000Y-108068800D01*
G75*
G02*
X92066000Y-108268800I-200000J0D01*
G01*
X90686000Y-108268800D01*
G75*
G02*
X90486000Y-108068800I0J200000D01*
G01*
X90486000Y-107618800D01*
G75*
G02*
X90686000Y-107418800I200000J0D01*
G01*
G37*
G36*
G01*
X90686000Y-108068800D02*
X92066000Y-108068800D01*
G75*
G02*
X92266000Y-108268800I0J-200000D01*
G01*
X92266000Y-108718800D01*
G75*
G02*
X92066000Y-108918800I-200000J0D01*
G01*
X90686000Y-108918800D01*
G75*
G02*
X90486000Y-108718800I0J200000D01*
G01*
X90486000Y-108268800D01*
G75*
G02*
X90686000Y-108068800I200000J0D01*
G01*
G37*
G36*
G01*
X90686000Y-108718800D02*
X92066000Y-108718800D01*
G75*
G02*
X92266000Y-108918800I0J-200000D01*
G01*
X92266000Y-109368800D01*
G75*
G02*
X92066000Y-109568800I-200000J0D01*
G01*
X90686000Y-109568800D01*
G75*
G02*
X90486000Y-109368800I0J200000D01*
G01*
X90486000Y-108918800D01*
G75*
G02*
X90686000Y-108718800I200000J0D01*
G01*
G37*
G36*
G01*
X90686000Y-109368800D02*
X92066000Y-109368800D01*
G75*
G02*
X92266000Y-109568800I0J-200000D01*
G01*
X92266000Y-110018800D01*
G75*
G02*
X92066000Y-110218800I-200000J0D01*
G01*
X90686000Y-110218800D01*
G75*
G02*
X90486000Y-110018800I0J200000D01*
G01*
X90486000Y-109568800D01*
G75*
G02*
X90686000Y-109368800I200000J0D01*
G01*
G37*
G36*
G01*
X90686000Y-110018800D02*
X92066000Y-110018800D01*
G75*
G02*
X92266000Y-110218800I0J-200000D01*
G01*
X92266000Y-110668800D01*
G75*
G02*
X92066000Y-110868800I-200000J0D01*
G01*
X90686000Y-110868800D01*
G75*
G02*
X90486000Y-110668800I0J200000D01*
G01*
X90486000Y-110218800D01*
G75*
G02*
X90686000Y-110018800I200000J0D01*
G01*
G37*
G36*
G01*
X90516000Y-105743800D02*
X92066000Y-105743800D01*
G75*
G02*
X92266000Y-105943800I0J-200000D01*
G01*
X92266000Y-107368800D01*
G75*
G02*
X92066000Y-107568800I-200000J0D01*
G01*
X90516000Y-107568800D01*
G75*
G02*
X90316000Y-107368800I0J200000D01*
G01*
X90316000Y-105943800D01*
G75*
G02*
X90516000Y-105743800I200000J0D01*
G01*
G37*
G36*
G01*
X90516000Y-110718800D02*
X92066000Y-110718800D01*
G75*
G02*
X92266000Y-110918800I0J-200000D01*
G01*
X92266000Y-112343800D01*
G75*
G02*
X92066000Y-112543800I-200000J0D01*
G01*
X90516000Y-112543800D01*
G75*
G02*
X90316000Y-112343800I0J200000D01*
G01*
X90316000Y-110918800D01*
G75*
G02*
X90516000Y-110718800I200000J0D01*
G01*
G37*
G36*
G01*
X88066000Y-104743800D02*
X89366000Y-104743800D01*
G75*
G02*
X89566000Y-104943800I0J-200000D01*
G01*
X89566000Y-106593800D01*
G75*
G02*
X89366000Y-106793800I-200000J0D01*
G01*
X88066000Y-106793800D01*
G75*
G02*
X87866000Y-106593800I0J200000D01*
G01*
X87866000Y-104943800D01*
G75*
G02*
X88066000Y-104743800I200000J0D01*
G01*
G37*
G36*
G01*
X88066000Y-111493800D02*
X89366000Y-111493800D01*
G75*
G02*
X89566000Y-111693800I0J-200000D01*
G01*
X89566000Y-113343800D01*
G75*
G02*
X89366000Y-113543800I-200000J0D01*
G01*
X88066000Y-113543800D01*
G75*
G02*
X87866000Y-113343800I0J200000D01*
G01*
X87866000Y-111693800D01*
G75*
G02*
X88066000Y-111493800I200000J0D01*
G01*
G37*
G36*
G01*
X87766000Y-106893800D02*
X89666000Y-106893800D01*
G75*
G02*
X89866000Y-107093800I0J-200000D01*
G01*
X89866000Y-108893800D01*
G75*
G02*
X89666000Y-109093800I-200000J0D01*
G01*
X87766000Y-109093800D01*
G75*
G02*
X87566000Y-108893800I0J200000D01*
G01*
X87566000Y-107093800D01*
G75*
G02*
X87766000Y-106893800I200000J0D01*
G01*
G37*
G36*
G01*
X87766000Y-109993800D02*
X89666000Y-109993800D01*
G75*
G02*
X89866000Y-110193800I0J-200000D01*
G01*
X89866000Y-111193800D01*
G75*
G02*
X89666000Y-111393800I-200000J0D01*
G01*
X87766000Y-111393800D01*
G75*
G02*
X87566000Y-111193800I0J200000D01*
G01*
X87566000Y-110193800D01*
G75*
G02*
X87766000Y-109993800I200000J0D01*
G01*
G37*
D12*
X126428500Y-110388400D03*
X162229800Y-111429800D03*
D14*
X89535000Y-139065000D03*
X161290000Y-138938000D03*
X90678000Y-79248000D03*
X160705800Y-79184500D03*
G36*
G01*
X93193000Y-112740800D02*
X94993000Y-112740800D01*
G75*
G02*
X95193000Y-112940800I0J-200000D01*
G01*
X95193000Y-115040800D01*
G75*
G02*
X94993000Y-115240800I-200000J0D01*
G01*
X93193000Y-115240800D01*
G75*
G02*
X92993000Y-115040800I0J200000D01*
G01*
X92993000Y-112940800D01*
G75*
G02*
X93193000Y-112740800I200000J0D01*
G01*
G37*
G36*
G01*
X93193000Y-115640800D02*
X94993000Y-115640800D01*
G75*
G02*
X95193000Y-115840800I0J-200000D01*
G01*
X95193000Y-117940800D01*
G75*
G02*
X94993000Y-118140800I-200000J0D01*
G01*
X93193000Y-118140800D01*
G75*
G02*
X92993000Y-117940800I0J200000D01*
G01*
X92993000Y-115840800D01*
G75*
G02*
X93193000Y-115640800I200000J0D01*
G01*
G37*
G36*
G01*
X95493000Y-115640800D02*
X97293000Y-115640800D01*
G75*
G02*
X97493000Y-115840800I0J-200000D01*
G01*
X97493000Y-117940800D01*
G75*
G02*
X97293000Y-118140800I-200000J0D01*
G01*
X95493000Y-118140800D01*
G75*
G02*
X95293000Y-117940800I0J200000D01*
G01*
X95293000Y-115840800D01*
G75*
G02*
X95493000Y-115640800I200000J0D01*
G01*
G37*
G36*
G01*
X95493000Y-112740800D02*
X97293000Y-112740800D01*
G75*
G02*
X97493000Y-112940800I0J-200000D01*
G01*
X97493000Y-115040800D01*
G75*
G02*
X97293000Y-115240800I-200000J0D01*
G01*
X95493000Y-115240800D01*
G75*
G02*
X95293000Y-115040800I0J200000D01*
G01*
X95293000Y-112940800D01*
G75*
G02*
X95493000Y-112740800I200000J0D01*
G01*
G37*
G36*
G01*
X157116768Y-98297900D02*
X155633432Y-98297900D01*
G75*
G02*
X155300100Y-97964568I0J333332D01*
G01*
X155300100Y-97031232D01*
G75*
G02*
X155633432Y-96697900I333332J0D01*
G01*
X157116768Y-96697900D01*
G75*
G02*
X157450100Y-97031232I0J-333332D01*
G01*
X157450100Y-97964568D01*
G75*
G02*
X157116768Y-98297900I-333332J0D01*
G01*
G37*
D11*
X156375100Y-95497900D03*
X156375100Y-93497900D03*
M02*
