M48
; DRILL file {KiCad (5.1.9-0-10_14)} date Thursday, February 25, 2021 at 11:38:09 PM
; FORMAT={-:-/ absolute / inch / decimal}
; #@! TF.CreationDate,2021-02-25T23:38:09+01:00
; #@! TF.GenerationSoftware,Kicad,Pcbnew,(5.1.9-0-10_14)
; #@! TF.FileFunction,Plated,1,2,PTH
FMAT,2
INCH
T1C0.0157
T2C0.0295
T3C0.0394
%
G90
G05
T1
X3.4545Y-3.9865
X3.621Y-5.211
X3.6724Y-5.211
X3.726Y-5.481
X3.9075Y-5.288
X3.923Y-3.9615
X3.9685Y-4.4155
X4.01Y-3.4
X4.027Y-4.567
X4.048Y-4.124
X4.088Y-5.3595
X4.1155Y-3.627
X4.3865Y-4.8305
X4.4675Y-3.7305
X4.4978Y-3.4288
X4.5045Y-4.748
X4.5405Y-3.93
X4.617Y-4.609
X4.8745Y-5.1385
X5.2995Y-5.23
X5.4645Y-4.401
X5.6225Y-3.627
X5.6585Y-5.096
X6.1145Y-4.3505
X6.1535Y-5.101
X6.1635Y-4.651
X6.164Y-4.601
X6.1645Y-4.501
X6.1855Y-5.0015
X6.45Y-4.4735
T2
X4.281Y-3.8763
X4.281Y-3.955
X6.1565Y-3.681
X6.1565Y-3.7598
X6.1565Y-3.8385
T3
X4.916Y-3.7875
X5.016Y-3.7875
X5.116Y-3.7875
X5.216Y-3.7875
X5.316Y-3.7875
X5.416Y-3.7875
X5.4865Y-3.479
X5.516Y-3.7875
X5.5865Y-3.479
X5.6865Y-3.479
X5.7865Y-3.479
X5.8865Y-3.479
X5.9865Y-3.479
X6.0865Y-3.479
X6.1865Y-3.479
T0
M30
